<svg width="781" height="140" viewBox="0 0 781 140" fill="none" xmlns="http://www.w3.org/2000/svg">
<path fill-rule="evenodd" clip-rule="evenodd" d="M130.001 2.39752C125.973 4.50452 125.226 4.60652 122.857 3.38152C120.511 2.16852 118.834 2.35052 108.045 4.98452C101.354 6.61852 93.866 7.95552 91.406 7.95552C88.618 7.95552 85.076 8.89652 82 10.4555C78.884 12.0345 75.388 12.9555 72.511 12.9555C68.633 12.9555 67.326 13.5255 63.728 16.7825C58.283 21.7115 48.609 27.4715 43.48 28.8375C41.269 29.4265 36.769 31.5555 33.48 33.5675C24.72 38.9275 22.694 39.9425 20.75 39.9495C19.787 39.9525 19 40.6825 19 41.5715C19 42.4605 16.637 45.7465 13.75 48.8735C6.47 56.7565 0 69.4935 0 75.9415C0 78.7805 0.528 81.1935 1.25 81.6555C1.938 82.0955 3.364 83.4755 4.42 84.7225C6.321 86.9665 6.318 87.0105 4.148 89.0325C2.942 90.1555 2.194 91.4605 2.486 91.9325C2.777 92.4045 6.367 95.3125 10.462 98.3945C14.558 101.478 18.177 104.434 18.505 104.965C18.833 105.495 21.558 106.644 24.56 107.516C28.562 108.68 31.376 110.427 35.112 114.065C42.494 121.255 48.901 124.254 57.5 124.545C71.7 125.025 88.745 126.105 97.5 127.079C105.927 128.017 122.253 129.22 142 130.358C146.675 130.628 161.97 131.137 175.989 131.491C190.008 131.844 201.888 132.387 202.388 132.696C204.172 133.799 229.846 135.202 251 135.353C266.456 135.463 276.014 136.043 285 137.416C292.696 138.591 300.959 139.194 306.5 138.985C315.124 138.66 326.197 138.668 363.5 139.031C378.56 139.177 388.737 139.161 421 138.94C425.675 138.908 436.025 138.657 444 138.381C451.975 138.105 478.975 137.467 504 136.963C560.615 135.822 594.145 134.393 598.566 132.934C600.433 132.318 602.35 132.054 602.825 132.348C603.301 132.642 608.147 132.437 613.595 131.893C619.043 131.349 624.85 130.778 626.5 130.623C630.473 130.25 636.23 127.148 635.733 125.647C635.463 124.83 630.568 124.276 620.133 123.884C608.075 123.43 604.595 122.98 603.327 121.711C602.447 120.831 601.999 119.401 602.332 118.534C602.824 117.251 604.704 116.956 612.397 116.956C619.448 116.956 622.237 116.576 623.348 115.465C624.349 114.465 625.843 114.175 627.889 114.584C629.566 114.919 631.727 114.891 632.691 114.521C634.195 113.944 634.235 113.708 632.972 112.861C631.997 112.207 641.965 112.078 662.5 112.481C719.052 113.589 735 113.66 735 112.804C735 112.338 732.525 111.956 729.5 111.956H724V108.406V104.856L735.25 105.073C741.438 105.192 749.987 104.936 754.25 104.505C761.529 103.769 762 103.576 762 101.339C762 99.5965 762.556 98.9555 764.067 98.9555C765.66 98.9555 765.993 99.4015 765.517 100.902C764.944 102.708 765.406 102.843 771.95 102.781C775.827 102.745 779 102.319 779 101.835C779 101.352 778.1 100.956 777 100.956C775.9 100.956 775 100.506 775 99.9555C775 99.4055 776.098 98.9555 777.441 98.9555C780.913 98.9555 781.395 97.4445 778.524 95.5625C777.02 94.5785 776.288 93.3695 776.639 92.4535C777.074 91.3205 776.456 90.9555 774.107 90.9555C771.234 90.9555 771 90.6965 771 87.5225C771 84.9605 771.511 83.9285 773.015 83.4505C775.588 82.6345 774.604 80.9555 771.552 80.9555C769.683 80.9555 769.093 81.6445 768.568 84.4435C768.208 86.3615 767.065 88.3855 766.028 88.9405C764.502 89.7575 763.733 89.4315 762.006 87.2365C760.102 84.8165 760.041 84.3985 761.436 83.3785C762.296 82.7495 763 81.7305 763 81.1145C763 79.7385 760.659 79.2265 751 78.4925C737.725 77.4845 735.035 76.8885 733.864 74.7025C732.879 72.8605 733.003 72.7285 735.137 73.3385C736.436 73.7095 741.485 74.2545 746.355 74.5495C753.405 74.9765 755.121 74.8185 754.772 73.7705C754.53 73.0415 751.921 72.1155 748.917 71.6915C745.938 71.2715 740.125 70.3715 736 69.6925L728.5 68.4565L734.899 67.7505C738.553 67.3475 742.063 67.4545 743.083 67.9995C744.065 68.5255 747.261 68.9265 750.184 68.8915L755.5 68.8275L752.25 67.2105C747.325 64.7595 747.917 62.5095 753.25 63.4085C764.115 65.2395 764.263 65.2455 763.8 63.8565C763.134 61.8565 748.261 59.9365 746.826 61.6655C745.545 63.2095 733 63.4725 733 61.9555C733 61.4055 733.45 60.9555 734 60.9555C734.55 60.9555 735 60.5355 735 60.0225C735 58.4985 731.714 57.9235 728.5 58.8855L725.5 59.7835L728.809 59.8695C730.629 59.9165 731.91 60.2935 731.655 60.7055C731.4 61.1175 728.898 61.2995 726.096 61.1085C721.874 60.8215 721 60.4355 721 58.8585C721 57.3315 720.259 56.9495 717.25 56.9225C713.638 56.8915 703.703 53.9925 702.259 52.5485C700.667 50.9555 704.925 50.0445 711.25 50.6235C715.73 51.0345 718 50.8855 718 50.1815C718 48.8365 710.839 47.3115 700.267 46.4055C695.738 46.0175 691.238 45.0965 690.267 44.3595C688.592 43.0885 688.591 43.0175 690.25 42.9875C694.686 42.9065 689.281 38.9675 684.703 38.9445C683.491 38.9385 680.475 38.3225 678 37.5745C675.525 36.8275 672.126 36.4205 670.446 36.6705C667.358 37.1295 656.44 34.4765 655.56 33.0525C655.298 32.6285 651.465 32.4905 647.042 32.7465C639.359 33.1915 639 33.1175 639 31.0835C639 29.4065 638.391 28.9555 636.127 28.9555C634.547 28.9555 631.285 28.0925 628.877 27.0385C626.414 25.9605 619.908 24.6545 614 24.0535C608.225 23.4655 599.759 22.0785 595.187 20.9705C590.614 19.8625 585.383 18.9555 583.562 18.9555C581.741 18.9555 578.338 18.2805 576 17.4555C573.662 16.6305 570.116 15.9555 568.121 15.9555C566.126 15.9555 561.345 15.0515 557.497 13.9455C549.719 11.7115 529.365 8.58852 524.115 8.82352C522.253 8.90752 520.228 8.58152 519.615 8.09952C519.002 7.61752 514.9 6.89352 510.5 6.48952C506.1 6.08552 499.575 5.39152 496 4.94752C477.811 2.68852 455.886 0.64452 451 0.75352C447.975 0.82152 415.575 1.34152 379 1.90952C342.425 2.47752 304.175 3.40052 294 3.96052C283.825 4.51952 265.983 5.14252 254.352 5.34452C242.72 5.54652 232.709 6.01752 232.105 6.39052C231.501 6.76352 215.818 7.27152 197.253 7.51852C178.689 7.76552 161.097 8.19852 158.159 8.48152C153.333 8.94452 152.627 8.75152 150.837 6.47452C149.514 4.79352 147.868 3.95552 145.888 3.95552C144.256 3.95552 141.156 3.05552 139 1.95552C136.844 0.85552 134.949 -0.0244802 134.79 0.000519775C134.63 0.0255198 132.476 1.10452 130.001 2.39752ZM675 42.4745C675 43.6225 674.328 43.8355 672.25 43.3455C667.778 42.2915 667.247 40.9555 671.3 40.9555C673.943 40.9555 675 41.3895 675 42.4745ZM696 42.4555C696 43.2885 696.889 43.9555 698 43.9555C699.111 43.9555 700 43.2885 700 42.4555C700 41.6225 699.111 40.9555 698 40.9555C696.889 40.9555 696 41.6225 696 42.4555ZM683.25 48.6175C682.563 48.8955 681.438 48.8955 680.75 48.6175C680.063 48.3405 680.625 48.1135 682 48.1135C683.375 48.1135 683.938 48.3405 683.25 48.6175ZM697 50.9555C697 51.5055 696.802 51.9555 696.559 51.9555C696.316 51.9555 695.84 51.5055 695.5 50.9555C695.16 50.4055 695.359 49.9555 695.941 49.9555C696.523 49.9555 697 50.4055 697 50.9555ZM740.75 60.6175C741.438 60.8955 742.563 60.8955 743.25 60.6175C743.938 60.3405 743.375 60.1135 742 60.1135C740.625 60.1135 740.063 60.3405 740.75 60.6175ZM760.166 67.0655C756.821 68.3385 758.026 70.4025 762.327 70.7655C766.339 71.1045 766.963 70.1155 764.25 67.7215C762.989 66.6085 761.848 66.4255 760.166 67.0655ZM723.5 73.9555C723.84 74.5055 723.641 74.9555 723.059 74.9555C722.477 74.9555 722 74.5055 722 73.9555C722 73.4055 722.198 72.9555 722.441 72.9555C722.684 72.9555 723.16 73.4055 723.5 73.9555ZM757.5 87.9555C757.84 88.5055 757.641 88.9555 757.059 88.9555C756.477 88.9555 756 88.5055 756 87.9555C756 87.4055 756.198 86.9555 756.441 86.9555C756.684 86.9555 757.16 87.4055 757.5 87.9555ZM778 88.9555C778 89.5055 778.45 89.9555 779 89.9555C779.55 89.9555 780 89.5055 780 88.9555C780 88.4055 779.55 87.9555 779 87.9555C778.45 87.9555 778 88.4055 778 88.9555ZM709.75 104.645C708.788 104.897 707.212 104.897 706.25 104.645C705.288 104.394 706.075 104.188 708 104.188C709.925 104.188 710.712 104.394 709.75 104.645ZM727 108.166C727 109.273 728.626 109.841 733.157 110.315C737.695 110.789 739.681 111.483 740.713 112.957C742.335 115.272 745 115.622 745 113.519C745 112.638 746.227 111.962 748.173 111.769C749.918 111.597 751.511 110.953 751.712 110.339C752.177 108.919 748.339 108.161 736.463 107.326C728.409 106.76 727 106.885 727 108.166ZM757 109.956C757 110.506 757.477 110.956 758.059 110.956C758.641 110.956 758.84 110.506 758.5 109.956C758.16 109.406 757.684 108.956 757.441 108.956C757.198 108.956 757 109.406 757 109.956ZM763 109.956C763 110.506 763.45 110.956 764 110.956C764.55 110.956 765 110.506 765 109.956C765 109.406 764.55 108.956 764 108.956C763.45 108.956 763 109.406 763 109.956ZM750 113.956C750 114.506 750.45 114.956 751 114.956C751.55 114.956 752 114.506 752 113.956C752 113.406 751.55 112.956 751 112.956C750.45 112.956 750 113.406 750 113.956ZM588.686 119.13C589.958 120.326 591 121.676 591 122.13C591 123.809 588.064 122.886 586.557 120.733C583.662 116.6 584.955 115.626 588.686 119.13Z" fill="#8E6AFF"/>
</svg>
