<svg width="783" height="239" viewBox="0 0 783 239" fill="none" xmlns="http://www.w3.org/2000/svg">
<path fill-rule="evenodd" clip-rule="evenodd" d="M376.349 1.18623C375.403 1.81768 371.091 2.41111 366.596 2.52887C362.165 2.64477 352.815 3.07965 345.818 3.49598C335.619 4.10239 332.906 4.00781 332.133 3.01845C331.334 1.99756 330.568 2.04763 327.681 3.31053C325.607 4.21829 323.3 4.59197 321.992 4.2322C320.756 3.89376 319.28 4.09034 318.629 4.68191C317.762 5.46821 315.571 5.45152 309.961 4.6133C300.58 3.21132 284.621 3.74355 282.07 5.54332C280.467 6.67547 279.798 6.62633 276.817 5.15666C273.663 3.60168 273.297 3.5887 272.022 4.98141C270.524 6.61984 269.524 6.68475 261.859 5.63975C249.297 3.92714 196.784 7.72047 185.963 11.1225C182.088 12.34 176.952 12.3084 174.806 11.053C173.421 10.2426 172.496 10.5068 169.94 12.4438C166.808 14.8166 162.211 15.6873 162.211 13.9079C162.211 12.2584 156.981 12.9251 153.971 14.9585C151.356 16.7258 150.68 16.8176 147.636 15.8208C143.793 14.5616 138.208 15.2571 136.751 17.1755C136.04 18.1129 135.226 18.2094 133.631 17.5464C132.315 16.9993 131.1 16.9817 130.516 17.5019C129.991 17.9701 127.652 18.5775 125.319 18.851C122.987 19.1255 118.98 19.8024 116.415 20.3559C113.849 20.9086 109.079 21.5715 105.814 21.8284C102.549 22.0843 98.9231 22.5618 97.757 22.8882C96.5909 23.2155 95.1289 23.388 94.5072 23.273C93.3199 23.0533 66.3037 29.9909 53.1899 33.8834C48.9682 35.1361 44.9798 36.1616 44.3267 36.1616C42.6119 36.1616 25.9982 45.077 21.0064 48.6765C15.8976 52.3604 5.67327 63.7608 4.53006 67.0497C4.07804 68.3488 3.92539 70.8755 4.19084 72.6641C4.53855 75.0082 4.19253 76.7727 2.94841 78.9879C0.204892 83.8744 -0.814493 91.8849 0.70695 96.5999C1.40152 98.752 2.61088 101.287 3.3945 102.234C5.68005 104.996 5.8327 114.308 3.70404 121.206C2.72536 124.378 1.92478 127.597 1.92478 128.361C1.92478 131.19 4.76329 136.217 6.51456 136.491C8.17763 136.75 8.26837 137.245 7.99953 144.648C7.78751 150.485 7.18199 153.822 5.66733 157.51C4.14419 161.217 3.62093 164.12 3.62093 168.869C3.62093 175.711 4.28497 176.515 7.92829 174.088C9.43362 173.085 9.88904 173.224 11.3087 175.118C13.4018 177.91 13.395 181.785 11.2875 186.302C10.3733 188.261 9.3768 192.521 9.07404 195.769C8.5847 201.012 8.72039 201.869 10.2902 203.418C11.994 205.1 12.1424 205.103 14.3686 203.508C15.6432 202.595 16.8051 202.264 16.9586 202.769C17.1129 203.274 18.5631 205.268 20.1829 207.202C21.8019 209.134 23.1266 211.626 23.1266 212.74C23.1266 216.352 24.9262 217.658 30.6142 218.176C36.4388 218.707 37.7618 219.36 35.8231 220.749C34.7579 221.514 34.8164 221.845 36.2217 223.018C37.1274 223.773 39.0899 224.391 40.5833 224.391C42.215 224.391 43.4939 224.946 43.7874 225.782C44.4192 227.584 46.0246 227.584 46.0246 225.782C46.0246 223.89 47.4485 224.025 48.4696 226.013C49.2566 227.545 49.3363 227.541 49.902 225.935C50.3854 224.562 51.0638 224.348 53.4045 224.828C55.0006 225.156 57.622 224.949 59.2291 224.369C61.5978 223.514 62.8359 223.602 65.7745 224.828C68.8861 226.127 70.5339 226.2 77.4287 225.339C81.8463 224.788 91.1845 223.919 98.1811 223.408C108.938 222.622 111.11 222.209 112.25 220.735C113.449 219.183 114.988 218.978 126.243 218.87C133.198 218.804 140.144 219.026 141.678 219.362C143.687 219.805 144.901 219.548 146.014 218.445C146.865 217.604 149.617 216.662 152.13 216.353C154.642 216.044 157.126 215.424 157.649 214.977C158.237 214.473 159.366 214.848 160.617 215.962C162.618 217.745 162.65 217.744 164.518 215.84C166.07 214.256 166.628 214.124 167.693 215.091C168.744 216.045 169.546 215.971 172.007 214.695C174.228 213.542 175.325 213.394 176.143 214.136C176.773 214.708 179.236 214.98 181.818 214.763C184.327 214.553 187.784 214.338 189.501 214.286C191.216 214.234 193.192 213.565 193.892 212.8C195.335 211.223 197.83 210.934 197.83 212.343C197.83 212.929 199.961 213.083 203.554 212.757C206.702 212.471 212.629 211.999 216.725 211.708C222.905 211.269 224.375 210.861 225.371 209.306C226.439 207.639 226.85 207.56 229.111 208.583C230.508 209.216 232.029 209.477 232.493 209.165C234.388 207.883 241.285 207.063 244.593 207.725C246.612 208.128 249.175 208.032 250.568 207.501C252.29 206.846 253.724 206.897 255.448 207.677C257.301 208.516 258.329 208.526 259.716 207.713C261.065 206.924 261.842 206.916 262.686 207.681C263.529 208.446 263.984 208.442 264.422 207.667C264.832 206.943 270.316 206.608 282.095 206.589C307.032 206.546 321.898 206.189 323.344 205.597C325.577 204.685 372.056 202.888 386.766 203.146C400.564 203.388 404.759 202.922 404.759 201.148C404.759 199.487 412.718 200.224 415.36 202.129C417.606 203.748 419.296 203.953 429.778 203.881C436.308 203.837 443.464 204.099 445.679 204.464C449.148 205.037 449.707 204.909 449.707 203.547C449.707 202.678 450.471 200.905 451.403 199.608C452.336 198.311 453.1 195.867 453.1 194.177V191.103L457.976 190.825C462.202 190.584 462.852 190.299 462.852 188.692C462.852 187.359 462.198 186.755 460.52 186.545C458.647 186.308 458.188 185.78 458.188 183.853V181.456L469.849 182.089C476.263 182.437 485.119 183.159 489.529 183.693C496.775 184.571 497.653 184.509 498.622 183.06C500.225 180.663 514.58 181.812 516.888 184.521C519.059 187.069 521.625 186.866 522.796 184.056C523.908 181.387 523.745 181.42 529.385 182.742C531.882 183.328 533.667 184.252 533.667 184.961C533.667 185.629 534.27 186.429 535.008 186.738C537.216 187.665 543.843 187.375 543.843 186.351C543.843 183.306 552.554 183.837 554.275 186.987C555.17 188.626 556.565 188.575 556.565 186.903C556.565 185.861 557.703 185.642 561.865 185.881C564.781 186.049 568.347 186.228 569.789 186.279C571.266 186.332 573.493 187.388 574.878 188.691C577.74 191.382 579.842 191.586 583.6 189.537C585.638 188.425 587.389 188.231 590.727 188.75C593.161 189.128 597.251 189.579 599.816 189.754C612.828 190.636 616.31 191.224 617.303 192.708C618.238 194.107 618.447 194.11 619.882 192.741C621.077 191.6 622.729 191.342 626.955 191.638C629.986 191.851 633.326 192.023 634.375 192.02C639.285 192.007 649.881 192.855 654.66 193.644C657.071 194.042 659.58 194.854 660.235 195.449C661.145 196.274 661.673 196.261 662.47 195.392C663.295 194.494 663.858 194.742 665.159 196.574L666.803 198.892L667.331 196.805C667.785 195.016 668.433 194.719 671.887 194.719C674.63 194.719 676.602 195.311 678.07 196.574C680.602 198.751 682.927 198.992 682.927 197.077C682.927 195.925 685.343 195.788 699.253 196.148C718.763 196.653 724.05 197.205 725.313 198.868C726.959 201.035 724.581 201.631 714.185 201.653C706.126 201.67 704.019 201.961 702.727 203.24C701.333 204.616 698.64 204.81 680.374 204.849C668.951 204.873 658.46 204.879 657.061 204.861C655.662 204.845 648.983 204.832 642.22 204.833C635.457 204.836 625.916 204.44 621.018 203.955C597.349 201.609 590.949 201.112 580.735 200.831C574.671 200.664 561.886 200.062 552.324 199.493C536.964 198.581 529.798 198.035 507.376 196.067C504.344 195.8 491.846 195.358 479.602 195.083C457.789 194.593 457.34 194.62 457.34 196.428C457.34 198.721 458.927 199.418 461.156 198.106C463.316 196.836 467.397 196.539 468.002 197.608C468.256 198.059 469.416 198.428 470.578 198.428C471.739 198.428 473.72 198.997 474.98 199.694C477.897 201.306 494.073 202.543 496.173 201.314C497.832 200.344 504.811 200.044 510.345 200.706C512.21 200.93 516.059 201.394 518.897 201.739C522.313 202.155 524.696 201.992 525.947 201.26C527.402 200.41 528.117 200.407 529.045 201.249C529.741 201.88 531.19 202.087 532.465 201.737C533.681 201.404 535.118 201.511 535.656 201.977C536.195 202.442 538.029 203.097 539.733 203.432C541.437 203.767 543.047 204.656 543.311 205.407C543.928 207.167 546.912 207.18 547.527 205.426C547.923 204.299 550.241 204.152 561.732 204.526C569.284 204.771 575.868 205.246 576.363 205.58C576.857 205.915 582.241 206.531 588.327 206.951C594.413 207.371 600.919 207.919 602.785 208.17C604.65 208.419 607.131 208.632 608.297 208.643C612.333 208.678 617.737 210.683 617.282 211.977C617.046 212.652 617.293 213.503 617.834 213.868C619.541 215.021 625.586 214.155 627.238 212.52C630.034 209.753 642.22 211.482 642.22 214.646C642.22 216.175 661.296 215.736 663.026 214.166C664.261 213.044 664.596 213.084 665.515 214.458C666.157 215.418 667.717 216.046 669.46 216.046C671.304 216.046 672.682 216.639 673.284 217.694C674.727 220.219 685.295 221.951 692.37 220.823C695.464 220.329 698.518 219.952 699.154 219.985C702.36 220.154 704.977 219.663 704.977 218.892C704.977 218.417 704.149 217.895 703.135 217.733C700.263 217.27 700.361 215.356 703.293 214.652C704.748 214.302 712.004 214.317 719.417 214.684C732.866 215.351 732.903 215.347 737.154 212.917C739.496 211.578 741.958 210.482 742.626 210.482C743.292 210.482 744.801 209.23 745.979 207.7C747.156 206.171 748.64 204.919 749.276 204.919C750.683 204.919 752.469 203.083 752.469 201.637C752.469 199.969 748.94 198.678 745.594 199.122C743.28 199.429 742.401 199.148 741.986 197.967C741.685 197.109 741.628 196.073 741.857 195.666C742.088 195.259 746.859 194.624 752.461 194.256C762.234 193.614 762.646 193.504 762.646 191.528C762.646 190.28 763.482 188.98 764.766 188.228C767.154 186.831 767.699 184.87 765.403 185.94C762.669 187.213 755.625 186.942 755.193 185.548C754.889 184.568 755.333 184.406 757.041 184.875C758.798 185.357 759.783 184.953 761.545 183.027C762.785 181.67 764.781 180.236 765.979 179.838C768.07 179.145 768.046 179.112 765.403 179.036C762.84 178.962 762.646 178.732 762.646 175.757C762.646 173.696 763.165 172.24 764.104 171.665C765.432 170.853 765.382 170.615 763.544 168.986C761.526 167.201 761.526 167.2 763.22 165.347C764.18 164.297 767.175 163.008 770.121 162.373C777.561 160.774 783 157.968 783 155.732C783 154.365 782.416 153.921 780.618 153.921C777.751 153.921 775.616 152.27 775.218 149.748C774.963 148.133 774.161 147.859 768.994 147.626C763.422 147.374 762.976 147.192 761.622 144.612L760.181 141.867H763.611C765.987 141.867 768.052 141.084 770.337 139.317C773.797 136.642 774.434 135.038 772.532 133.8C770.531 132.496 768.611 128.481 769.357 127.161C769.744 126.477 771.349 125.585 772.926 125.178C775.539 124.504 775.59 124.431 773.502 124.344C770.733 124.23 763.494 119.083 763.494 117.229C763.494 116.338 764.447 115.904 766.402 115.904C768.001 115.904 769.822 115.344 770.448 114.66C771.074 113.975 772.46 112.903 773.528 112.278C776.055 110.8 775.506 109.227 772.129 108.27C769.869 107.63 769.431 107.064 769.431 104.786C769.431 103.292 768.721 101.321 767.854 100.409C766.987 99.4965 766.036 97.6485 765.742 96.3031C765.419 94.8316 764.441 93.6336 763.29 93.2989C760.585 92.5126 755.517 83.6324 756.804 81.9365C757.333 81.2392 758.251 80.669 758.843 80.669C761.116 80.669 760.809 77.9225 758.277 75.5924C756.309 73.7824 755.806 72.6957 756.18 71.0665C756.696 68.8152 754.504 65.9816 749.767 62.7742C748.514 61.9258 746.987 60.076 746.374 58.6647C745.762 57.2525 744.028 55.4713 742.523 54.7064C741.017 53.9414 739.777 52.6627 739.767 51.8644C739.756 50.9844 736.855 48.7934 732.401 46.3009C728.36 44.0394 724.634 41.7714 724.12 41.2614C720.83 37.9985 702.196 31.2779 690.681 29.2027C686.784 28.4999 682.938 27.275 682.134 26.4803C681.331 25.6848 680.189 25.0348 679.596 25.0348C679.004 25.0348 677.174 24.3366 675.529 23.4835C673.149 22.2484 671.884 22.1232 669.333 22.8678C666.941 23.5651 665.621 23.4965 664.138 22.5971C663.044 21.9341 660.75 21.3768 659.04 21.3583C657.33 21.3407 655.796 20.8845 655.631 20.3457C655.423 19.6614 654.186 19.6549 651.533 20.3235C649.442 20.8492 646.617 21.2906 645.255 21.3036C643.892 21.3156 642.063 22.0324 641.19 22.8966C639.687 24.3838 639.492 24.3356 637.507 21.9953C635.876 20.0731 634.882 19.6382 633.035 20.0425C631.728 20.3281 628.967 20.0527 626.899 19.4296C624.83 18.8074 619.322 18.2066 614.658 18.0944C609.993 17.9822 605.604 17.6391 604.905 17.3304C604.205 17.0216 602.678 16.7851 601.512 16.8037C600.346 16.8232 598.397 16.5589 597.18 16.2177C595.511 15.7485 594.827 15.9961 594.396 17.2256C594.082 18.1213 594.218 19.285 594.7 19.8116C595.182 20.3383 595.576 21.5205 595.576 22.4385C595.576 23.5067 596.206 24.1075 597.328 24.1075C598.291 24.1075 599.857 24.5619 600.806 25.1182C602.235 25.9537 602.93 25.7135 604.825 23.7274C607.664 20.7537 608.297 20.7203 608.297 23.5447C608.297 26.5935 609.846 27.0849 620.503 27.415C625.585 27.5726 630.797 28.18 632.088 28.7641C633.788 29.5337 634.906 29.5495 636.151 28.8216C638.397 27.5068 641.628 27.5402 642.863 28.8902C643.605 29.7016 644.132 29.7016 645.024 28.893C645.945 28.0576 646.555 28.2486 647.811 29.7655C649.099 31.3224 650.086 31.6107 652.769 31.2176C654.612 30.9478 656.713 31.0683 657.439 31.4874C658.164 31.9056 662.725 32.716 667.575 33.2881C674.299 34.0818 677.054 34.067 679.184 33.2251C681.483 32.3154 682.548 32.3841 685.209 33.6099C686.985 34.4295 689.489 35.3466 690.772 35.6489C692.055 35.9502 693.104 36.6234 693.104 37.1436C693.104 38.1913 682.119 37.8761 659.321 36.1727C649.594 35.4458 645.147 35.4291 644.389 36.1171C643.08 37.3058 638.078 36.3999 636.21 34.6363C634.723 33.2325 625.541 31.8008 613.809 31.1425C609.611 30.9079 604.364 30.4257 602.148 30.0724C599.373 29.6292 598.12 29.7553 598.12 30.4776C598.12 32.1263 592.919 31.7007 591.094 29.9028C589.739 28.5685 587.816 28.2801 580.261 28.2801C574.047 28.2801 570.732 27.9055 570.012 27.1211C568.576 25.5587 564.156 25.7052 562.127 27.3825C560.239 28.9431 556.914 29.1842 556.14 27.8165C555.852 27.3065 554.354 26.8892 552.813 26.8892C551.27 26.8892 549.039 26.0547 547.852 25.0348C545.066 22.6388 542.072 22.6759 540.15 25.1293C538.909 26.7131 538.119 26.9439 535.933 26.3607C534.454 25.9657 528.954 25.6106 523.711 25.5716C516.915 25.5206 514.063 25.1674 513.773 24.3403C513.544 23.6866 511.924 23.1803 510.061 23.1803C508.041 23.1803 505.919 22.4598 504.601 21.3258C502.025 19.1107 500.94 18.9938 500.285 20.8622C499.592 22.8363 497.207 22.5841 494.984 20.3012L493.085 18.3494L491.969 20.3012C491.356 21.375 490.369 22.2531 489.775 22.2531C489.182 22.2531 488.024 22.712 487.202 23.2721C484.928 24.8261 478.712 22.6564 476.095 19.3953C473.984 16.7657 470.909 15.7235 470.909 17.6382C470.909 18.1602 470.022 17.9516 468.938 17.1746C466.659 15.5417 460.071 15.4963 458.188 17.1013C455.744 19.1848 452.647 19.9758 448.859 19.4843C446.76 19.2117 443.36 19.5149 441.304 20.1575C436.494 21.6606 433.61 21.6337 430.172 20.0527C428.345 19.2136 425.575 18.94 422.031 19.2516C418.471 19.5641 416.24 19.3415 415.415 18.5933C414.183 17.4759 410.78 17.908 401.367 20.3773C397.265 21.4529 390.77 21.0133 389.158 19.5511C388.388 18.8529 387.185 18.622 386.325 19.0087C384.55 19.8061 381.8 20.2289 373.78 20.9364C368.479 21.4037 367.644 21.2498 366.228 19.539C364.283 17.1903 362.474 17.0856 361.034 19.2395C359.681 21.2646 348.908 23.4603 347.303 22.0379C346.573 21.3917 345.838 21.4658 344.945 22.2762C343.953 23.1757 343.155 23.2072 341.553 22.4088C339.83 21.5511 339.458 20.7027 339.458 17.6363C339.458 15.5862 339.839 13.9079 340.306 13.9079C340.772 13.9079 341.154 14.4856 341.154 15.1903C341.154 15.8959 342.012 16.7249 343.062 17.0327C346.057 17.9099 355.419 17.7105 355.956 16.7583C356.223 16.2854 358.456 16.1259 360.918 16.404C365.273 16.8955 365.456 16.8194 367.726 13.5667C369.008 11.728 370.781 9.80119 371.663 9.28379C373.672 8.10898 377.621 9.58051 377.621 11.5045C377.621 13.3766 381.033 14.4466 381.932 12.8555C382.495 11.8597 382.854 11.8402 383.692 12.7563C384.992 14.1777 392.207 14.2797 393.474 12.8945C394.145 12.161 395.022 12.3261 396.647 13.4897C399.313 15.3998 402.566 14.3001 403.471 11.1828C403.956 9.51096 404.716 9.27174 409.537 9.27174C412.568 9.27174 415.827 8.81554 416.779 8.25827C419.111 6.8943 421.249 8.89435 418.965 10.3028C416.543 11.7966 417.155 13.9079 420.008 13.9079C422.848 13.9079 429.083 11.4851 431.117 9.59163C431.853 8.90548 433.647 8.3445 435.105 8.3445C436.562 8.3445 438.737 7.85492 439.938 7.25685C441.607 6.42512 442.355 6.42512 443.115 7.25685C443.662 7.85492 445.317 8.3445 446.791 8.3445C449.235 8.3445 449.434 8.5624 449.042 10.8063C448.624 13.1912 448.71 13.2496 451.822 12.6979C453.589 12.3845 455.744 12.543 456.611 13.0502C458.586 14.2056 461.25 12.7971 462.004 10.1999C462.375 8.92217 463.251 8.36768 464.817 8.41775C466.167 8.46133 466.575 8.70612 465.821 9.02046C464.305 9.65098 463.307 11.1373 463.289 12.7915C463.271 14.4652 480.099 13.2774 482.001 11.4702C483.931 9.63707 485.683 9.89113 489.223 12.5171C493.11 15.4008 498.26 15.5899 501.864 12.9807C503.847 11.5453 505.848 11.1373 510.931 11.1327C514.518 11.129 517.662 10.7562 517.918 10.3047C518.655 9.00006 515.436 8.47802 509.992 9.01768C505.832 9.4303 504.467 9.17623 502.044 7.53966C500.291 6.35465 497.712 5.56279 495.603 5.56279C493.67 5.56279 491.351 5.0593 490.45 4.44454C489.114 3.53214 488.52 3.61744 487.215 4.90816C485.14 6.96199 477.511 7.0918 475.998 5.09917C475.417 4.3342 473.737 3.70831 472.266 3.70831C470.795 3.70831 468.708 3.03236 467.629 2.20619C466.019 0.972966 465.321 0.905276 463.743 1.8288C461.425 3.18535 437.164 3.7556 430.106 2.61974C427.483 2.19785 421.962 2.23123 417.809 2.69485C413.633 3.15939 409.878 3.18072 409.39 2.74213C408.905 2.30633 404.637 2.09492 399.907 2.27202C393.118 2.52609 391.21 2.32024 390.851 1.29657C390.266 -0.368747 378.813 -0.455907 376.349 1.18623ZM539.86 9.78913L538.28 12.161L536.185 10.1647C534.408 8.47061 533.289 8.22396 528.793 8.53273C523.121 8.92124 520.388 10.504 522.648 12.0924C523.71 12.8379 523.726 13.1133 522.745 13.8041C520.582 15.3285 522.709 16.6896 527.253 16.6896C530.227 16.6896 532.122 16.2158 532.818 15.2988C534.259 13.4007 541.299 13.3738 541.299 15.2663C541.299 16.0128 542.077 17.0791 543.028 17.6354C545.183 18.8965 551.902 17.8997 553.254 16.1185C554.047 15.0725 553.725 14.6265 551.585 13.8106C550.126 13.2542 548.932 12.2139 548.932 11.499C548.932 10.7841 548.406 10.199 547.763 10.199C547.121 10.199 546.121 9.57309 545.54 8.80812C543.958 6.72462 541.634 7.12611 539.86 9.78913ZM558.261 13.4035L555.292 14.6117L557.625 15.1875C558.908 15.5037 560.986 15.9998 562.245 16.29C563.876 16.6655 564.21 17.0355 563.408 17.577C560.109 19.8061 568.056 22.2531 578.596 22.2531C583.54 22.2531 585.625 21.8738 586.611 20.7964C589.641 17.4834 587.209 15.0206 580.638 14.7499C577.893 14.6358 574.011 13.983 572.012 13.2987C567.534 11.7641 562.186 11.8049 558.261 13.4035ZM325.041 20.3077C325.041 21.3434 320.382 23.1803 317.756 23.1803C315.633 23.1803 314.462 21.8599 315.288 20.3986C315.94 19.2442 325.041 19.1598 325.041 20.3077ZM534.515 44.9704C535.414 46.1563 535.18 46.3612 532.922 46.3612C531.134 46.3612 530.274 46.8128 530.274 47.7521C530.274 48.6793 531.122 49.1429 532.818 49.1429C534.433 49.1429 535.363 49.6168 535.363 50.4401C535.363 52.2733 528.342 52.7415 523.093 51.2598C520.776 50.6052 517.436 50.0702 515.672 50.0702C513.086 50.0702 512.465 49.7289 512.465 48.3075C512.465 46.7924 513.058 46.5643 516.695 46.6848C519.578 46.7803 521.083 47.2671 521.422 48.2157C521.776 49.2032 522.259 48.7331 523.088 46.593C524.201 43.7205 524.471 43.5795 528.857 43.5795C531.913 43.5795 533.813 44.0468 534.515 44.9704ZM632.555 59.7227C632.807 60.4413 633.985 61.2962 635.172 61.6217C638.376 62.5016 636.846 63.3732 633.355 62.6574C631.128 62.2003 630.347 61.5698 630.347 60.2281C630.347 58.1371 631.876 57.7876 632.555 59.7227ZM692.006 91.5019C694.074 91.8116 695.648 92.546 695.648 93.1987C695.648 93.832 696.221 94.8696 696.921 95.5048C697.62 96.1399 698.193 97.4909 698.193 98.5081C698.193 100.006 697.831 100.23 696.285 99.6876C695.235 99.3194 691.832 98.8085 688.722 98.5517C683.894 98.1539 682.727 97.6958 680.728 95.4139C679.44 93.9452 678.641 92.4644 678.952 92.125C679.774 91.2247 685.686 90.0925 687.13 90.558C687.808 90.7768 690.002 91.2015 692.006 91.5019ZM744.993 96.432C747.001 96.432 748.12 96.8011 747.805 97.3593C746.963 98.8493 739.419 98.459 737.578 96.8289C736.02 95.4501 736.085 95.4 738.794 95.9016C740.368 96.1937 743.158 96.432 744.993 96.432ZM755.65 140.596C758.031 141.295 758.103 142.48 755.813 143.274C753.859 143.953 745.939 142.139 745.208 140.847C744.682 139.916 752.674 139.725 755.65 140.596ZM772.413 174.676C774.187 177.637 774.695 177.781 773.775 175.063C773.396 173.942 772.607 172.85 772.022 172.637C771.339 172.388 771.479 173.118 772.413 174.676ZM468.928 186.995C467.558 188.492 468.656 189.156 472.502 189.156C475.266 189.156 477.013 189.65 477.768 190.645C478.602 191.744 479.858 192.016 482.55 191.684C484.558 191.437 486.409 191.602 486.662 192.05C487.414 193.38 490.429 192.976 490.956 191.474C491.313 190.458 492.777 190.083 496.392 190.083C500.874 190.083 503.271 188.994 501.955 187.555C501.247 186.782 469.613 186.245 468.928 186.995ZM506.164 188.123C505.614 189.096 509.013 190.232 510.158 189.459C511.032 188.868 509.234 187.337 507.638 187.315C507.083 187.308 506.42 187.671 506.164 188.123ZM516.307 189.109C515.659 190.256 517.681 191.308 519.668 190.857C520.421 190.687 521.027 190.129 521.017 189.619C520.991 188.332 516.992 187.899 516.307 189.109ZM533.667 190.783C533.667 191.633 548.963 193.086 549.71 192.306C550.482 191.499 549.04 191.19 541.511 190.552C536.603 190.135 533.667 190.222 533.667 190.783ZM552.324 191.937C552.324 192.447 553.278 192.865 554.444 192.865C555.61 192.865 556.565 192.447 556.565 191.937C556.565 191.427 555.61 191.01 554.444 191.01C553.278 191.01 552.324 191.427 552.324 191.937ZM568.865 192.747C567.676 193.285 569.278 193.713 574.242 194.187C580.546 194.788 583.003 194.543 581.936 193.42C581.145 192.587 570.437 192.036 568.865 192.747ZM583.703 193.673C583.703 194.248 584.823 194.719 586.192 194.719C587.561 194.719 591.281 195.307 594.461 196.025C598.066 196.84 601.517 197.068 603.633 196.631C608.104 195.709 606.197 195.008 597.272 194.298C593.307 193.983 588.633 193.478 586.883 193.176C584.792 192.816 583.703 192.985 583.703 193.673ZM377.155 194.709C380.255 194.728 377.29 196.423 371.704 197.825C365.705 199.331 364.9 199.184 364.9 196.58C364.9 194.61 367.752 193.774 372.533 194.345C374.165 194.539 376.245 194.703 377.155 194.709ZM608.297 196.574C608.297 197.084 608.679 197.501 609.145 197.501C609.611 197.501 609.993 197.084 609.993 196.574C609.993 196.064 609.611 195.646 609.145 195.646C608.679 195.646 608.297 196.064 608.297 196.574ZM658.333 201.21C658.333 201.72 658.692 202.137 659.131 202.137C659.571 202.137 660.165 201.72 660.453 201.21C660.742 200.7 660.382 200.283 659.655 200.283C658.929 200.283 658.333 200.7 658.333 201.21ZM600.24 211.409C599.952 211.919 600.524 212.337 601.512 212.337C602.5 212.337 603.073 211.919 602.785 211.409C602.496 210.899 601.924 210.482 601.512 210.482C601.101 210.482 600.529 210.899 600.24 211.409ZM632.043 214.191C632.043 214.701 632.638 215.118 633.365 215.118C634.092 215.118 634.452 214.701 634.163 214.191C633.875 213.681 633.28 213.264 632.841 213.264C632.402 213.264 632.043 213.681 632.043 214.191ZM15.561 216.586C15.6017 217.666 15.8026 217.886 16.0732 217.147C16.3183 216.478 16.2877 215.677 16.0062 215.37C15.7246 215.062 15.5245 215.609 15.561 216.586ZM36.6958 237.913C36.6958 239.55 38.5217 239.265 39.0458 237.546C39.2307 236.94 38.7769 236.445 38.0383 236.445C37.3005 236.445 36.6958 237.105 36.6958 237.913Z" fill="#FFAF18"/>
</svg>
