<svg width="1024" height="189" viewBox="0 0 1024 189" fill="none" xmlns="http://www.w3.org/2000/svg">
<path fill-rule="evenodd" clip-rule="evenodd" d="M866.313 1.66965C864.896 3.08665 863.158 3.31765 856.348 2.99565C849.589 2.67565 819.768 2.60065 816.1 2.89465C815.55 2.93865 812.452 2.68365 809.215 2.32865C803.7 1.72365 792.88 2.99465 786.305 5.02065C784.19 5.67165 783.373 5.52465 782.948 4.41765C782.322 2.78565 776.6 2.36765 776.6 3.95365C776.6 4.50365 775.7 4.95365 774.6 4.95365C773.5 4.95365 772.6 5.35165 772.6 5.83665C772.6 6.32265 771.7 6.95565 770.6 7.24365C769.5 7.53065 768.6 7.35865 768.6 6.85965C768.6 6.36165 769.05 5.95365 769.6 5.95365C770.15 5.95365 770.6 5.57665 770.6 5.11665C770.6 3.73665 755.37 3.96365 752.1 5.39365C749.807 6.39565 747.119 6.48565 740.69 5.77365C734.513 5.09065 731.502 5.16565 729.348 6.05865C726.965 7.04565 726.257 7.01665 725.572 5.90765C724.588 4.31665 715.85 4.51065 713.845 6.16865C712.678 7.13365 709.969 6.98065 698.467 5.29765C696.346 4.98665 694.553 5.22065 694.158 5.85965C693.389 7.10365 684.973 7.36565 684.233 6.16865C683.287 4.63865 667.119 4.83865 663.316 6.42765C659.984 7.82065 659.604 7.80165 658.588 6.19765C657.797 4.94765 657.335 4.80765 656.959 5.70365C656.265 7.35365 652.6 7.31965 652.6 5.66265C652.6 4.63465 650.82 4.56365 643.85 5.31765C639.038 5.83765 633.413 6.28365 631.35 6.30965C629.288 6.33565 627.6 6.71565 627.6 7.15465C627.6 7.59465 626.877 7.95365 625.993 7.95365C624.926 7.95365 624.594 7.41165 625.004 6.34265C625.477 5.11065 625.208 4.89665 623.861 5.43465C622.893 5.82165 615.515 6.28565 607.466 6.46465C597.551 6.68565 592.133 7.22065 590.661 8.12265C588.806 9.25965 588.359 9.22565 587.599 7.88865C586.846 6.56665 585.577 6.45465 579.404 7.16565C575.387 7.62765 568.246 7.72865 563.537 7.38865C556.863 6.90665 554.126 7.12465 551.132 8.37565C547.601 9.85065 547.091 9.84965 544.823 8.36365C542.871 7.08565 540.968 6.88565 535.727 7.40865C532.082 7.77165 527.62 8.53465 525.811 9.10165C523.679 9.77165 522.097 9.79365 521.311 9.16465C519.455 7.67765 492.817 8.35165 488.31 9.99865C485.17 11.1466 484.16 11.1597 482.421 10.0737C479.483 8.23865 454.221 9.53365 450.475 11.7106C448.352 12.9456 447.226 13.0186 444.576 12.0956C439.853 10.4486 432.436 10.6796 429.755 12.5576C428.167 13.6696 426.491 13.9526 424.283 13.4796C417.354 11.9966 410.346 11.7466 409.598 12.9566C409.043 13.8556 408.332 13.8807 406.793 13.0567C404.222 11.6807 399.922 11.6236 399.1 12.9536C398.76 13.5036 396.51 13.9536 394.1 13.9536C391.69 13.9536 389.44 13.5036 389.1 12.9536C388.168 11.4456 383.011 11.7536 381.645 13.3996C380.778 14.4446 379.791 14.5967 378.087 13.9487C374.309 12.5127 367.508 12.5176 361.911 13.9616C358.38 14.8726 356.304 14.9786 355.411 14.2936C354.677 13.7306 350.799 13.4726 346.6 13.7086C342.475 13.9396 334.375 14.0497 328.6 13.9527C322.825 13.8557 316.975 13.8227 315.6 13.8797C314.225 13.9367 303.425 14.4266 291.6 14.9676C279.775 15.5086 258.4 16.2486 244.1 16.6126C199.974 17.7366 198.34 17.8167 189.6 19.2927C184.925 20.0817 175.836 21.8976 169.401 23.3286C162.967 24.7596 156.959 25.6446 156.05 25.2966C155.115 24.9376 154.015 25.2676 153.514 26.0576C152.81 27.1696 152.628 27.0917 152.615 25.6727C152.607 24.6927 151.922 23.6307 151.092 23.3127C148.999 22.5087 144.472 25.6826 144.816 27.7116C145.042 29.0416 142.053 30.3676 130.1 34.2426C112.971 39.7946 105.388 42.4816 101.1 44.5206C99.4496 45.3046 96.6016 46.2366 94.7716 46.5906C92.5386 47.0226 91.1476 48.0116 90.5466 49.5946C89.5166 52.3016 85.1736 52.8926 84.2376 50.4536C83.3946 48.2566 81.6586 48.6236 80.6936 51.2036C80.1536 52.6456 80.2546 53.7226 80.9756 54.2036C82.7726 55.4026 79.6136 56.9206 75.2856 56.9386C71.7426 56.9526 71.4866 57.1486 71.6866 59.7036C72.0606 64.4896 71.6556 65.7057 69.5006 66.2697C67.6476 66.7537 67.4816 67.2957 68.0886 70.8857C68.7096 74.5637 68.5756 74.9537 66.6876 74.9537C65.4986 74.9537 64.5996 75.5997 64.5996 76.4537C64.5996 77.2787 63.8936 77.9537 63.0296 77.9537C61.9856 77.9537 61.5676 78.6837 61.7796 80.1357C62.0586 82.0397 57.6236 87.9537 55.9166 87.9537C55.6256 87.9537 54.5026 89.0787 53.4206 90.4537C52.3396 91.8287 50.6236 92.9537 49.6086 92.9537C46.4386 92.9537 44.5996 94.0937 44.5996 96.0607C44.5996 97.1747 43.9006 97.9537 42.9016 97.9537C37.2496 97.9537 13.9696 107.126 15.0766 108.917C15.3346 109.334 13.7296 110.493 11.5106 111.494C7.5486 113.281 7.4836 113.394 7.8426 117.884C8.0426 120.397 8.7886 123.518 9.4996 124.818C10.7706 127.143 10.7286 127.175 6.9456 126.73C4.8306 126.481 2.1996 125.89 1.0996 125.417C-0.542396 124.709 -0.400396 125.151 1.8976 127.888C5.5906 132.288 8.3426 138.015 7.8386 140.253C7.2296 142.96 9.9366 146.375 15.0776 149.388C18.5976 151.451 21.9686 152.342 29.3906 153.17C35.4916 153.851 39.3966 154.756 39.8996 155.604C40.3396 156.347 41.1696 156.954 41.7446 156.954C42.3206 156.954 44.0796 157.872 45.6556 158.994C47.2306 160.115 52.0256 161.766 56.3096 162.662C63.7876 164.225 67.9616 165.954 64.2596 165.954C63.3016 165.954 61.1966 166.932 59.5796 168.127C57.3376 169.785 56.8996 170.611 57.7326 171.615C58.5396 172.587 58.4686 173.052 57.4626 173.396C56.7126 173.652 53.7136 174.616 50.7966 175.54C43.4476 177.867 40.9986 179.963 42.4536 182.682C43.3296 184.317 44.8346 184.89 49.3366 185.3C73.5866 187.511 77.7086 187.707 83.5996 186.929C93.9546 185.561 103.252 185.689 115.6 187.37C128.651 189.147 141.728 189.394 149.683 188.015C157.607 186.641 183.856 184.741 195.776 184.68C202.279 184.646 206.782 184.165 207.944 183.38C209.432 182.375 210.453 182.412 213.238 183.576C215.135 184.369 217.155 184.729 217.726 184.376C218.297 184.023 233.24 183.557 250.932 183.34C282.893 182.948 306.166 181.465 307.225 179.752C307.531 179.256 308.395 179.369 309.161 180.005C310.192 180.86 312.527 180.873 318.322 180.058C330.34 178.367 337.852 177.857 353.886 177.648C365.148 177.5 368.874 177.128 369.518 176.087C370.208 174.97 371.032 174.941 374.022 175.928C376.035 176.593 378.429 176.85 379.34 176.5C380.252 176.15 388.671 175.618 398.049 175.317C407.427 175.016 425.675 174.165 438.6 173.426C451.525 172.688 465.827 172.054 470.381 172.019C476.84 171.968 478.792 171.618 479.248 170.428C479.641 169.405 480.213 169.218 480.988 169.861C482.417 171.047 501.97 171.464 510.1 170.481C513.4 170.082 520.15 169.645 525.1 169.509C578.19 168.051 625.697 166.01 627.1 165.127C627.65 164.781 630.687 164.641 633.85 164.818C638.576 165.081 639.6 164.855 639.6 163.546C639.6 162.67 640.275 161.954 641.1 161.954C641.925 161.954 642.6 162.404 642.6 162.954C642.6 164.595 649.315 164.139 649.962 162.454C650.728 160.458 653.369 160.535 653.777 162.565C654.02 163.779 655.638 164.284 660.35 164.617C666.825 165.074 669.376 163.425 663.35 162.677L660.1 162.274L663.701 162.114C668.957 161.88 673.764 159.983 676.521 157.054C678.089 155.388 679.088 154.917 679.355 155.718C679.956 157.522 682.339 157.228 683.532 155.204C684.419 153.699 684.698 153.66 685.527 154.925C686.057 155.734 686.786 156.102 687.146 155.742C688.152 154.736 686.679 152.954 684.841 152.954C683.712 152.954 683.522 152.632 684.233 151.921C685.522 150.632 699.14 150.142 700.27 151.344C700.726 151.83 700.538 152.429 699.85 152.674C699.163 152.92 698.6 153.533 698.6 154.037C698.6 155.148 705.284 155.275 705.962 154.177C706.226 153.75 709.748 153.504 713.79 153.629C721.617 153.873 724.932 152.886 722.949 150.903C722.187 150.141 721.205 150.083 719.957 150.726C718.936 151.253 717.538 151.482 716.85 151.236C716.163 150.989 715.6 151.275 715.6 151.871C715.6 152.466 714.925 152.954 714.1 152.954C713.275 152.954 712.6 152.299 712.6 151.499C712.6 149.815 717.576 148.642 722.667 149.127C725.372 149.385 726.033 149.848 725.782 151.31C725.58 152.49 725.944 153.005 726.782 152.724C727.507 152.481 728.101 151.427 728.102 150.381C728.103 149.273 728.936 148.326 730.102 148.11C731.201 147.906 732.55 147.394 733.1 146.972C733.65 146.55 736.079 146.486 738.497 146.829L742.895 147.454L739.247 149.188C735.262 151.082 734.443 152.954 737.6 152.954C738.7 152.954 739.6 152.567 739.6 152.094C739.6 151.62 743.087 151.363 747.35 151.522C751.613 151.681 757.8 151.5 761.1 151.121C766.868 150.457 767.093 150.325 766.912 147.692C766.788 145.89 767.215 144.954 768.162 144.954C768.953 144.954 769.6 145.802 769.6 146.839C769.6 148.659 773.443 151.954 775.565 151.954C776.134 151.954 776.6 151.279 776.6 150.454C776.6 148.598 776.813 148.598 781.268 150.46C784.577 151.842 784.98 151.822 786.204 150.21C787.449 148.569 787.538 148.591 787.568 150.549C787.586 151.701 788.423 153.389 789.429 154.299C791.368 156.054 796.117 156.545 797.02 155.084C797.316 154.605 800.155 153.232 803.329 152.033C810.86 149.188 812.461 147.897 813.23 144.052C813.714 141.633 813.534 140.936 812.484 141.159C811.723 141.321 811.1 140.799 811.1 139.998C811.1 138.098 816.613 136.549 830.744 134.478C836.99 133.562 844.8 132.154 848.1 131.348C851.4 130.543 856.35 129.692 859.1 129.458C867.625 128.731 871.77 128.112 881.6 126.096C886.825 125.024 893.8 123.612 897.1 122.957C905.904 121.21 907.496 119.702 899.825 120.377C896.373 120.68 892.369 121.225 890.925 121.587C889.191 122.023 888.524 121.886 888.957 121.185C889.318 120.602 889.047 119.922 888.356 119.675C886.991 119.185 899.46 117.603 901.1 118.058C902.924 118.563 908.6 116.813 908.6 115.745C908.6 115.049 905.823 114.897 900.35 115.293C895.812 115.622 892.663 115.642 893.35 115.339C895.416 114.427 894.757 112.77 892.6 113.454C891.5 113.803 890.6 113.646 890.6 113.104C890.6 111.904 899.144 109.98 904.899 109.884C908.851 109.818 914.276 108.323 912.1 107.9C911.55 107.793 908.683 107.807 905.729 107.93C899.225 108.202 899.519 106.511 906.133 105.604C908.657 105.259 911.401 104.296 912.232 103.465C913.063 102.634 915.304 101.954 917.211 101.954C922.626 101.954 931.136 97.0597 929.063 95.1367C928.658 94.7617 928.125 95.0167 927.88 95.7037C927.175 97.6777 925.6 97.1597 925.6 94.9537C925.6 92.8467 925.352 92.8977 938.1 92.3777C945.073 92.0927 945.321 92.0217 943.342 90.8687C942.375 90.3057 941.227 90.0667 940.79 90.3357C940.354 90.6057 937.545 90.2637 934.548 89.5757L929.1 88.3257L934.754 86.6396C937.864 85.7126 942.814 84.9467 945.754 84.9387C949.574 84.9277 950.672 84.6467 949.6 83.9537C948.775 83.4207 946.889 82.9777 945.409 82.9687C942.282 82.9517 940.89 81.4407 943.188 80.5587C944.054 80.2257 947.175 79.9537 950.123 79.9537C953.07 79.9537 955.799 79.4407 956.187 78.8127C956.895 77.6677 950.016 77.9367 936.704 79.5727C933.225 80.0007 931.525 79.8837 931.921 79.2437C932.304 78.6237 928.546 78.0257 921.914 77.6497C916.074 77.3187 910.824 76.5776 910.247 76.0006C909.628 75.3816 903.662 74.9247 895.65 74.8837C881.686 74.8107 875.812 73.9307 880.654 72.6357C881.999 72.2757 884.562 71.9747 886.35 71.9677C888.138 71.9597 889.6 71.5236 889.6 70.9986C889.6 69.8016 892.526 69.3757 910.6 67.9357C927.474 66.5907 938.115 64.7927 945.033 62.1147C949.003 60.5777 949.578 60.0817 947.977 59.5737C946.883 59.2257 943.886 59.3346 941.319 59.8136C936.312 60.7496 931.6 60.2757 931.6 58.8367C931.6 58.3517 932.14 57.9536 932.8 57.9536C933.573 57.9536 933.656 57.6096 933.033 56.9866C932.483 56.4366 918.9 55.7256 901.583 55.3396C884.817 54.9666 870.304 54.3766 869.332 54.0286C868.359 53.6806 891.854 53.5077 921.542 53.6437C955.829 53.8007 975.741 53.5346 976.124 52.9156C977.151 51.2526 974.7 50.9776 955.1 50.5546C932.762 50.0726 903.572 48.2446 898.6 47.0146C896.431 46.4786 902.836 46.3076 915.438 46.5646C931.515 46.8926 935.688 46.7146 935.359 45.7166C934.826 44.0976 927.316 43.3546 901.81 42.3956C890.534 41.9726 881.251 41.1986 880.915 40.6546C880.522 40.0186 886.506 39.9316 897.955 40.4056C909.736 40.8926 915.6 40.7976 915.6 40.1176C915.6 39.5586 914.812 38.8716 913.85 38.5916C912.704 38.2576 912.963 38.0986 914.6 38.1286C928.513 38.3866 951.696 37.6486 950.1 36.9976C948.223 36.2326 948.254 36.1466 950.6 35.6016C951.975 35.2826 957.338 34.8936 962.517 34.7376C968.949 34.5436 972.066 34.0576 972.35 33.2036C972.611 32.4216 974.701 31.9477 977.933 31.9387C983.599 31.9217 986.945 30.6837 984.186 29.6247C983.316 29.2907 971.316 29.4757 957.521 30.0357C940.208 30.7377 928.977 30.7287 921.269 30.0067C915.126 29.4317 902.262 28.9586 892.683 28.9566C883.104 28.9556 875.454 28.7837 875.683 28.5757C875.913 28.3677 889.787 27.9326 906.516 27.6096C935.888 27.0416 944.995 25.9826 933.191 24.5086C922.364 23.1556 926.871 22.2277 943.721 22.3397C953.11 22.4027 961 22.1166 961.255 21.7036C961.51 21.2906 961.016 20.9536 960.159 20.9536C959.302 20.9536 958.6 20.5256 958.6 20.0026C958.6 19.4676 961.008 19.2266 964.1 19.4516C967.125 19.6726 969.6 19.4856 969.6 19.0376C969.6 18.5886 966.355 17.9906 962.389 17.7066C958.404 17.4216 955.012 16.6906 954.806 16.0716C954.571 15.3656 951.333 14.9536 946.017 14.9536C941.072 14.9536 937.6 14.5406 937.6 13.9536C937.6 13.4036 935.462 12.9467 932.85 12.9387C930.238 12.9297 927.425 12.4866 926.6 11.9536C925.556 11.2786 927.379 10.9696 932.6 10.9376C937.877 10.9036 940.693 10.4207 942.1 9.30665C944.02 7.78565 943.981 7.74765 941.1 8.35265C934.871 9.66165 926.668 10.1887 924.917 9.39365C923.918 8.93865 920.943 8.53665 918.306 8.49865C915.67 8.46165 913.195 7.93265 912.806 7.32365C912.332 6.57965 905.704 6.19665 892.6 6.15565C863.117 6.06365 862.897 6.05465 864.6 4.95365C865.425 4.42065 869.25 3.97065 873.1 3.95365C877.993 3.93265 879.649 3.63165 878.6 2.95365C877.775 2.42065 875.889 1.97765 874.409 1.96865C872.929 1.96065 871.44 1.50365 871.1 0.953649C870.174 -0.545351 868.238 -0.255351 866.313 1.66965ZM834.6 9.95365C834.6 10.5036 834.15 10.9536 833.6 10.9536C833.05 10.9536 832.6 10.5036 832.6 9.95365C832.6 9.40365 833.05 8.95365 833.6 8.95365C834.15 8.95365 834.6 9.40365 834.6 9.95365ZM947.35 17.6426C946.388 17.8946 944.812 17.8946 943.85 17.6426C942.888 17.3916 943.675 17.1856 945.6 17.1856C947.525 17.1856 948.312 17.3916 947.35 17.6426ZM1018.6 22.4536C1018.6 24.0666 1019.52 24.3066 1022.01 23.3486C1024.05 22.5676 1023.06 20.9536 1020.54 20.9536C1019.47 20.9536 1018.6 21.6286 1018.6 22.4536ZM942.6 24.9536C941.807 25.4436 941.49 26.1767 941.896 26.5827C942.301 26.9887 943.158 26.7957 943.8 26.1537C945.311 24.6427 944.468 23.7996 942.6 24.9536ZM148.962 26.4536C148.645 27.2786 148.209 27.9536 147.993 27.9536C147.777 27.9536 147.6 27.2786 147.6 26.4536C147.6 25.6286 148.036 24.9536 148.569 24.9536C149.101 24.9536 149.278 25.6286 148.962 26.4536ZM954.35 25.6597C955.587 25.8977 957.613 25.8977 958.85 25.6597C960.087 25.4207 959.075 25.2256 956.6 25.2256C954.125 25.2256 953.113 25.4207 954.35 25.6597ZM995.665 28.3747C994.697 29.5417 994.855 29.6996 996.543 29.2586C997.674 28.9626 998.6 28.3226 998.6 27.8366C998.6 26.4886 996.986 26.7837 995.665 28.3747ZM1002.1 27.9536C1001.75 28.5226 1002.61 28.9536 1004.1 28.9536C1005.59 28.9536 1006.45 28.5226 1006.1 27.9536C1005.76 27.4036 1004.86 26.9536 1004.1 26.9536C1003.34 26.9536 1002.44 27.4036 1002.1 27.9536ZM1012.6 39.4426C1008.88 40.8866 1009.06 40.9576 1017.41 41.3586C1021.09 41.5346 1023.65 40.5916 1022.45 39.5036C1021.16 38.3406 1015.53 38.3056 1012.6 39.4426ZM869.6 40.9986C863.825 41.3896 855.725 41.6846 851.6 41.6546L844.1 41.6006L851.1 40.9536C854.95 40.5976 863.05 40.3026 869.1 40.2976L880.1 40.2886L869.6 40.9986ZM917.6 40.3366C917.6 41.1856 922.685 41.6246 923.183 40.8196C923.477 40.3436 922.341 39.9536 920.659 39.9536C918.977 39.9536 917.6 40.1266 917.6 40.3366ZM835.869 41.6096C835.192 41.8836 833.842 41.9006 832.869 41.6466C831.896 41.3926 832.45 41.1686 834.1 41.1486C835.75 41.1286 836.546 41.3356 835.869 41.6096ZM746.6 44.3366C746.6 44.5476 745.475 44.9356 744.1 45.1986C742.725 45.4616 741.6 45.2886 741.6 44.8146C741.6 44.3416 742.725 43.9536 744.1 43.9536C745.475 43.9536 746.6 44.1266 746.6 44.3366ZM880.329 46.5576C879.997 46.8896 879.134 46.9256 878.413 46.6366C877.615 46.3176 877.852 46.0806 879.017 46.0326C880.071 45.9896 880.661 46.2256 880.329 46.5576ZM888.329 46.5576C887.997 46.8896 887.134 46.9256 886.413 46.6366C885.615 46.3176 885.852 46.0806 887.017 46.0326C888.071 45.9896 888.661 46.2256 888.329 46.5576ZM1012.41 46.6366C1013.13 46.9256 1014 46.8896 1014.33 46.5576C1014.66 46.2256 1014.07 45.9896 1013.02 46.0326C1011.85 46.0806 1011.61 46.3176 1012.41 46.6366ZM866.6 53.9347C866.6 54.5257 864.711 54.6676 861.85 54.2936C855.388 53.4476 855.235 52.9536 861.433 52.9536C864.275 52.9536 866.6 53.3947 866.6 53.9347ZM956.156 56.8637C955.444 58.0147 956.533 60.9536 957.672 60.9536C958.481 60.9536 960.6 57.7446 960.6 56.5196C960.6 55.5856 956.762 55.8827 956.156 56.8637ZM967.604 57.2036C967.598 58.3906 981.404 58.0807 982.147 56.8777C982.606 56.1347 980.456 55.9017 975.21 56.1277C971.029 56.3067 967.606 56.7916 967.604 57.2036ZM963.6 77.9537C963.6 78.5037 964.023 78.9537 964.541 78.9537C965.059 78.9537 965.76 78.5037 966.1 77.9537C966.44 77.4037 966.016 76.9537 965.159 76.9537C964.302 76.9537 963.6 77.4037 963.6 77.9537ZM901.35 113.616C902.038 113.894 903.163 113.894 903.85 113.616C904.538 113.339 903.975 113.112 902.6 113.112C901.225 113.112 900.663 113.339 901.35 113.616ZM816.6 129.004C816.6 129.689 818.767 129.843 822.85 129.445C826.991 129.043 828.594 129.16 827.6 129.794C826.775 130.32 823.633 130.909 820.617 131.102C816.024 131.397 815.079 131.17 814.794 129.704C814.607 128.741 814.936 127.954 815.527 127.954C816.117 127.954 816.6 128.426 816.6 129.004ZM867.413 134.637C868.134 134.926 868.997 134.89 869.329 134.558C869.661 134.226 869.071 133.99 868.017 134.033C866.852 134.081 866.615 134.318 867.413 134.637ZM848.6 136.685C844.415 137.177 842.029 138.976 845.65 138.909C846.998 138.884 849.45 138.246 851.1 137.49C854.25 136.048 854.19 136.028 848.6 136.685ZM763.6 145.837C763.6 146.915 760.57 147.787 758.844 147.206C758.153 146.973 757.842 146.372 758.153 145.869C758.878 144.696 763.6 144.668 763.6 145.837ZM754.239 146.648C753.206 147.682 746.6 147.835 746.6 146.825C746.6 146.346 748.475 145.954 750.767 145.954C753.058 145.954 754.621 146.266 754.239 146.648ZM793.374 148.133C792.865 149.66 789.864 151.552 789.124 150.812C788.81 150.497 788.837 149.501 789.183 148.597C789.893 146.749 793.986 146.295 793.374 148.133ZM711.1 149.954C711.44 150.504 710.765 150.954 709.6 150.954C708.435 150.954 707.76 150.504 708.1 149.954C708.44 149.404 709.115 148.954 709.6 148.954C710.085 148.954 710.76 149.404 711.1 149.954ZM679.869 152.61C679.192 152.884 677.842 152.901 676.869 152.647C675.896 152.393 676.45 152.169 678.1 152.149C679.75 152.129 680.546 152.336 679.869 152.61ZM795.6 152.847C795.6 153.956 792.524 155.211 791.736 154.423C791.418 154.105 791.82 153.427 792.629 152.915C794.499 151.732 795.6 151.707 795.6 152.847ZM776.6 153.846C776.6 155.054 781.063 156.097 783.021 155.346C785.93 154.229 784.64 152.954 780.6 152.954C778.4 152.954 776.6 153.355 776.6 153.846ZM803.6 153.954C802.387 154.738 802.531 154.926 804.35 154.939C805.587 154.947 806.6 154.504 806.6 153.954C806.6 152.701 805.539 152.701 803.6 153.954ZM771.6 154.954C773.558 156.22 774.882 156.22 774.1 154.954C773.76 154.404 772.721 153.961 771.791 153.969C770.334 153.983 770.307 154.119 771.6 154.954ZM694.143 161.885C693.826 162.397 693.912 163.019 694.334 163.267C695.206 163.782 699.6 162.296 699.6 161.486C699.6 160.558 694.743 160.913 694.143 161.885ZM678.047 162.869C678.358 163.372 678.047 164.011 677.356 164.29C676.598 164.595 676.794 164.827 677.85 164.875C678.812 164.918 679.6 164.279 679.6 163.454C679.6 162.629 679.123 161.954 678.541 161.954C677.959 161.954 677.736 162.366 678.047 162.869ZM81.5466 168.053C80.4726 170.059 76.1556 170.662 75.0996 168.954C74.0436 167.245 75.3296 166.358 79.0166 166.254C82.2036 166.163 82.4606 166.346 81.5466 168.053ZM439.35 175.616C440.038 175.894 441.163 175.894 441.85 175.616C442.538 175.339 441.975 175.112 440.6 175.112C439.225 175.112 438.663 175.339 439.35 175.616Z" fill="#EA5455"/>
</svg>
