<svg width="1324" height="562" viewBox="0 0 1324 562" fill="none" xmlns="http://www.w3.org/2000/svg">
<path fill-rule="evenodd" clip-rule="evenodd" d="M542.257 1.03699C541.023 1.52799 531.573 2.19699 521.257 2.52399C503.227 3.09499 480.156 5.26901 474.3 6.95001C471.779 7.67301 471.693 7.83299 473.436 8.55499C474.519 9.00299 485.767 8.38499 498.936 7.15399C511.896 5.94299 525.462 4.96301 529.083 4.97601C532.704 4.98901 535.959 4.70801 536.316 4.35101C537.164 3.50301 541.681 3.23099 557.5 3.07599C566.803 2.98399 570.008 2.66 568.768 1.935C567.816 1.377 564.441 1.025 561.268 1.151C558.096 1.277 553.025 1.10199 550 0.761993C546.975 0.421993 543.491 0.545987 542.257 1.03699ZM605.5 1C605.84 1.55 606.541 2 607.059 2C607.577 2 608 1.55 608 1C608 0.45 607.298 0 606.441 0C605.584 0 605.16 0.45 605.5 1ZM578.51 2.01599C578.856 2.57499 579.557 2.774 580.069 2.457C581.456 1.6 581.198 1 579.441 1C578.584 1 578.165 1.45699 578.51 2.01599ZM589.5 8.01501C575.134 8.66001 569.967 9.62699 568.538 11.938C568.177 12.522 566.521 13 564.858 13C561.079 13 561.473 10.64 565.327 10.184C566.797 10.01 568 9.4 568 8.828C568 7.769 559.084 8.04901 529.5 10.04C501.634 11.915 475.255 13.138 463.5 13.102C456.191 13.079 449.154 13.64 445.5 14.536C442.2 15.346 437.025 15.906 434 15.781C430.975 15.656 421.817 16.655 413.65 18.001C399.661 20.305 398.727 20.347 397.54 18.723C395.943 16.539 395.124 16.559 392.564 18.841C390.046 21.087 370.998 23.614 369.906 21.848C369.545 21.264 368.371 21.065 367.298 21.406C366.224 21.746 362.23 22.206 358.423 22.427C354.615 22.648 348.35 23.794 344.5 24.974C339.496 26.507 334.674 27.144 327.591 27.208C319.134 27.284 317.081 27.64 313.591 29.636C310.895 31.178 307.88 31.98 304.75 31.988C298.511 32.004 298.648 30.437 304.959 29.6C307.686 29.238 310.212 28.466 310.571 27.885C311.281 26.736 309.933 26.848 284.181 30.078C275.755 31.135 267.237 32 265.252 32C263.266 32 260.224 32.513 258.49 33.14C256.225 33.959 254.517 33.981 252.419 33.219C249.872 32.293 249.787 32.148 251.75 32.079C252.988 32.036 254 31.502 254 30.893C254 30.284 253.288 30.059 252.418 30.393C251.548 30.727 249.947 31 248.859 31C247.772 31 247.16 31.45 247.5 32C247.84 32.55 247.281 33 246.259 33C245.237 33 243.973 33.395 243.45 33.877C241.532 35.648 231.385 38.344 227.5 38.115C225.299 37.986 221.29 38.375 218.59 38.98C215.843 39.595 213.301 39.701 212.819 39.219C211.859 38.259 230.88 33.705 235.286 33.84C236.834 33.887 237.808 33.498 237.477 32.963C236.677 31.669 230.799 31.741 227.315 33.088C224.74 34.083 198.578 39.604 191.5 40.646C181.535 42.112 181.945 41.934 182.595 44.522C183.434 47.866 181.917 48.379 160.5 51.996C150.6 53.668 138 56.116 132.5 57.437C127 58.758 118.729 60.354 114.12 60.985C104.631 62.283 92.329 65.269 77.077 69.976C66.101 73.363 61 76.837 61 80.923C61 83.299 62.514 83.71 63.339 81.558C64.066 79.664 67.96 77.159 71.962 76.011C74.736 75.215 75.004 75.291 73.942 76.57C73.267 77.383 72.982 78.315 73.308 78.641C73.634 78.967 78.162 78.731 83.371 78.117C88.579 77.503 94.789 76.995 97.17 76.988C99.552 76.982 106 75.853 111.5 74.481C117 73.109 125.224 71.697 129.776 71.343C137.191 70.768 137.986 70.872 137.422 72.342C136.49 74.772 139.48 75.48 144.325 73.975C146.621 73.262 154.575 72.321 162 71.883C182.084 70.699 190.369 69.849 191.638 68.843C192.264 68.347 194.514 68.209 196.638 68.537C199.05 68.91 202.143 68.545 204.876 67.567C207.282 66.705 210.77 66 212.626 66C214.482 66 216 65.55 216 65C216 64.45 214.762 63.986 213.25 63.97C211.017 63.945 210.808 63.759 212.14 62.981C214.692 61.491 232.516 59.208 255 57.492C266.275 56.631 276.327 55.676 277.339 55.368C278.35 55.061 285.019 54.49 292.158 54.1C299.679 53.69 305.426 52.933 305.82 52.302C306.194 51.702 310.1 50.937 314.5 50.602C319.036 50.257 321.663 50.353 320.566 50.824C319.273 51.38 319.014 51.891 319.784 52.366C320.417 52.758 322.834 52.16 325.155 51.039C329.79 48.8 332 48.464 332 50C332 50.55 330.987 51.06 329.75 51.134C328.513 51.207 329.75 51.586 332.5 51.975C335.25 52.364 337.725 52.386 338 52.023C339.79 49.658 351.047 47.085 362.5 46.422C373.259 45.8 379.358 45.134 388 43.638C392.675 42.829 398.828 41.867 401.673 41.5C404.518 41.134 407.668 40.173 408.673 39.365C410.422 37.959 410.415 37.917 408.5 38.382C407.4 38.65 400.65 39.584 393.5 40.458C386.35 41.333 378.813 42.268 376.75 42.536C374.644 42.81 373 42.596 373 42.047C373 40.513 376.551 39.001 380.184 38.989C386.14 38.969 391 37.792 391 36.369C391 35.616 391.675 35 392.5 35C393.325 35 394 35.823 394 36.828C394 38.505 394.501 38.576 400.042 37.684C404.22 37.011 406.391 36.138 407.077 34.855C408.296 32.578 412.559 32.409 413.402 34.604C413.887 35.869 414.915 36.082 418.259 35.61C420.591 35.281 423.962 35.023 425.75 35.037C428.307 35.057 429 34.65 429 33.125C429 31.653 429.501 31.318 431.085 31.732C433.702 32.417 434.742 34.917 432.896 36.086C432.128 36.572 429.475 37.021 427 37.084C424.525 37.148 421.375 37.519 420 37.91C414.603 39.444 423.864 40.002 430.275 38.53C434.869 37.474 462.799 34 466.688 34C466.925 34 466.893 33.636 466.619 33.192C465.969 32.141 455.957 32.64 451.203 33.96C446.717 35.206 442 35.309 442 34.161C442 31.49 457.656 28.937 476 28.618C480.125 28.546 483.95 28.227 484.5 27.909C485.05 27.592 488.072 26.739 491.215 26.014C495.674 24.987 497.249 24.961 498.378 25.899C499.515 26.842 500.617 26.769 503.514 25.559C505.543 24.711 508.62 24.052 510.352 24.094C512.083 24.136 514.737 23.855 516.25 23.469C517.842 23.062 519 23.175 519 23.736C519 24.31 521.72 24.096 525.66 23.212C530.103 22.215 532.848 22.039 533.91 22.681C536.329 24.146 545 24.325 545 22.91C545 22.085 546.357 21.914 549.5 22.345C551.975 22.684 554 22.633 554 22.231C554 21.829 557.259 21.368 561.243 21.207C569.061 20.891 569.83 22.522 562.414 23.688C560.261 24.026 558.14 24.91 557.7 25.652C557.26 26.393 556.023 27 554.95 27C553.878 27 553 27.45 553 28C553 29.254 552.121 29.269 585 27.474C600.125 26.649 614.525 25.483 617 24.884C622.867 23.463 641.351 22.076 662 21.507C671.075 21.257 678.725 20.991 679 20.915C680.321 20.552 699.386 21.053 699.795 21.462C700.052 21.719 701.02 21.524 701.945 21.029C702.933 20.501 705.254 20.494 707.568 21.014C709.735 21.501 717.131 22.157 724.004 22.471C730.877 22.786 739.2 23.259 742.5 23.523C745.8 23.787 750.75 23.996 753.5 23.988C756.25 23.981 759.625 24.402 761 24.925C762.375 25.447 769.57 26.112 776.988 26.402C785.166 26.722 790.616 27.348 790.831 27.993C791.05 28.65 792.541 28.802 794.737 28.39C797.274 27.914 798.088 28.049 797.586 28.862C797.179 29.52 797.515 30 798.382 30C799.207 30 800.15 29.567 800.477 29.038C800.838 28.454 801.942 28.421 803.286 28.955C804.504 29.439 810.788 30.395 817.25 31.08C823.712 31.764 829 32.702 829 33.162C829 33.623 834.287 34.016 840.75 34.036C847.453 34.056 855.077 34.694 858.5 35.52C862.257 36.427 869.768 36.975 878.591 36.984C888.531 36.995 894.128 37.458 897.591 38.555C900.291 39.411 905.2 40.5 908.5 40.975C911.8 41.451 917.864 42.339 921.975 42.948C927.547 43.774 930.156 43.764 932.226 42.907C934.303 42.046 935.347 42.043 936.374 42.896C937.775 44.059 941 43.428 941 41.991C941 40.831 935.209 39 931.544 39C929.807 39 923.487 38.1 917.5 37C911.513 35.9 904.956 35 902.929 35C900.902 35 897.629 34.325 895.654 33.5C893.68 32.675 889.552 32 886.482 32C883.33 32 879.559 31.306 877.817 30.405C875.389 29.15 872.157 28.869 862.617 29.086C850.734 29.356 823.644 26.794 819.5 25.008C818.4 24.534 816.825 23.884 816 23.564C815.175 23.244 817.425 23.183 821 23.429C827.031 23.843 827.237 23.346 821.75 21.615C820.788 21.311 820 20.613 820 20.063C820 19.513 820.675 19.322 821.5 19.638C822.325 19.955 823 19.765 823 19.215C823 17.818 819.918 17.186 807.394 16.016C801.402 15.456 791.775 14.33 786 13.514C772.054 11.544 718 10.213 718 11.839C718 12.481 716.547 13.002 714.75 13.006C712.962 13.009 709.76 13.494 707.634 14.085C703.1 15.344 699 14.582 699 12.481C699 10.399 689.732 10.474 686.514 12.583C684.938 13.615 683.298 13.907 681.799 13.422C680.535 13.013 675.118 12.78 669.762 12.906C659.678 13.141 654.994 12.109 660.5 10.864C662.15 10.491 656.3 10.298 647.5 10.435C638.7 10.573 629.25 11.241 626.5 11.92C620.531 13.393 615.371 12.081 616.417 9.35501C616.952 7.96201 616.447 7.83199 612.769 8.41699C610.421 8.78999 607.482 9.349 606.239 9.659C604.455 10.104 604.108 9.88199 604.596 8.61099C604.936 7.72499 605.053 7.07699 604.857 7.17099C604.661 7.26399 597.75 7.64401 589.5 8.01501ZM428 10.729C427.175 11.043 426.275 11.582 426 11.928C425.725 12.273 424.375 13.075 423 13.71C421.026 14.622 420.889 14.879 422.346 14.932C424.425 15.009 430 11.987 430 10.784C430 10.353 429.888 10.036 429.75 10.079C429.612 10.122 428.825 10.415 428 10.729ZM410.269 16.693C411.242 16.947 412.592 16.93 413.269 16.656C413.946 16.382 413.15 16.175 411.5 16.195C409.85 16.215 409.296 16.439 410.269 16.693ZM282.813 26.683C283.534 26.972 284.397 26.936 284.729 26.604C285.061 26.272 284.471 26.036 283.417 26.079C282.252 26.127 282.015 26.364 282.813 26.683ZM268 28L264.5 28.737L268 28.853C269.925 28.917 272.175 28.533 273 28C274.333 27.138 274.333 27.044 273 27.147C272.175 27.211 269.925 27.595 268 28ZM532.5 28C532.16 28.55 532.359 29 532.941 29C533.523 29 534 28.55 534 28C534 27.45 533.802 27 533.559 27C533.316 27 532.84 27.45 532.5 28ZM695.5 29.134C693.85 29.592 690.587 30.441 688.25 31.022C685.503 31.704 684 32.632 684 33.647C684 34.859 684.625 35.06 686.74 34.529C688.247 34.151 689.807 33.315 690.208 32.671C690.686 31.902 693.778 31.567 699.218 31.696C704.445 31.82 706.762 31.583 705.5 31.051C703.594 30.249 703.617 30.163 706 29.198C708.162 28.322 707.824 28.193 703.5 28.244C700.75 28.276 697.15 28.676 695.5 29.134ZM257.5 30C257.16 30.55 257.359 31 257.941 31C258.523 31 259 30.55 259 30C259 29.45 258.802 29 258.559 29C258.316 29 257.84 29.45 257.5 30ZM507 30C505.793 30.78 505.951 30.972 507.809 30.985C509.097 30.993 509.845 30.558 509.5 30C508.757 28.798 508.861 28.798 507 30ZM534.58 30.871C534.284 31.35 532.795 31.997 531.271 32.309C529.747 32.621 527.6 33.603 526.5 34.491C524.63 36.001 524.987 36.066 532 35.485C536.125 35.143 541.075 34.52 543 34.101L546.5 33.339L542.255 32.582C539.921 32.166 537.757 31.415 537.446 30.913C536.732 29.758 535.281 29.736 534.58 30.871ZM561.505 32.635C556.749 33.83 552.59 35.076 552.263 35.404C551.935 35.732 554.204 36 557.305 36C563.431 36 578 33.149 578 31.951C578 30.257 569.575 30.606 561.505 32.635ZM469.5 32C468.769 33.183 469.748 33.183 472.5 32C474.428 31.171 474.421 31.138 472.309 31.07C471.104 31.032 469.84 31.45 469.5 32ZM651.606 31.727C651.245 32.089 638.248 32.456 622.725 32.544C607.201 32.632 592.475 32.791 590 32.897L585.5 33.09L588.991 34.381C592.368 35.63 592.41 35.71 590.306 36.836C589.11 37.476 585.739 37.964 582.816 37.921C579.892 37.878 578.063 37.615 578.75 37.338C581.07 36.401 580.021 35 577 35C575.35 35 574 35.351 574 35.781C574 36.21 570.752 36.694 566.782 36.856C562.813 37.019 559.21 37.37 558.777 37.638C558.343 37.906 549.554 38.352 539.244 38.629C528.935 38.907 515.897 39.38 510.272 39.682C499.552 40.257 494.659 39.543 498.5 37.963C499.6 37.511 502.038 37.109 503.918 37.07C508.638 36.973 519.299 35.051 521.022 33.986C523.836 32.247 521.148 32.02 510.417 33.09C496.724 34.456 484.797 37.109 484.192 38.924C483.727 40.318 487.008 40.104 491.25 38.463C492.243 38.079 493 38.245 493 38.848C493 39.432 491.313 40.194 489.25 40.541C484.078 41.413 483.725 41.414 481.814 40.575C480.815 40.137 477.031 40.904 472.532 42.457C468.354 43.899 464.511 44.816 463.991 44.495C463.471 44.173 461.243 44.396 459.039 44.989C455.898 45.835 454.436 45.765 452.266 44.662C448.703 42.85 438 43.572 438 45.624C438 46.381 437.212 47.012 436.25 47.026C430.437 47.111 414.626 49.116 413.198 49.949C410.863 51.311 417.873 51.3 433.026 49.917C445.163 48.809 450.759 49.064 446.222 50.518C444.568 51.048 444.107 51.762 444.539 53.124C445 54.576 444.61 55.023 442.817 55.102C441.162 55.175 441.498 55.439 443.993 56.026C447.719 56.902 449.299 56.421 447.119 55.074C446.105 54.447 446.339 53.876 448.121 52.628C449.399 51.733 451.245 51 452.223 51C453.2 51 454 50.422 454 49.715C454 48.845 455.852 48.352 459.725 48.19C464.993 47.969 465.293 48.069 463.475 49.443C461.617 50.848 461.736 50.937 465.5 50.953C469.864 50.971 474.189 49.168 470.5 48.868C467.878 48.656 479.273 47.248 484.75 47.109C488.032 47.025 489 47.366 489 48.607C489 49.732 489.525 50.008 490.75 49.527C491.712 49.15 496.325 48.641 501 48.396C505.675 48.151 513.325 47.532 518 47.019C535.437 45.108 543.514 44.849 548.275 46.048C550.874 46.702 553 47.617 553 48.08C553 49.471 546.088 50.774 535.814 51.319C527.074 51.782 526.186 51.669 526.733 50.166C527.278 48.667 527.138 48.676 525.341 50.25C524.242 51.212 521.967 52 520.286 52C517.437 52 509.494 54.024 504.203 56.099C501.155 57.294 498 57.244 498 56C498 54.521 496.071 54.786 494.357 56.5C492.702 58.155 479 58.706 479 57.117C479 56.631 477.143 56.874 474.874 57.655C472.253 58.559 468.151 58.935 463.624 58.688C459.706 58.474 453.125 58.685 449 59.156C444.875 59.628 435.839 60.217 428.92 60.466C421.34 60.739 412.795 61.739 407.42 62.982C388.301 67.402 384.046 68.046 382.073 66.814C380.64 65.919 375.498 66.039 359.854 67.331C335.971 69.305 331.924 69.378 328.663 67.892C326.883 67.081 324.839 67.083 321.032 67.9C315.734 69.036 312.604 68.499 315.143 66.89C316.883 65.788 314.695 65.705 309.875 66.69C306.638 67.351 306.602 67.407 309 68.046L311.5 68.713L308.643 69.492C306.657 70.033 305.537 69.869 304.971 68.954C304.307 67.878 302.717 67.966 296.293 69.433C291.968 70.421 287.545 71.028 286.464 70.782C285.348 70.527 286.659 70.019 289.5 69.605C297.402 68.451 299.464 67.053 292.5 67.57C280.84 68.435 254.655 70 252.095 69.985C250.052 69.973 249.819 69.763 251 69C251.825 68.467 253.625 68.017 255 68C256.824 67.978 257.126 67.732 256.116 67.093C254.514 66.078 251.115 66.979 245.613 69.877C242.854 71.33 239.915 71.91 235.477 71.876C225.543 71.8 204.855 74.422 202 76.12C200.298 77.132 202.475 76.998 245.883 73.431C262.594 72.057 276.452 71.119 276.679 71.345C277.17 71.837 264.308 73.672 254.5 74.509C239.836 75.76 228.234 77.133 221 78.472C216.875 79.235 210.11 79.858 205.968 79.856C200.965 79.853 196.431 80.542 192.468 81.906C185.58 84.276 172.04 87 167.143 87C164.57 87 163.92 86.65 164.362 85.5C165.146 83.456 164.3 83.603 158.581 86.504C154.658 88.494 152.168 89 146.295 89C141.276 89 138.164 89.502 136.526 90.575C135.028 91.557 130.53 92.413 124.589 92.847C119.346 93.231 114.543 94.057 113.917 94.683C113.065 95.535 115.895 95.717 125.139 95.406C131.938 95.178 137.05 95.2 136.5 95.456C133.89 96.669 103.485 103.014 95.596 103.991C90.699 104.598 85.974 105.471 85.096 105.931C84.218 106.391 81.615 107.08 79.311 107.461C76.36 107.95 75.277 108.558 75.645 109.517C76.146 110.822 74.638 111.417 65.75 113.419C60.992 114.49 62.742 115.771 69.953 116.495C75.36 117.038 77.61 116.842 80.074 115.613C81.817 114.743 83.751 114.352 84.371 114.742C85.626 115.532 86.787 115.651 102.426 116.586C111.374 117.122 113.546 116.977 114.426 115.786C116.094 113.527 120.496 112.782 133.543 112.547C140.166 112.429 146.466 111.83 147.543 111.217C149.052 110.358 147.805 110.242 142.093 110.71C137.017 111.125 134.891 110.985 135.338 110.263C135.998 109.195 144.737 107.813 162 106.046C167.225 105.511 172.804 104.767 174.399 104.392C176.303 103.944 177.077 104.067 176.654 104.75C175.686 106.317 178.446 107 185.748 107C189.37 107 192.095 107.238 191.805 107.529C190.319 109.015 131.452 118.387 129.15 117.504C128.378 117.208 127.106 117.497 126.323 118.147C124.535 119.631 111.417 121.531 89.5 123.481C80.15 124.313 71.15 125.384 69.5 125.862L66.5 126.731L70.5 127.448C72.7 127.841 75.625 128.541 77 129.003C79.071 129.698 78.685 129.856 74.75 129.921C72.137 129.964 70 129.55 70 129C70 128.45 69.1 128 68 128C64.814 128 65.685 129.685 69.25 130.42C73.805 131.359 71.383 132.445 61.5 133.896C57.1 134.542 50.333 135.739 46.461 136.556C40.147 137.889 39.307 138.349 38.298 141.021C37.415 143.359 36.564 144.001 34.337 144.006C31.14 144.012 24 145.817 24 146.618C24 147.843 27.002 150 28.706 150C29.723 150 31.536 150.687 32.736 151.528C34.491 152.757 37.32 152.976 47.209 152.651C59.158 152.257 59.355 152.284 54.298 153.629C48.037 155.293 42 158.69 42 160.549C42 161.458 43.957 162.122 47.981 162.577C58.333 163.749 53.567 164.829 38.045 164.829C21.152 164.829 11.598 166.665 12.197 169.797C12.426 170.995 13.852 171.659 17.011 172.037C19.48 172.332 22.625 173.296 24 174.178C27.008 176.109 34.979 177.332 36.821 176.145C37.674 175.595 36.201 175.094 32.657 174.728C29.64 174.417 26.121 173.563 24.836 172.831C22.764 171.651 23.746 171.462 33.5 171.168C39.55 170.986 51.25 171.337 59.5 171.948C86.888 173.976 88.942 175.224 66.169 176C54.337 176.403 51.892 176.725 53.526 177.666C54.848 178.426 64.41 179.02 81.026 179.373C119.601 180.194 132.063 181.381 123.25 183.395C118.529 184.474 73.584 186.304 49.343 186.404L26.186 186.5L24.02 189.25C22.829 190.762 22.225 192.032 22.677 192.07C23.13 192.109 22.6 192.527 21.5 193C19.728 193.762 19.813 193.867 22.25 193.93C23.997 193.974 25 194.547 25 195.5C25 196.325 25.45 197 26 197C28.484 197 26.654 198.842 23.6 199.415C20.326 200.03 16.412 203 18.878 203C20.192 203 16.89 206.513 14.875 207.259C13.883 207.626 14.057 207.98 15.5 208.533C16.6 208.954 18.4 210.098 19.5 211.075C21.503 212.856 26.667 213.769 64.493 219.032C73.452 220.279 79.767 221.62 80.184 222.365C80.727 223.335 82.729 223.384 89.191 222.587C103.193 220.86 127.166 222.317 117.281 224.294C113.433 225.063 106.738 231.237 109.183 231.761C110.108 231.959 112.133 231.476 113.683 230.687C116.043 229.487 121.492 229.371 147.266 229.976C182.363 230.8 185.423 231.335 170 233.956C166.425 234.564 159.9 235.69 155.5 236.459C151.1 237.228 144.814 238.179 141.531 238.572C138.248 238.964 133.997 239.939 132.084 240.738C130.172 241.537 123.858 242.485 118.054 242.845C108.382 243.445 107.418 243.688 106.513 245.75C105.726 247.544 104.712 248.001 101.513 248.006C92.624 248.018 86.162 251.999 92.464 253.58C93.819 253.921 95.21 255.087 95.555 256.172C96.078 257.82 96.785 258.048 99.84 257.559C103.686 256.943 121.564 255.047 123.809 255.017C124.529 255.008 124.84 255.45 124.5 256C123.604 257.45 126.213 257.227 130.346 255.5C132.32 254.675 135.188 254.032 136.718 254.07C139.173 254.132 139.265 254.242 137.5 255C134.22 256.409 141.506 256.143 148.75 254.589C155.348 253.173 157.045 253.91 152 256C147.843 257.722 148.225 259.051 152.5 257.739C154.425 257.148 156 256.338 156 255.939C156 255.54 156.725 254.936 157.611 254.596C158.806 254.137 159.059 254.403 158.592 255.621C158.042 257.054 158.572 257.183 162.731 256.63C176.135 254.848 178 254.748 178 255.808C178 256.413 180.327 257.034 183.25 257.209L188.5 257.522L182.843 258.011C179.685 258.284 177.429 258.109 177.735 257.616C178.037 257.129 176.983 257 175.392 257.329C173.801 257.658 169.029 258.55 164.786 259.312C160.543 260.073 156.43 261.228 155.647 261.878C154.863 262.528 150.316 263.693 145.541 264.466C140.767 265.239 136.299 266.337 135.614 266.906C134.928 267.475 129.897 268.466 124.433 269.108C117.877 269.879 112.814 271.101 109.541 272.702C106.813 274.036 101.661 275.479 98.092 275.909C94.523 276.339 91.43 277.21 91.218 277.845C91.007 278.48 89.98 279 88.938 279C87.109 279 87.103 279.122 88.771 282.475C89.722 284.387 91.067 285.962 91.76 285.975C92.453 285.989 95.369 287.651 98.24 289.669L103.459 293.337L117.845 294.118C125.757 294.547 132.504 295.17 132.837 295.503C134.073 296.74 130.624 297.733 123.066 298.315C118.789 298.645 112.904 299.855 109.988 301.005C107.073 302.154 104.05 302.849 103.271 302.551C101.697 301.947 98.042 303.614 96.5 305.64C95.867 306.472 91.937 307.199 85.781 307.622C79.758 308.037 76.295 308.668 76.675 309.284C77.065 309.914 81.763 310.028 89.549 309.595C96.292 309.22 102.974 309.206 104.397 309.564C108.958 310.708 106.097 312 99 312C95.03 312 91.827 312.47 91.431 313.112C90.942 313.903 93.084 314.117 98.872 313.854C103.342 313.651 107 313.741 107 314.054C107 314.367 102.163 315.66 96.25 316.927C90.338 318.195 84.372 320.013 82.993 320.966C81.615 321.92 78.271 323.032 75.563 323.438C71.214 324.09 60.18 327.057 56 328.698C55.175 329.022 53.212 329.183 51.638 329.056C49.65 328.896 48.909 329.227 49.213 330.14C49.469 330.908 47.543 332.714 44.576 334.487C41.784 336.155 39.5 338.176 39.5 338.978C39.5 339.803 41.452 341.126 44 342.027C48.166 343.499 48.481 343.855 48.246 346.809C47.999 349.914 48.108 350.005 52.246 350.171C54.586 350.265 57.4 350.391 58.5 350.45C60.185 350.541 60.5 351.26 60.5 355.02V359.482L52.5 361.189C48.1 362.127 41.125 363.4 37 364.018C32.875 364.635 28.825 365.812 28 366.631C26.667 367.956 26.721 368.286 28.479 369.589C29.908 370.648 32.685 370.987 38.479 370.811C42.89 370.677 48.924 371.115 51.886 371.784C60.628 373.758 73.855 373.368 78.5 371C83.182 368.613 89.258 368.401 91.407 370.55C92.77 371.912 94.737 371.965 107.728 370.986C115.853 370.374 132.4 368.778 144.5 367.44C165.125 365.158 173.156 364.543 215 362.036C224.075 361.493 234.875 360.397 239 359.602C250.477 357.389 267.469 356.033 289.5 355.572C300.5 355.342 310.175 354.932 311 354.661C311.825 354.389 317.113 353.903 322.75 353.579C331.707 353.064 333 353.191 333 354.583C333 355.883 333.782 356.067 337.25 355.587C340.166 355.182 340.872 355.279 339.5 355.894C338.4 356.388 332.1 357.292 325.5 357.903C318.9 358.515 308.1 359.673 301.5 360.476C287.51 362.18 262.558 362.524 263.5 361C264.276 359.745 261.991 359.72 260.026 360.963C259.135 361.526 258.329 361.532 257.986 360.977C257.643 360.423 256.048 360.418 253.959 360.966C252.057 361.464 241.725 362.339 231 362.909C211.081 363.968 197.994 365.49 178.5 369.017C172.45 370.112 165.573 371.006 163.218 371.004C160.864 371.002 156.364 371.852 153.218 372.892C146.81 375.013 130.723 377.491 128.615 376.682C127.861 376.393 126.851 376.536 126.372 377.001C125.892 377.465 119.65 378.105 112.5 378.422C98.995 379.022 97.653 378.694 107 377.078C111.117 376.367 107.22 376.197 91.5 376.405C71.04 376.674 60 378.047 60 380.32C60 381.32 66.737 380.962 84.939 378.997C90.841 378.359 94.73 378.33 95.319 378.919C96.374 379.974 93.058 380.64 83.134 381.366C75.978 381.889 72.105 384 78.3 384C80.335 384 82 384.373 82 384.828C82 386.007 72.706 387.999 67.174 388.006C58.121 388.017 51.339 389.738 45.818 393.424C39.561 397.601 36 400.968 36 402.706C36 404.611 40.461 407.118 44.912 407.715C48.655 408.217 48.866 408.421 48.343 411.033C47.918 413.162 48.266 414.072 49.828 414.908C52.076 416.111 66.014 416.19 81.5 415.087C87 414.696 92.022 414.763 92.661 415.236C93.314 415.72 94.061 415.711 94.368 415.214C95.551 413.3 124.678 418.746 124.25 420.801C124.108 421.48 125.084 422 126.5 422C127.875 422 129 422.45 129 423C129 424.25 126.455 424.278 122.253 423.072C119.646 422.325 118.841 422.462 118.103 423.781C117.457 424.935 117.675 425.787 118.844 426.676C120.369 427.837 120.358 427.939 118.7 427.968C115.492 428.025 111.024 430.898 111.641 432.508C112.098 433.697 111.33 433.982 107.857 433.912C103.192 433.819 92.555 432.356 94.917 432.134C95.696 432.06 96.067 431.734 95.742 431.408C95.416 431.083 93.429 431.371 91.325 432.049C89.221 432.728 86.834 433.47 86.02 433.698C83.508 434.404 92.907 437.994 99.923 439.009C103.54 439.532 120 440.001 136.5 440.05C153 440.1 167.4 440.527 168.5 441C170.212 441.735 170.061 441.87 167.453 441.93C165.777 441.968 160.152 442.93 154.953 444.066C149.754 445.202 144.375 445.906 143 445.629C141.598 445.347 137.858 446.169 134.481 447.502C128.589 449.829 113.372 452 102.959 452C100.303 452 96.863 452.5 95.315 453.11C92.709 454.138 92.648 454.279 94.5 455.008C96.276 455.707 96.088 455.973 92.818 457.382C86.57 460.076 86.693 462.477 93.157 464.005L96.5 464.795L93.357 464.898C89.864 465.011 88.867 466.437 90.053 469.625C91.287 472.943 96.244 474.102 113.5 475.108C128.313 475.971 193.43 476.287 206 475.557C225.373 474.431 267.022 473.948 270.5 474.809L274.5 475.799L268.75 475.9C265.158 475.962 263 476.429 263 477.145C263 477.948 264.926 478.109 269.466 477.685C273.216 477.335 276.181 477.485 276.525 478.041C276.866 478.593 275.395 479 273.059 479C270.699 479 269 479.475 269 480.134C269 480.936 271.129 481.078 276.25 480.619C280.238 480.262 289.575 479.813 297 479.621C304.425 479.429 307.688 479.457 304.25 479.682C300.597 479.921 298 480.551 298 481.198C298 481.977 302.358 482.166 312.75 481.837C320.863 481.58 329.3 481.633 331.5 481.956L335.5 482.542L331.5 483.26C329.3 483.655 325.025 484.016 322 484.063C318.975 484.11 314.475 484.523 312 484.982C309.251 485.492 314.893 485.632 326.5 485.343C336.95 485.082 351.014 484.854 357.752 484.835C364.491 484.817 370.232 484.433 370.51 483.983C370.789 483.533 379 483.065 388.758 482.943C423.795 482.506 430.548 482.301 433.75 481.576C435.649 481.147 437 481.235 437 481.79C437 483.452 430.053 484.24 408 485.077C382.145 486.06 372.81 486.673 367.5 487.737C365.3 488.178 359.699 488.151 355.054 487.676C349.68 487.127 344.951 487.185 342.054 487.837C339.549 488.401 333.9 489.602 329.5 490.507C325.1 491.412 320.6 492.545 319.5 493.026C317.021 494.11 267 494.81 267 493.761C267 493.342 267.75 493 268.667 493C269.583 493 270.084 492.751 269.78 492.447C269.475 492.142 265.238 492.644 260.363 493.562C253.921 494.776 247.129 495.164 235.5 494.985C226.7 494.85 217.025 494.808 214 494.892C210.975 494.976 202.745 494.548 195.71 493.94C185.751 493.08 181.838 493.113 178.03 494.089C174.202 495.07 171.008 495.092 163.32 494.191C146.325 492.198 142 491.942 142 492.931C142 493.453 143.688 494.019 145.75 494.19C148.73 494.436 149.5 494.911 149.5 496.5C149.5 498.25 150.375 498.578 156.5 499.126C160.35 499.47 167.55 499.861 172.5 499.994C177.45 500.127 182.85 500.58 184.5 501C187.301 501.713 187.201 501.78 183 502.018C180.329 502.169 179.446 502.453 180.826 502.716C182.145 502.967 182.949 503.691 182.681 504.388C182.333 505.296 184.335 505.624 190.355 505.646C194.835 505.663 207.5 505.776 218.5 505.897C250.239 506.247 329.606 505.173 351.5 504.097C378.67 502.762 403.271 501.062 403.853 500.48C404.117 500.216 395.146 499.929 383.917 499.843C369.031 499.728 365.396 499.491 370.5 498.967C374.35 498.572 383.765 498.193 391.421 498.124C402.268 498.027 405.709 497.668 407.002 496.498C409.356 494.368 422.41 489.972 428.426 489.284C431.217 488.964 434.225 488.207 435.11 487.602C436.027 486.974 439.599 486.645 443.41 486.838C449.037 487.121 449.913 487.399 448.927 488.588C447.403 490.425 448.658 490.413 456.5 488.52C463.866 486.741 471.69 486.57 472.225 488.176C472.526 489.078 473.985 489.078 478.476 488.176C485.453 486.775 490 486.663 490 487.893C490 489.117 487.427 490 483.859 490C481.866 490 481.117 490.381 481.595 491.153C482.115 491.994 487.399 492.136 501.144 491.676C520.501 491.029 526.348 491.435 525.715 493.383C525.515 493.997 523.36 495.026 520.926 495.67L516.5 496.839L520.61 496.92C527.296 497.05 533.887 495.868 533.409 494.624C532.381 491.944 539.093 491.156 568.5 490.505C594.477 489.929 598.768 490.043 600.5 491.358C602.069 492.548 604.223 492.751 610.5 492.298C619.043 491.682 620.493 492.738 612.364 493.655C609.689 493.957 597.06 494.271 584.3 494.352C568.366 494.454 560.742 494.859 559.953 495.647C559.09 496.51 560.131 496.658 564.153 496.245C570.341 495.61 572.156 495.614 589 496.296C595.875 496.574 616.991 496.898 635.925 497.014C654.858 497.131 671.508 497.603 672.925 498.063C674.341 498.524 682.925 499.12 692 499.388C718.162 500.16 739.462 501.702 768.5 504.925C792.546 507.593 803.864 508.642 828.5 510.487C832.35 510.775 837.975 511.214 841 511.462C850.477 512.239 841.906 510.305 827.69 508.459C807.099 505.784 808.064 505.24 832.5 505.746C847.895 506.065 855.831 506.599 856.5 507.361C857.05 507.987 859.525 508.565 862 508.645C888.734 509.503 891.66 509.738 894.5 511.251C900.128 514.251 938 514.833 938 511.92C938 511.414 936.425 511 934.5 511C932.575 511 931 510.553 931 510.008C931 509.371 926.25 509.229 917.75 509.612C909.443 509.986 903.567 509.82 902 509.168C899.722 508.219 899.9 508.115 904 508C908.036 507.886 908.243 507.771 906.011 506.881C904.642 506.335 899.759 505.978 895.16 506.089C890.548 506.2 886.506 505.849 886.149 505.307C885.432 504.222 877.157 501.959 874.307 502.07C872.696 502.133 872.717 502.234 874.5 503C876.011 503.649 875.278 503.905 871.5 504.045C868.75 504.147 865.825 504.301 865 504.387C864.175 504.474 862.375 504.14 861 503.646C857.32 502.323 854.047 501.899 829.5 499.562C812.911 497.982 783.601 494.248 781.028 493.386C779.732 492.951 779.732 492.77 781.028 491.866C782.503 490.838 775.888 491.237 768.178 492.643C765.315 493.164 764.9 492.989 765.178 491.374C765.355 490.343 766.625 488.961 768 488.303C770.118 487.289 769.43 487.183 763.5 487.609C759.65 487.885 754.598 488.592 752.273 489.179C747.588 490.363 738.427 489.989 714.5 487.639C693.412 485.568 687.39 485.335 606.5 483.462C568.55 482.583 534.287 482.153 530.36 482.507C517.098 483.701 508.998 483.604 508.999 482.25C509.001 480.118 489.59 480.593 483.5 482.874C479.529 484.362 474.745 484.85 460.25 485.246C450.144 485.523 442 485.356 442 484.873C442 484.393 441.325 484 440.5 484C439.675 484 439 483.626 439 483.169C439 482.283 486.114 479.853 502 479.92C530.372 480.039 556.301 479.13 557.005 477.993C557.575 477.07 558.293 477.097 560.123 478.109C561.748 479.008 567.294 479.479 577.663 479.597C591.671 479.757 592.864 479.629 593.312 477.915C593.761 476.199 594.754 476.096 606.648 476.531C613.717 476.791 620.625 476.951 622 476.889C626.098 476.703 627.126 476.741 636 477.407C646.068 478.162 696.004 479.836 721.5 480.273C731.4 480.442 746.25 481.136 754.5 481.814C762.75 482.492 775.35 483.529 782.5 484.119C789.65 484.708 801.8 485.554 809.5 485.998C817.2 486.442 827.325 487.495 832 488.338C836.675 489.181 849.725 490.598 861 491.486C872.275 492.375 885.1 493.778 889.5 494.606C893.9 495.434 902.714 496.519 909.088 497.018C915.461 497.518 921.903 498.393 923.403 498.963C924.903 499.533 929.878 500 934.458 500C941.244 500 942.902 500.303 943.414 501.635C943.93 502.982 944.982 503.16 949.369 502.644C954.58 502.032 967.024 503.108 976 504.947C984.152 506.617 989.169 507.083 988.57 506.113C988.253 505.6 984.732 504.65 980.746 504.002C976.761 503.354 970.35 502.22 966.5 501.482C962.65 500.744 957.138 499.842 954.25 499.477C950.721 499.03 949 498.351 949 497.406C949 496.633 948.55 496 948 496C947.45 496 947 496.45 947 497C947 498.252 940.571 498.315 938.236 497.086C936.338 496.086 924.782 494.386 913 493.372C908.875 493.017 904.637 492.282 903.583 491.738C902.528 491.195 896.569 490.37 890.34 489.905C877.805 488.97 868 486.602 868 484.511C868 481.009 869.257 480 873.621 480C876.044 480 878.89 479.461 879.944 478.803C881.433 477.873 883.273 477.874 888.181 478.805C891.656 479.465 902.825 480.237 913 480.52C923.175 480.804 934.65 481.313 938.5 481.653C945.725 482.29 955.619 482.469 960 482.042C964.045 481.647 998.021 483.9 1003.86 484.95C1006.97 485.509 1009.77 486.666 1010.53 487.707C1011.62 489.201 1013.56 489.539 1022.17 489.733C1033.05 489.978 1051.77 492.312 1056 493.95C1057.38 494.483 1060.29 495.231 1062.47 495.613C1064.66 495.995 1067.02 496.88 1067.72 497.581C1068.58 498.436 1070.73 498.689 1074.25 498.35C1078.28 497.962 1082.77 498.701 1093.5 501.519C1101.2 503.54 1112.22 506.063 1118 507.124C1129.74 509.281 1135.27 509.224 1128 507.02C1125.2 506.172 1124.17 505.503 1125.26 505.252C1128.61 504.486 1125.84 502.94 1122.31 503.602C1118.59 504.299 1108 502.269 1108 500.859C1108 499.625 1113.12 498.587 1113.86 499.671C1114.21 500.19 1116 501.222 1117.84 501.966C1120.46 503.026 1121.35 503.053 1121.94 502.093C1122.49 501.212 1124.43 501.062 1128.85 501.563C1132.82 502.012 1135 501.897 1135 501.238C1135 500.676 1136.23 499.908 1137.74 499.53C1141.07 498.694 1139.52 497.609 1133.5 496.557C1128.18 495.628 1120 492.724 1120 491.765C1120 490.661 1121.38 490.799 1129.17 492.679C1135.71 494.257 1136.3 494.255 1139.02 492.649C1140.72 491.645 1142.87 491.181 1144.24 491.524C1145.79 491.914 1147.36 491.424 1148.94 490.054C1150.44 488.748 1152.71 488 1155.15 488C1157.27 488 1159 487.55 1159 487C1159 486.45 1160.01 485.961 1161.25 485.914C1167.26 485.684 1155.17 483.668 1144.19 483.071C1143.47 483.032 1143.12 482.617 1143.41 482.148C1144 481.191 1139.54 479.741 1130.17 477.847C1126.07 477.017 1123.5 475.939 1122.88 474.783C1122.2 473.51 1120.72 472.996 1117.71 472.985C1115.4 472.976 1112.9 472.589 1112.17 472.123C1108.51 469.804 1125.36 469.291 1144.59 471.138C1151.24 471.776 1157.99 471.939 1159.59 471.501C1161.87 470.876 1159.15 470.21 1147 468.424C1138.48 467.171 1127 465.86 1121.5 465.512C1116 465.164 1110.43 464.66 1109.13 464.391C1104.61 463.459 1108.16 462.54 1115.06 462.859C1123.44 463.246 1130.91 462.19 1128.88 460.905C1127.98 460.334 1129.15 460.025 1132.25 460.015C1134.86 460.007 1137 459.55 1137 459C1137 458.45 1136.05 458 1134.89 458C1133.48 458 1132.97 457.53 1133.33 456.578C1134 454.842 1131.44 454.383 1113.3 452.979C1106.04 452.417 1098 451.565 1095.43 451.085C1092.86 450.605 1088.15 450.448 1084.97 450.736C1081.37 451.063 1076.61 450.656 1072.34 449.658C1068.58 448.776 1059.99 447.135 1053.24 446.011C1046.5 444.887 1038.61 443.078 1035.71 441.992C1032.81 440.906 1020.32 438.445 1007.96 436.523C977.215 431.741 972.935 430.915 973.569 429.889C973.871 429.4 976.622 429 979.681 429C984.494 429 985.078 428.799 984.01 427.512C982.729 425.968 982.64 426.045 987.468 424.544C988.275 424.293 989.181 424.484 989.48 424.968C989.78 425.452 989.231 426.036 988.262 426.266C987.293 426.495 991.225 426.724 997 426.773C1003.04 426.825 1010.03 427.53 1013.46 428.432C1016.74 429.294 1021.69 430.011 1024.46 430.024C1027.23 430.037 1031.3 430.499 1033.5 431.05C1035.7 431.602 1041.75 432.488 1046.94 433.019C1052.14 433.551 1059.56 434.848 1063.44 435.902C1077.87 439.823 1090.77 442.147 1099.99 442.49C1105.21 442.683 1109.71 442.463 1110 442C1110.55 441.119 1119.62 442.902 1131.5 446.225C1135.35 447.302 1140.75 448.345 1143.5 448.544C1146.25 448.742 1151.75 450.051 1155.73 451.452C1159.71 452.853 1164.43 454 1166.23 453.999C1168.96 453.999 1169.52 453.608 1169.64 451.652C1169.76 449.554 1168.94 449.067 1161.92 447.038C1157.6 445.79 1153.26 444.16 1152.28 443.416C1150.69 442.205 1150.91 442.06 1154.43 442.032C1158.61 441.998 1165 440.085 1165 438.87C1165 438.469 1162.41 437.636 1159.25 437.019C1150.22 435.255 1140 432.039 1140 430.962C1140 430.36 1142.18 430.238 1145.66 430.647C1149.29 431.075 1151.09 430.959 1150.7 430.323C1150.36 429.78 1145.57 428.759 1140.04 428.055C1132.94 427.15 1130 426.381 1130 425.433C1130 423.511 1136.05 422.642 1140.61 423.909C1145.62 425.301 1148.22 425.201 1145 423.741C1142.65 422.677 1142.8 422.572 1147.5 422.003C1152.97 421.339 1152 420.43 1145 419.668C1135.92 418.679 1116.53 414.93 1115.58 413.979C1115.04 413.441 1113.68 412.993 1112.55 412.985C1111.42 412.976 1109.82 412.487 1109 411.898C1107.79 411.037 1107.94 410.923 1109.75 411.32C1110.99 411.591 1112 411.405 1112 410.906C1112 410.408 1111.34 410 1110.53 410C1109.73 410 1107.5 409.25 1105.57 408.333C1102.56 406.898 1102.3 406.504 1103.66 405.509C1104.92 404.584 1102.81 403.993 1093.1 402.556C1086.43 401.569 1080.73 400.365 1080.43 399.88C1080.13 399.396 1080.84 399 1082 399C1083.29 399 1083.85 398.568 1083.44 397.899C1083.04 397.263 1081.51 397.049 1079.79 397.392C1078.16 397.718 1073.83 397.312 1070.16 396.49C1066.5 395.668 1059.44 394.584 1054.48 394.082C1045.68 393.191 1040 391.527 1040 389.839C1040 388.681 1041.58 388.762 1056.06 390.659C1063.03 391.571 1069.49 392.025 1070.43 391.666C1072.76 390.77 1071.26 388.699 1068.75 389.355C1067.52 389.676 1066.09 389.174 1065.11 388.082C1063.27 386.027 1051.49 383.818 1016.5 378.973C974.663 373.178 966.454 372.007 955.5 370.27L944.5 368.526L955 367.726C960.775 367.286 968.334 367.055 971.798 367.213C977.686 367.481 978.062 367.369 977.586 365.477C976.836 362.502 981.809 360.548 987.84 361.449C1004.93 364 1013.36 364.941 1019.39 364.968C1026.7 365.002 1028.64 365.274 1056 370.105C1089.78 376.069 1101.46 377.262 1104.87 375.101C1106.46 374.093 1090.42 370.112 1074.04 367.45C1068.29 366.515 1061.99 365.124 1060.04 364.358C1056.74 363.061 1057.09 363.013 1065 363.663C1069.68 364.046 1075.97 364.394 1079 364.436C1082.03 364.477 1085.57 365.118 1086.88 365.859C1088.79 366.944 1089.41 366.959 1090.04 365.932C1090.67 364.911 1092.72 364.891 1100.36 365.829C1110.41 367.064 1128.77 367.433 1127.71 366.379C1127.37 366.037 1121.9 364.914 1115.55 363.884C1109.2 362.853 1102.55 361.338 1100.76 360.518L1097.5 359.026L1101 359.737C1102.92 360.128 1107.65 360.323 1111.5 360.17C1116.41 359.975 1120.44 360.502 1125 361.933C1132.23 364.204 1139.56 364.713 1138.42 362.866C1137.92 362.062 1138.7 361.918 1141.11 362.374C1142.97 362.727 1146.41 363.296 1148.75 363.638L1153 364.26V360.658C1153 357.159 1152.84 357.011 1147.58 355.481C1140.44 353.404 1138.83 351.54 1143.23 350.445L1146.5 349.633L1142.6 349.247C1140.46 349.035 1137.99 348.053 1137.1 347.064C1136.1 345.935 1132.34 344.677 1127 343.683C1122.32 342.813 1113.32 341.131 1107 339.947C1100.43 338.716 1094.34 336.98 1092.79 335.896C1091.3 334.853 1089.61 334 1089.04 334C1088.47 334 1088 333.55 1088 333C1088 332.45 1089.58 332 1091.5 332C1097.91 332 1095.11 330.525 1084.25 328.185C1078.34 326.912 1068.78 324.284 1063 322.346C1057.22 320.407 1050.25 318.437 1047.5 317.967C1039.35 316.574 1036.59 315.809 1035 314.502C1034.18 313.822 1030.35 312.988 1026.49 312.648C1022.64 312.309 1016.11 311.122 1011.99 310.01C1007.87 308.899 1001.18 307.545 997.116 307.002C992.085 306.33 989.316 305.455 988.427 304.258C987.381 302.849 986.752 302.725 985.261 303.633C983.853 304.491 982.984 304.462 981.683 303.51C980.739 302.82 977.161 301.882 973.733 301.427C969.329 300.843 968.387 300.498 970.524 300.254C972.187 300.063 984.236 301.278 997.3 302.954C1010.37 304.629 1023.63 306 1026.78 306C1029.93 306 1034.08 306.487 1036.01 307.083C1043.88 309.522 1047.2 310.072 1062.49 311.462C1072.69 312.389 1078.83 312.569 1079.44 311.958C1080.7 310.696 1086.25 310.744 1093.48 312.081C1096.7 312.675 1100.94 312.859 1102.91 312.489L1106.5 311.816L1103.82 310.414C1100.59 308.721 1089.72 307.056 1081.5 306.995C1076.1 306.956 1069.01 305.847 1065.03 304.42C1063.73 303.955 1063.73 303.781 1065.03 302.962C1066.66 301.932 1066.62 301.92 1060.5 301.485C1052.22 300.896 1039.82 299.151 1039.2 298.486C1038.82 298.072 1043.68 297.985 1050 298.292C1056.84 298.625 1059.88 298.526 1057.5 298.049C1055.3 297.607 1047.43 296.955 1040 296.598C1022.88 295.776 1018 295.095 1018 293.53C1018 292.826 1016.81 292.313 1015.25 292.347C1013.74 292.38 1006.65 291.386 999.5 290.137C992.35 288.889 975.925 286.56 963 284.962L939.5 282.057L955.5 282.522C969.209 282.92 1004.66 285.759 1017.5 287.487C1022.75 288.193 1061.99 291.97 1064.25 291.987C1065.21 291.994 1066 291.295 1066 290.433C1066 289.401 1066.6 289.05 1067.75 289.406C1068.71 289.703 1075.78 290.441 1083.45 291.046C1091.13 291.651 1098.27 292.609 1099.32 293.174C1100.38 293.739 1102.52 293.946 1104.08 293.633C1105.65 293.321 1107.19 293.501 1107.52 294.033C1107.85 294.565 1110.74 295 1113.95 295C1120.53 295 1130.94 296.828 1148.5 301.068L1160.5 303.966L1162.25 301.872C1164.59 299.07 1164.45 298.001 1161.75 297.994C1160.51 297.991 1157.7 297.454 1155.5 296.8L1151.5 295.61L1156.5 294.752C1159.25 294.28 1164.42 293.567 1168 293.166L1174.5 292.438L1170.5 291.225C1168.3 290.557 1165.96 290.009 1165.31 290.006C1164.65 290.003 1163.52 289.148 1162.79 288.107C1161.77 286.651 1159.62 286.042 1153.48 285.468C1149.09 285.058 1143.7 284.155 1141.5 283.46C1137.53 282.207 1137.56 282.197 1145.5 282.105C1149.9 282.053 1158.66 282.882 1164.98 283.947C1171.29 285.011 1176.62 285.717 1176.82 285.515C1177.52 284.813 1171.46 282.318 1164.79 280.563C1161.09 279.592 1156.98 277.785 1155.65 276.548C1153.9 274.928 1151.53 274.145 1147.2 273.752C1143.9 273.452 1140.36 272.71 1139.35 272.102C1137.97 271.277 1140.47 271.162 1149.25 271.646C1156.34 272.037 1161 271.923 1161 271.357C1161 270.776 1164.06 270.778 1169.08 271.362C1175.81 272.145 1178.48 271.992 1184.93 270.455C1191.34 268.927 1192.96 268.132 1194.26 265.876C1196.33 262.254 1196.39 262.27 1176.72 260.949C1155.78 259.543 1148.59 258.528 1145.81 256.58C1144.3 255.524 1141.35 255 1136.9 255C1132.47 255 1129.86 254.54 1129.1 253.623C1128.47 252.866 1124.03 251.447 1119.23 250.469C1105.96 247.767 1106.18 245.695 1119.5 247.976C1123.4 248.643 1124.74 248.52 1125.61 247.416C1126.22 246.637 1127.46 246 1128.36 246C1129.26 246 1130 245.55 1130 245C1130 244.45 1128.68 244 1127.06 244C1125.45 244 1121.06 243.29 1117.32 242.422C1113.57 241.553 1107.81 240.699 1104.51 240.523C1095.9 240.065 1096 240.082 1096 239.153C1096 238.687 1097 237.861 1098.21 237.318C1100.96 236.092 1065.67 234.732 1055.58 235.675C1051.57 236.049 1048.04 235.871 1046.71 235.226C1045.5 234.638 1038.59 233.913 1031.36 233.616C1008.82 232.689 993.002 230.046 992.999 227.203C992.998 226.292 1020.74 226.967 1023.37 227.942C1024.47 228.35 1026.62 228.214 1028.15 227.639C1030.14 226.885 1033.77 226.984 1041.21 227.998C1046.87 228.77 1053.3 229.293 1055.5 229.161C1065.1 228.581 1078.85 229.202 1096.97 231.033C1107.68 232.115 1121.4 233.033 1127.47 233.073C1133.54 233.113 1140.97 233.561 1144 234.067C1147.03 234.574 1154.9 235.644 1161.5 236.444C1184.59 239.245 1196.53 240.947 1199.74 241.896C1201.72 242.481 1203.2 242.493 1203.55 241.926C1203.86 241.417 1202.94 241 1201.5 241C1200.07 241 1196.99 240.134 1194.66 239.075C1192.34 238.016 1186.63 236.432 1181.97 235.555C1166.34 232.612 1162.7 231.793 1159.09 230.397L1155.5 229.008L1161 229.592C1164.03 229.913 1170.53 231.036 1175.45 232.088C1186.47 234.44 1187.48 234.428 1182.88 232C1180.89 230.949 1175.94 229.643 1171.88 229.099C1167.82 228.554 1159.55 227.215 1153.5 226.123C1147.45 225.031 1136.94 223.7 1130.13 223.166C1121.13 222.46 1117.33 221.761 1116.17 220.598C1114.18 218.611 1114.07 218.616 1128.14 220.07C1136.18 220.9 1139.36 220.856 1142.36 219.872C1145.53 218.834 1145.89 218.473 1144.36 217.873C1143.34 217.47 1141.15 217.102 1139.5 217.055C1137.85 217.008 1135.84 216.554 1135.04 216.046C1131.66 213.909 1162.52 217.033 1176.5 220.243C1185.48 222.305 1203.39 223.434 1202.42 221.877C1202.14 221.426 1202.68 219.896 1203.61 218.477C1204.57 217.008 1204.91 215.569 1204.4 215.135C1203.23 214.146 1194.12 211.493 1186.5 209.921C1183.2 209.24 1180.07 208.305 1179.55 207.842C1179.03 207.379 1177.75 207 1176.72 207C1175.64 207 1175.02 206.462 1175.27 205.75C1175.58 204.873 1178.07 204.549 1183.6 204.663L1191.5 204.826L1186 203.441L1180.5 202.055L1187 202.528C1190.58 202.788 1195.53 203.25 1198 203.556C1202.37 204.097 1202.43 204.069 1200 202.592C1198.62 201.755 1196.71 201.055 1195.75 201.035C1194.79 201.016 1194 200.53 1194 199.955C1194 199.338 1195.33 199.117 1197.25 199.416C1199.04 199.695 1204.55 200.21 1209.5 200.562C1214.45 200.914 1222.08 201.826 1226.45 202.589C1232.13 203.58 1234.59 203.665 1235.07 202.885C1235.55 202.113 1236.32 202.101 1237.71 202.845C1238.79 203.424 1240.58 203.661 1241.69 203.372C1242.79 203.083 1252.42 204.43 1263.1 206.365C1290.05 211.254 1291.76 211.479 1290.31 209.964C1289.66 209.282 1283.41 207.204 1276.44 205.349C1269.46 203.493 1262.34 201.327 1260.62 200.535C1258.91 199.743 1251.88 198.381 1245 197.508C1238.12 196.635 1229.66 195.264 1226.19 194.46C1222.72 193.657 1218.13 193 1216 193C1213.86 193 1211.84 192.551 1211.5 192.002C1210.61 190.562 1231.12 191.496 1244.5 193.504C1250.55 194.413 1263.77 196.923 1273.89 199.083C1284.01 201.243 1295.93 203.427 1300.39 203.935C1304.85 204.443 1311.99 205.968 1316.25 207.323C1321.27 208.919 1323.99 209.384 1323.97 208.644C1323.91 206.5 1321.51 204.497 1316 202C1312.97 200.628 1310.05 198.992 1309.5 198.363C1308.95 197.735 1306.81 196.686 1304.75 196.033C1302.69 195.379 1301 194.256 1301 193.536C1301 192.017 1308.99 190.543 1312.01 191.504C1314.59 192.322 1314.55 191.207 1311.91 188.918C1308.56 186.013 1275.79 175.789 1246.26 168.433C1219.16 161.685 1211.79 159.157 1228.89 162.478C1240.95 164.822 1242.78 163.847 1231.38 161.154C1221.01 158.707 1216.36 158.438 1215.74 160.25C1215.4 161.238 1214.6 161.216 1211.91 160.144C1210.03 159.398 1206.03 158.328 1203 157.766C1199.97 157.203 1197.14 156.126 1196.7 155.372C1195.58 153.452 1193.93 153.652 1194.68 155.616C1195.21 156.984 1194.98 157.06 1193.2 156.108C1192.05 155.489 1189.16 154.861 1186.8 154.714C1184.28 154.556 1182.59 153.98 1182.72 153.323C1182.99 151.913 1170.38 149 1164 149C1161.31 149 1158.77 148.433 1158.16 147.696C1157.5 146.895 1155.68 146.555 1153.46 146.815C1147.89 147.465 1150.58 148.679 1160.45 149.963C1165.38 150.604 1170.1 151.559 1170.95 152.085C1172.05 152.76 1171.47 152.888 1169 152.518C1167.08 152.231 1160.86 151.329 1155.19 150.515C1149.52 149.702 1144.12 148.556 1143.19 147.97C1141.81 147.098 1141.95 147.013 1144 147.504C1146.41 148.081 1146.43 148.045 1144.56 146.552C1143.35 145.588 1140.61 145 1137.31 145C1133.63 145 1132.08 144.621 1132.25 143.766C1132.41 142.972 1130.72 142.338 1127.5 141.987C1124.75 141.688 1121.72 140.991 1120.76 140.439C1118.28 139.005 1132 139.803 1139 141.5C1146.01 143.2 1159.77 144.502 1158.67 143.362C1158.21 142.888 1156.19 141.966 1154.17 141.314C1150.72 140.198 1150.9 140.15 1157.31 140.495C1161.06 140.697 1164.66 141.282 1165.31 141.795C1165.97 142.309 1169.72 142.985 1173.65 143.298C1177.58 143.611 1189.17 145.922 1199.39 148.434C1209.61 150.945 1218.88 153 1219.99 153C1221.11 153 1222 153.664 1222 154.5C1222 156.476 1224.51 156.403 1228.03 154.324C1230.73 152.731 1231.23 152.76 1238.18 154.904C1242.21 156.146 1247.3 157.512 1249.5 157.942C1251.7 158.371 1256.95 159.909 1261.18 161.361C1269.26 164.142 1273 164.659 1273 163C1273 162.45 1272.37 162 1271.61 162C1270.84 162 1269.94 161.296 1269.61 160.435C1269.14 159.199 1269.49 159.01 1271.26 159.538C1273.4 160.177 1273.42 160.142 1271.6 158.756C1269.82 157.402 1269.98 157.258 1273.98 156.619C1276.34 156.242 1278.07 155.739 1277.83 155.501C1277.6 155.263 1272.92 154.35 1267.45 153.473C1261.98 152.595 1257.19 151.567 1256.81 151.189C1255.69 150.072 1272.9 149.877 1274.97 150.983C1277.7 152.446 1308.14 160.19 1308.76 159.578C1309.04 159.295 1307.83 158.261 1306.06 157.281C1304.3 156.302 1302.1 154.952 1301.18 154.282C1298.08 152.03 1303.27 152.78 1309.13 155.431C1315.38 158.263 1322 159.698 1322 158.224C1322 157.674 1318.96 155.967 1315.25 154.429C1311.54 152.891 1307.82 151.102 1307 150.453C1305.08 148.945 1298.9 146.795 1287.22 143.569C1282.11 142.16 1276.03 139.992 1273.72 138.753L1269.5 136.5L1275.5 136L1281.5 135.5L1273 132.313C1268.32 130.56 1261.13 128.121 1257.01 126.893C1252.89 125.665 1250.06 124.481 1250.71 124.263C1251.36 124.045 1255.18 124.788 1259.2 125.914C1263.21 127.04 1270.32 128.629 1275 129.445C1279.68 130.262 1286.4 132.109 1289.94 133.55C1294.98 135.6 1297.31 136.03 1300.67 135.527C1303.02 135.174 1305.16 134.543 1305.42 134.126C1306.03 133.144 1301.59 130.599 1296.5 129.008C1294.3 128.32 1291.12 126.924 1289.43 125.906C1287.74 124.888 1284.14 123.578 1281.43 122.995C1276.11 121.852 1273.2 120.463 1274.15 119.519C1275.14 118.526 1290.43 122.033 1291.58 123.517C1292.22 124.342 1295.47 125.152 1299.58 125.505L1306.5 126.102L1303.5 124.363C1301.85 123.406 1296.22 121.408 1291 119.923C1285.78 118.437 1276.32 115.345 1270 113.051C1249.34 105.56 1220.09 97.403 1199.57 93.412C1192.93 92.121 1185.03 90.405 1182 89.599C1178.97 88.792 1173.86 87.611 1170.64 86.973C1167.34 86.319 1165.16 85.436 1165.65 84.947C1166.14 84.458 1169.17 84.791 1172.6 85.709C1176.29 86.699 1179.43 87.017 1180.59 86.52C1183.79 85.149 1137.48 74.297 1118.5 71.973C1113.55 71.367 1106.76 70.45 1103.42 69.936C1100.07 69.421 1095.12 69 1092.42 69C1089.71 69 1083.9 68.308 1079.5 67.462C1069.6 65.56 1049.4 62.562 1029.1 59.982C1020.62 58.905 1013.45 57.784 1013.16 57.489C1012.86 57.195 1013.68 56.21 1014.98 55.3C1017.23 53.728 1017.25 53.609 1015.42 52.894C1011.69 51.429 1006.07 51.934 1004.09 53.911C1001.05 56.95 991.27 57.468 972.221 55.597C963.025 54.694 953.925 53.698 952 53.384C950.075 53.071 942.875 52.443 936 51.989C929.125 51.536 921.475 50.715 919 50.166C911.609 48.527 866.683 48.439 858.5 50.048C849.654 51.787 803.467 51.867 801.746 50.146C799.686 48.086 802.107 47.502 814.081 47.166C823.539 46.901 826 46.54 826 45.416C826 44.433 827.299 43.969 830.25 43.898L834.5 43.796L831 42.806C829.075 42.261 826.375 41.356 825 40.793L822.5 39.771L825 38.712L827.5 37.653L825.122 37.24C823.814 37.013 822.145 37.429 821.412 38.164C819.808 39.773 807 39.429 807 37.777C807 37.081 809.287 36.94 813.75 37.362C818.13 37.775 819.954 37.669 818.945 37.059C818.09 36.542 813.906 35.803 809.647 35.417C803.596 34.869 801.97 34.995 802.203 35.994C802.719 38.216 796.913 39.098 783.5 38.834C769.598 38.561 764.498 39.261 763.615 41.561C763.235 42.55 761.569 42.978 758.281 42.93C753.794 42.864 747.536 41.253 751 41.055C752.333 40.979 752.333 40.862 751 40C750.175 39.467 745.836 39.024 741.357 39.015C735.051 39.003 733.084 38.662 732.638 37.5C732.166 36.27 729.653 36 718.681 36C711.32 36 703.867 35.501 702.117 34.891C699.445 33.96 698.114 34.135 693.819 35.983C688.573 38.239 686.886 38.237 678.876 35.964C674.72 34.785 673.86 34.847 670.376 36.576L666.5 38.5L671.25 38.805C678.067 39.242 677.102 40.608 669.474 41.32C662.422 41.979 657.148 43.913 662.25 43.97C663.763 43.986 664.999 44.337 664.998 44.75C664.997 45.163 667.749 45.345 671.113 45.155C675.902 44.886 677.131 45.103 676.773 46.155C676.438 47.139 674.056 47.5 667.908 47.5C663.283 47.5 658.918 47.876 658.206 48.336C657.454 48.822 656.321 48.682 655.5 48C654.679 47.318 653.546 47.178 652.794 47.664C652.082 48.124 647.45 48.764 642.5 49.087C637.55 49.41 632.001 50.31 630.169 51.087C627.148 52.368 626.715 52.331 625.515 50.69C624.583 49.415 623.979 49.225 623.471 50.047C622.939 50.907 622.52 50.858 621.875 49.857C621.139 48.715 620.861 48.716 620.121 49.863C619.422 50.948 619.155 50.964 618.813 49.939C618.474 48.921 611.586 48.674 585.942 48.761C566.706 48.826 554.378 48.516 555.658 48.001C556.845 47.523 561.795 47.185 566.658 47.249C572.358 47.324 577.277 46.792 580.5 45.752C584.066 44.602 591.235 43.967 605.5 43.538C620.933 43.074 625.742 42.617 626.561 41.536C629.659 37.445 655.521 32.798 657.488 35.98C658.081 36.94 658.441 36.912 659.11 35.857C659.779 34.8 659.973 34.887 659.985 36.25C660.003 38.397 664.52 38.692 665.324 36.599C665.901 35.094 663.305 34.037 658.973 34.014C657.582 34.006 655.504 33.341 654.354 32.535C653.204 31.73 651.967 31.366 651.606 31.727ZM416.604 34.729C415.588 35.746 414.749 34.215 415.583 32.866C416.213 31.846 416.449 31.846 416.787 32.862C417.019 33.557 416.936 34.397 416.604 34.729ZM736.441 34.545C734.648 35.972 734.904 36.041 739.807 35.443C742.725 35.088 746.325 34.431 747.807 33.984C749.912 33.349 749.178 33.153 744.441 33.086C740.373 33.028 737.744 33.508 736.441 34.545ZM401 35C399.03 36.273 396.713 36.273 397.5 35C397.84 34.45 399.104 34.007 400.309 34.015C402.09 34.028 402.219 34.212 401 35ZM390 36C390 36.55 389.1 37 388 37C386.9 37 386 36.55 386 36C386 35.45 386.9 35 388 35C389.1 35 390 35.45 390 36ZM461.868 36.048C452.881 36.848 435 40.743 435 41.9C435 43.115 449.465 41.777 451.473 40.376C454.457 38.294 458.092 38.634 458.725 41.057C459.1 42.49 459.753 42.906 460.881 42.428C461.772 42.051 463.625 41.509 465 41.223C466.375 40.937 468.573 39.87 469.885 38.851C471.197 37.833 473.757 37 475.576 37C477.394 37 479.16 36.55 479.5 36C480.202 34.864 474.997 34.878 461.868 36.048ZM969.991 36.556C973.01 37.291 981.11 38.608 987.991 39.482C994.871 40.357 1001.4 41.332 1002.5 41.649C1003.94 42.063 1004.21 41.914 1003.45 41.116C1002.88 40.506 999.728 39.516 996.454 38.916C993.179 38.316 989.79 37.189 988.921 36.412C987.739 35.355 984.471 35.028 975.921 35.111L964.5 35.221L969.991 36.556ZM383.25 36.662C382.563 36.94 381.438 36.94 380.75 36.662C380.063 36.385 380.625 36.158 382 36.158C383.375 36.158 383.938 36.385 383.25 36.662ZM356 38.393C356 38.609 355.302 39.054 354.448 39.382C353.558 39.723 353.157 39.555 353.507 38.989C354.094 38.038 356 37.583 356 38.393ZM462.729 38.604C462.397 38.936 461.534 38.972 460.813 38.683C460.015 38.364 460.252 38.127 461.417 38.079C462.471 38.036 463.061 38.272 462.729 38.604ZM316 41.5C315.725 42.05 314.6 42.37 313.5 42.212C312.4 42.054 308.669 42.688 305.209 43.622C300.705 44.837 298.612 45.012 297.839 44.239C297.065 43.465 298.142 42.959 301.629 42.455C304.308 42.068 307.175 41.359 308 40.88C310.004 39.717 316.635 40.231 316 41.5ZM631.25 40.706C628.817 41.174 628.121 43 630.375 43C633.348 43 638 41.704 638 40.875C638 39.987 635.33 39.92 631.25 40.706ZM926 41C926 41.55 925.073 42 923.941 42C922.809 42 922.16 41.55 922.5 41C922.84 40.45 923.766 40 924.559 40C925.352 40 926 40.45 926 41ZM948.625 42.464C949.106 43.718 948.608 43.877 945.855 43.352C944.01 43.001 942.84 43.08 943.255 43.528C943.67 43.976 948.574 45.143 954.153 46.121C963.031 47.677 964.638 47.721 967.041 46.479C969.395 45.262 971.623 45.251 982.643 46.405C992.193 47.405 995.861 47.462 996.902 46.627C999.076 44.884 992.732 44.124 975.45 44.058C967.173 44.026 959.973 43.606 959.45 43.124C958.928 42.643 956.146 41.953 953.269 41.592C948.823 41.035 948.126 41.165 948.625 42.464ZM231.457 42.931C232.286 44.272 231.024 44.804 225.443 45.466C217.73 46.381 197.43 49.869 187.454 51.993C182.478 53.052 177.528 53.696 176.454 53.424C175.379 53.151 170.225 53.885 165 55.055C159.775 56.224 154.15 57.372 152.5 57.605C149.554 58.022 149.545 58.01 152 56.937C156.536 54.954 188.401 47.677 193.5 47.459C200.534 47.159 213.576 45.38 214.944 44.535C215.575 44.145 219.108 43.474 222.795 43.044C226.483 42.615 229.811 42.204 230.191 42.131C230.571 42.059 231.141 42.419 231.457 42.931ZM293 44C293 44.55 292.311 45 291.469 45C290.626 45 289.678 45.675 289.362 46.5C289.034 47.355 287.542 48 285.893 48C283.698 48 283 47.533 283 46.063C283 44.628 283.841 44.022 286.25 43.723C292.314 42.971 293 42.999 293 44ZM314 44.393C314 45.342 311.007 45.82 310.473 44.956C310.148 44.43 310.809 44 311.941 44C313.073 44 314 44.177 314 44.393ZM327 44.8C327 46.517 324.459 47.999 321.55 47.978L318.5 47.956L321 46C323.528 44.023 327 43.328 327 44.8ZM704.816 44.825C705.742 45.279 709.875 45.391 714 45.075C721.781 44.478 738.282 45.906 739.642 47.293C740.48 48.147 707.391 48.147 689.665 47.293C683.706 47.005 679.206 46.395 679.665 45.936C680.411 45.191 683.925 44.872 698.816 44.196C701.189 44.088 703.889 44.371 704.816 44.825ZM250 46C250 46.55 248.141 47 245.868 47C243.595 47 240.333 47.834 238.618 48.854C236.903 49.874 231.45 51.274 226.5 51.965C221.55 52.657 216.15 53.812 214.5 54.534C212.85 55.255 206.775 56.407 201 57.094C195.225 57.78 189.418 58.877 188.095 59.53C186.371 60.382 184.756 60.431 182.385 59.703C179.844 58.924 178.688 59.014 177.386 60.094C176.431 60.887 173.032 61.603 169.596 61.736C157.154 62.216 152.4 62.841 148.526 64.506C146.223 65.496 142.019 66.208 138.526 66.2C135.212 66.193 129.35 67.024 125.5 68.046C116.754 70.37 110.843 70.875 110.304 69.345C109.618 67.399 118.202 65.357 136.5 63.115C140.9 62.576 151.925 60.575 161 58.668C170.075 56.761 183.35 54.398 190.5 53.417C197.65 52.437 206.875 51.116 211 50.482C215.285 49.823 218.988 49.7 219.639 50.195C220.317 50.71 224.575 50.062 230.139 48.597C243.166 45.167 250 44.273 250 46ZM268.5 46C268.16 46.55 267.459 47 266.941 47C266.423 47 266 46.55 266 46C266 45.45 266.702 45 267.559 45C268.416 45 268.84 45.45 268.5 46ZM1002.5 46C1002.13 46.596 1003.34 47 1005.5 47C1007.66 47 1008.87 46.596 1008.5 46C1008.16 45.45 1006.81 45 1005.5 45C1004.19 45 1002.84 45.45 1002.5 46ZM136 49C136 49.55 136.477 50 137.059 50C137.641 50 137.84 49.55 137.5 49C137.16 48.45 136.684 48 136.441 48C136.198 48 136 48.45 136 49ZM483 49C483 49.55 483.477 50 484.059 50C484.641 50 484.84 49.55 484.5 49C484.16 48.45 483.684 48 483.441 48C483.198 48 483 48.45 483 49ZM260 50.907C260 52.227 257.592 54 255.8 54C253.597 54 253.489 52.653 255.529 50.614C256.963 49.179 260 49.378 260 50.907ZM249.122 51.904C248.364 52.384 248.053 53.278 248.432 53.89C249.357 55.386 244.884 57 239.812 57C236.311 57 235.926 56.794 237.006 55.493C238.216 54.035 245.941 51.196 249 51.085C250.238 51.04 250.259 51.183 249.122 51.904ZM426.358 51.954C424.63 52.366 421.705 53.612 419.858 54.723C418.011 55.834 415.209 57.048 413.632 57.42C408.551 58.62 411.671 59.236 419.065 58.493C423.142 58.084 425.707 57.437 424.996 56.998C422.986 55.755 424.629 54.331 429.483 53.109C431.967 52.483 434 51.753 434 51.486C434 50.816 430.137 51.053 426.358 51.954ZM365.828 52.506C365.549 52.784 358.837 53.437 350.911 53.957C342.985 54.477 327.05 55.841 315.5 56.988C290.224 59.499 269.561 61.209 265.577 61.119C263.895 61.081 263.046 61.419 263.577 61.915C264.091 62.395 270.484 62.406 278 61.941C296.565 60.793 314.36 60.806 317.425 61.972C319.085 62.603 321.649 62.597 324.74 61.957C327.358 61.414 341.99 60.29 357.255 59.459C372.52 58.627 386.245 57.422 387.755 56.781L390.5 55.614L387.547 55.221C385.923 55.005 384.025 54.079 383.329 53.164C382.156 51.622 382.061 51.628 382.032 53.25C381.993 55.399 379.472 55.495 375.636 53.494C372.884 52.059 366.879 51.454 365.828 52.506ZM482.5 53C482.16 53.55 482.332 54 482.882 54C483.432 54 484.16 53.55 484.5 53C484.84 52.45 484.668 52 484.118 52C483.568 52 482.84 52.45 482.5 53ZM462.25 54.689C463.212 54.941 464.788 54.941 465.75 54.689C466.712 54.438 465.925 54.232 464 54.232C462.075 54.232 461.288 54.438 462.25 54.689ZM471.211 55.538C470.145 56.746 470.189 57 471.461 57C472.307 57 473 56.325 473 55.5C473 53.676 472.85 53.68 471.211 55.538ZM169.5 59C169.84 59.55 170.316 60 170.559 60C170.802 60 171 59.55 171 59C171 58.45 170.523 58 169.941 58C169.359 58 169.16 58.45 169.5 59ZM401.694 58.639C401.342 58.991 401.256 59.606 401.503 60.005C402.076 60.932 406.853 60.047 407.574 58.881C408.191 57.882 402.678 57.656 401.694 58.639ZM139.5 60C139.84 60.55 139.39 61 138.5 61C137.61 61 137.16 60.55 137.5 60C137.84 59.45 138.29 59 138.5 59C138.71 59 139.16 59.45 139.5 60ZM256.5 62C256.84 62.55 257.541 63 258.059 63C258.577 63 259 62.55 259 62C259 61.45 258.298 61 257.441 61C256.584 61 256.16 61.45 256.5 62ZM178.271 66.023C177.045 66.516 172.095 67.396 167.271 67.979C162.447 68.561 157.038 69.226 155.25 69.456C149.941 70.139 151.558 68.23 157.25 67.095C162.401 66.067 168.553 65.476 176.5 65.244C179.788 65.148 180.103 65.286 178.271 66.023ZM318.269 66.693C319.242 66.947 320.592 66.93 321.269 66.656C321.946 66.382 321.15 66.175 319.5 66.195C317.85 66.215 317.296 66.439 318.269 66.693ZM319.847 70.487C319.579 70.754 315.899 71.344 311.669 71.797C307.439 72.251 304.321 72.285 304.739 71.874C305.43 71.195 309.507 70.648 317.417 70.175C319.021 70.079 320.114 70.219 319.847 70.487ZM170 74C170 75.187 171.737 75.187 174.5 74C176.176 73.28 175.974 73.129 173.25 73.07C171.462 73.032 170 73.45 170 74ZM149.236 75.545C131.52 77.822 125.255 79.589 127.376 81.709C127.692 82.026 132.8 81.572 138.726 80.701C144.652 79.83 151.975 78.815 155 78.446C160.392 77.789 163 76.626 163 74.878C163 73.826 162.366 73.856 149.236 75.545ZM164.813 74.683C165.534 74.972 166.397 74.936 166.729 74.604C167.061 74.272 166.471 74.036 165.417 74.079C164.252 74.127 164.015 74.364 164.813 74.683ZM1186.27 86.693C1187.24 86.947 1188.59 86.93 1189.27 86.656C1189.95 86.382 1189.15 86.175 1187.5 86.195C1185.85 86.215 1185.3 86.439 1186.27 86.693ZM313 90.712C317.083 91.486 316.296 91.677 304.5 92.772C282.111 94.851 265 95.433 265 94.116C265 93.475 266.154 92.512 267.565 91.975C270.971 90.68 278.304 90.699 277.5 92C276.601 93.455 278.196 93.167 280.441 91.468C282.967 89.558 284 89.612 284 91.655C284 93.172 284.147 93.177 285.762 91.716C288.536 89.205 302.368 88.695 313 90.712ZM344.729 89.604C344.397 89.936 343.534 89.972 342.813 89.683C342.015 89.364 342.252 89.127 343.417 89.079C344.471 89.036 345.061 89.272 344.729 89.604ZM327.264 90.704C326.034 90.941 323.784 90.947 322.264 90.718C320.744 90.488 321.75 90.294 324.5 90.286C327.25 90.279 328.494 90.467 327.264 90.704ZM336.729 90.604C336.397 90.936 335.534 90.972 334.813 90.683C334.015 90.364 334.252 90.127 335.417 90.079C336.471 90.036 337.061 90.272 336.729 90.604ZM105.813 92.683C106.534 92.972 107.397 92.936 107.729 92.604C108.061 92.272 107.471 92.036 106.417 92.079C105.252 92.127 105.015 92.364 105.813 92.683ZM252.417 94.357C251.925 95.638 250.411 96 245.54 96C242.104 96 236.415 96.288 232.897 96.64C221.927 97.737 227.266 95.862 240.195 94.077C246.963 93.142 252.623 92.453 252.774 92.546C252.924 92.638 252.763 93.453 252.417 94.357ZM262.756 93.25C262.531 93.938 260.806 94.645 258.923 94.821C253.896 95.293 256.958 92.864 262.333 92.116C262.792 92.052 262.982 92.563 262.756 93.25ZM146 94C146 94.55 145.073 95 143.941 95C142.809 95 142.16 94.55 142.5 94C142.84 93.45 143.766 93 144.559 93C145.352 93 146 93.45 146 94ZM1234.5 100C1234.84 100.55 1236.1 100.993 1237.31 100.985C1239.09 100.972 1239.22 100.788 1238 100C1236.03 98.727 1233.71 98.727 1234.5 100ZM1266 107C1266 107.55 1266.93 108 1268.06 108C1269.19 108 1269.84 107.55 1269.5 107C1269.16 106.45 1268.23 106 1267.44 106C1266.65 106 1266 106.45 1266 107ZM1273 108.551C1273 109.507 1279.36 111.809 1286.56 113.457C1290.38 114.331 1296.31 115.973 1299.75 117.106C1307.23 119.568 1310.63 119.106 1303.48 116.599C1298.07 114.7 1274.97 108.028 1273.75 108.011C1273.34 108.005 1273 108.248 1273 108.551ZM69.5 110C69.16 110.55 69.332 111 69.882 111C70.432 111 71.16 110.55 71.5 110C71.84 109.45 71.668 109 71.118 109C70.568 109 69.84 109.45 69.5 110ZM57 129C56.099 129.582 55.975 129.975 56.691 129.985C57.346 129.993 58.16 129.55 58.5 129C59.267 127.758 58.921 127.758 57 129ZM36 134C36 135.253 37.061 135.253 39 134C40.213 133.216 40.069 133.028 38.25 133.015C37.012 133.007 36 133.45 36 134ZM1149.73 139.604C1149.4 139.936 1148.53 139.972 1147.81 139.683C1147.01 139.364 1147.25 139.127 1148.42 139.079C1149.47 139.036 1150.06 139.272 1149.73 139.604ZM1112.27 143.656C1111.59 143.93 1110.24 143.947 1109.27 143.693C1108.3 143.439 1108.85 143.215 1110.5 143.195C1112.15 143.175 1112.95 143.382 1112.27 143.656ZM1163.54 144.936C1162.79 146.147 1171.45 147.46 1173.17 146.396C1174.12 145.811 1173.79 145.393 1171.99 144.892C1168.27 143.857 1164.19 143.878 1163.54 144.936ZM186.98 170.951C183.43 173.031 150.662 175.879 149.622 174.198C148.803 172.871 154.434 171.948 168.934 171.03C186.258 169.934 188.734 169.924 186.98 170.951ZM125.423 172.193C142.248 171.947 146.407 172.54 140.919 174.401C136.862 175.777 99.171 176.341 91 175.148C85.712 174.376 85.635 174.322 89 173.748C90.925 173.419 94.75 172.719 97.5 172.192C100.25 171.665 104.3 171.498 106.5 171.822C108.7 172.146 117.215 172.313 125.423 172.193ZM139.5 182C136.709 183.199 133.759 183.199 134.5 182C134.84 181.45 136.554 181.032 138.309 181.07C140.999 181.13 141.186 181.276 139.5 182ZM1206.11 190.713C1206.84 191.436 1205.52 191.476 1201.83 190.845C1193.64 189.445 1192.97 189.059 1199.29 189.378C1202.47 189.539 1205.54 190.139 1206.11 190.713ZM0 192C0 192.55 1.688 192.993 3.75 192.985C6.539 192.973 7.116 192.721 6 192C4.029 190.726 0 190.726 0 192ZM1106 220.03C1107.05 220.728 1106.14 220.832 1103 220.375C1097.4 219.562 1096.6 218.995 1101.08 219.015C1102.96 219.024 1105.18 219.48 1106 220.03ZM1111.5 221C1111.84 221.55 1111.64 222 1111.06 222C1110.48 222 1110 221.55 1110 221C1110 220.45 1110.2 220 1110.44 220C1110.68 220 1111.16 220.45 1111.5 221ZM198 226.186C195.525 226.706 191.311 227.777 188.635 228.566C182.462 230.386 181.445 230.374 183 228.5C184.055 227.229 183.807 226.978 181.372 226.858C175.621 226.574 186.226 225.285 194.5 225.262C202.006 225.242 202.222 225.299 198 226.186ZM91 227C91 227.55 91.9 228 93 228C94.1 228 95 227.55 95 227C95 226.45 94.1 226 93 226C91.9 226 91 226.45 91 227ZM130.5 233C129.762 234.194 131.722 234.194 134.5 233C136.286 232.233 136.212 232.133 133.809 232.07C132.329 232.032 130.84 232.45 130.5 233ZM1096.5 234C1096.16 234.55 1096.36 235 1096.94 235C1097.52 235 1098 234.55 1098 234C1098 233.45 1097.8 233 1097.56 233C1097.32 233 1096.84 233.45 1096.5 234ZM142.51 259.016C142.856 259.575 143.557 259.774 144.069 259.457C145.456 258.6 145.198 258 143.441 258C142.584 258 142.165 258.457 142.51 259.016ZM102.712 268.112C103.502 268.902 104.649 268.925 106.663 268.191C109.468 267.169 109.456 267.157 105.55 267.079C102.65 267.021 101.896 267.296 102.712 268.112ZM75 275.5C78.272 277.37 80.045 277.348 77.559 275.468C76.491 274.661 74.916 274.016 74.059 274.035C73.06 274.058 73.398 274.584 75 275.5ZM142.25 296.706C141.012 296.944 138.988 296.944 137.75 296.706C136.512 296.467 137.525 296.272 140 296.272C142.475 296.272 143.488 296.467 142.25 296.706ZM1071 300C1071 300.55 1071.45 301 1072 301C1072.55 301 1073 300.55 1073 300C1073 299.45 1072.55 299 1072 299C1071.45 299 1071 299.45 1071 300ZM120.269 309.656C119.592 309.93 118.242 309.947 117.269 309.693C116.296 309.439 116.85 309.215 118.5 309.195C120.15 309.175 120.946 309.382 120.269 309.656ZM1019.27 309.693C1020.24 309.947 1021.59 309.93 1022.27 309.656C1022.95 309.382 1022.15 309.175 1020.5 309.195C1018.85 309.215 1018.3 309.439 1019.27 309.693ZM120 312.478C115.875 313.172 112.338 313.599 112.14 313.427C111.327 312.719 118.817 311.182 123 311.198C126.791 311.213 126.318 311.414 120 312.478ZM1056.5 314C1056.84 314.55 1059.23 314.993 1061.81 314.985C1065.21 314.974 1066.09 314.702 1065 314C1062.99 312.7 1055.7 312.7 1056.5 314ZM1087.5 314C1087.16 314.55 1087.61 315 1088.5 315C1089.39 315 1089.84 314.55 1089.5 314C1089.16 313.45 1088.71 313 1088.5 313C1088.29 313 1087.84 313.45 1087.5 314ZM1110.25 317.689C1111.21 317.941 1112.79 317.941 1113.75 317.689C1114.71 317.438 1113.92 317.232 1112 317.232C1110.08 317.232 1109.29 317.438 1110.25 317.689ZM1077.25 321.689C1078.21 321.941 1079.79 321.941 1080.75 321.689C1081.71 321.438 1080.92 321.232 1079 321.232C1077.08 321.232 1076.29 321.438 1077.25 321.689ZM392.5 351C392.876 351.608 391.43 351.994 388.809 351.985C385.658 351.973 384.903 351.709 386 351C387.963 349.731 391.716 349.731 392.5 351ZM355.5 353C352.696 354.205 346 354.205 346 353C346 352.441 348.536 352.031 351.75 352.07C355.887 352.121 356.939 352.382 355.5 353ZM75.917 365.359C74.739 366.375 69.893 366.981 70.475 366.04C70.829 365.468 72.291 365 73.726 365C75.16 365 76.146 365.162 75.917 365.359ZM64.917 367.372C64.688 367.576 62.25 368.018 59.5 368.352C56.134 368.762 55.154 368.664 56.5 368.051C58.401 367.185 65.794 366.589 64.917 367.372ZM110 368.614C104.018 369.366 96.999 369.44 96.999 368.75C97 368.337 100.488 368.067 104.75 368.15C109.012 368.232 111.375 368.441 110 368.614ZM1117 377C1117 377.55 1117.48 378 1118.06 378C1118.64 378 1118.84 377.55 1118.5 377C1118.16 376.45 1117.68 376 1117.44 376C1117.2 376 1117 376.45 1117 377ZM54.813 380.683C55.534 380.972 56.397 380.936 56.729 380.604C57.061 380.272 56.471 380.036 55.417 380.079C54.252 380.127 54.015 380.364 54.813 380.683ZM36.5 383C36.16 383.55 36.359 384 36.941 384C37.523 384 38 383.55 38 383C38 382.45 37.802 382 37.559 382C37.316 382 36.84 382.45 36.5 383ZM1084 386C1084 386.55 1084.9 387 1086 387C1087.1 387 1088 386.55 1088 386C1088 385.45 1087.1 385 1086 385C1084.9 385 1084 385.45 1084 386ZM1092.5 386C1092.16 386.55 1092.58 387 1093.44 387C1094.3 387 1095 386.55 1095 386C1095 385.45 1094.58 385 1094.06 385C1093.54 385 1092.84 385.45 1092.5 386ZM1102.5 409C1102.87 409.594 1101.7 410 1099.62 410C1097.69 410 1095.84 409.55 1095.5 409C1095.13 408.406 1096.3 408 1098.38 408C1100.31 408 1102.16 408.45 1102.5 409ZM337 418C336.175 418.533 334.825 418.945 334 418.914C333.011 418.878 333.181 418.567 334.5 418C337.249 416.819 338.828 416.819 337 418ZM934.5 418C935.292 419.282 930.983 419.282 929 418C927.859 417.262 928.263 417.027 930.691 417.015C932.446 417.007 934.16 417.45 934.5 418ZM967.5 420C967.84 420.55 971.354 421.053 975.309 421.118C979.264 421.183 983.85 421.618 985.5 422.084C987.76 422.723 987.143 422.823 983 422.491C979.763 422.232 978.058 422.401 978.857 422.901C979.802 423.493 979.878 423.957 979.107 424.434C978.498 424.81 977.443 424.774 976.761 424.353C976.08 423.931 973.268 423.496 970.511 423.385C959.751 422.95 952.202 420.504 960.642 420.187C962.644 420.112 964.519 419.814 964.808 419.525C965.635 418.699 966.826 418.909 967.5 420ZM96 426.5C96 428.183 96.183 428.251 98.418 427.393C100.653 426.536 100.384 425 98 425C96.889 425 96 425.667 96 426.5ZM107.5 426C105.834 426.716 106.052 426.871 108.809 426.93C110.775 426.971 111.867 426.594 111.5 426C110.78 424.834 110.213 424.834 107.5 426ZM281.843 425.49C280.823 426.511 262.456 427.886 258.077 427.27C254.124 426.713 253.841 426.528 256 425.912C258.802 425.113 282.609 424.724 281.843 425.49ZM233 429.902C232.175 430.365 229.889 431.032 227.921 431.385C221.978 432.45 195.611 434.944 195.151 434.484C194.239 433.573 200.072 432.109 204.671 432.096C207.327 432.088 213.325 431.433 218 430.64C227.777 428.981 235.301 428.611 233 429.902ZM1011 433.26C1012.8 435.114 1020.54 436.547 1021.39 435.183C1021.71 434.655 1019.91 433.913 1017.36 433.532C1014.82 433.151 1012.01 432.586 1011.12 432.278C1009.68 431.778 1009.66 431.885 1011 433.26ZM194 433.893C194 434.384 193.288 435.059 192.418 435.393C190.279 436.214 177.497 436.17 178.322 435.344C180.049 433.618 194 432.326 194 433.893ZM130 436.057C139.044 436.109 143.747 436.464 142.5 437C140.018 438.067 109.483 438.273 104.875 437.254C101.532 436.515 101.547 436.502 106.5 435.891C109.25 435.552 112.4 435.432 113.5 435.624C114.6 435.816 122.025 436.01 130 436.057ZM165.729 435.604C165.397 435.936 164.534 435.972 163.813 435.683C163.015 435.364 163.252 435.127 164.417 435.079C165.471 435.036 166.061 435.272 165.729 435.604ZM1023.43 435.882C1023.73 436.367 1025.89 436.758 1028.24 436.752C1031.74 436.742 1032.05 436.602 1030 435.97C1026.48 434.884 1022.78 434.835 1023.43 435.882ZM1040 439C1043.61 440.157 1046.21 440.157 1045.5 439C1045.16 438.45 1043.22 438.045 1041.19 438.1C1037.88 438.189 1037.75 438.281 1040 439ZM1047.88 440.644C1046.67 442.106 1046.76 442.21 1048.75 441.579C1050.58 441 1050.87 441.179 1050.34 442.55C1049.66 444.325 1051.05 444.15 1057 441.707L1059.5 440.681L1056.5 439.959C1051.48 438.751 1049.31 438.924 1047.88 440.644ZM1066.81 443.683C1067.53 443.972 1068.4 443.936 1068.73 443.604C1069.06 443.272 1068.47 443.036 1067.42 443.079C1066.25 443.127 1066.01 443.364 1066.81 443.683ZM132.5 446C132.16 446.55 132.584 447 133.441 447C134.298 447 135 446.55 135 446C135 445.45 134.577 445 134.059 445C133.541 445 132.84 445.45 132.5 446ZM1125.73 457.604C1125.4 457.936 1124.53 457.972 1123.81 457.683C1123.01 457.364 1123.25 457.127 1124.42 457.079C1125.47 457.036 1126.06 457.272 1125.73 457.604ZM1138.5 463C1138.16 463.55 1138.61 464 1139.5 464C1140.39 464 1140.84 463.55 1140.5 463C1140.16 462.45 1139.71 462 1139.5 462C1139.29 462 1138.84 462.45 1138.5 463ZM340.503 468.07C337.478 468.575 335.129 468.529 334.553 467.953C333.949 467.349 335.781 467.043 339.55 467.118L345.5 467.235L340.503 468.07ZM359.75 467.931C368.782 468.007 370.393 469.274 363.75 471.076C358.253 472.567 284.595 472.021 286.107 470.5C286.723 469.88 297.897 469.5 315.499 469.5C335.836 469.5 344.23 469.168 345.068 468.331C345.712 467.688 347.422 467.319 348.869 467.512C350.316 467.705 355.212 467.893 359.75 467.931ZM729.966 467.958C731.133 468.696 730.827 469.121 728.466 470.038C726.078 470.966 724.975 470.896 722.806 469.674C721.325 468.84 719.187 468.4 718.056 468.696C716.888 469.001 716 468.751 716 468.117C716 466.744 727.834 466.609 729.966 467.958ZM769 470.441C769 470.684 768.55 471.16 768 471.5C767.45 471.84 767 471.641 767 471.059C767 470.477 767.45 470 768 470C768.55 470 769 470.198 769 470.441ZM815 471C813.229 472.145 803.574 472.145 800 471C798.348 470.471 800.722 470.171 807 470.115C813.471 470.058 816.022 470.34 815 471ZM841.5 473.039C844.391 473.666 842.239 473.833 833.735 473.639C825.681 473.455 821.581 472.96 820.735 472.07C819.724 471.004 821.13 470.896 828.5 471.47C833.45 471.856 839.3 472.562 841.5 473.039ZM863 476C864.118 476.723 863.56 476.973 860.809 476.985C858.779 476.993 856.84 476.55 856.5 476C855.703 474.71 861.004 474.71 863 476ZM1116.14 476.574C1126.39 478.503 1128.47 480 1120.91 480C1115.46 480 1105.24 477.83 1102.13 476.011C1099.52 474.488 1106.56 474.771 1116.14 476.574ZM587 477C587 477.55 586.073 478 584.941 478C583.809 478 583.16 477.55 583.5 477C583.84 476.45 584.766 476 585.559 476C586.352 476 587 476.45 587 477ZM868.729 476.604C868.397 476.936 867.534 476.972 866.813 476.683C866.015 476.364 866.252 476.127 867.417 476.079C868.471 476.036 869.061 476.272 868.729 476.604ZM605 479C605 479.55 605.675 480 606.5 480C607.325 480 608 479.55 608 479C608 478.45 607.325 478 606.5 478C605.675 478 605 478.45 605 479ZM616.813 479.683C617.534 479.972 618.397 479.936 618.729 479.604C619.061 479.272 618.471 479.036 617.417 479.079C616.252 479.127 616.015 479.364 616.813 479.683ZM290.75 480.662C291.438 480.94 292.563 480.94 293.25 480.662C293.938 480.385 293.375 480.158 292 480.158C290.625 480.158 290.063 480.385 290.75 480.662ZM161 483C161 483.55 161.675 484 162.5 484C163.325 484 164 483.55 164 483C164 482.45 163.325 482 162.5 482C161.675 482 161 482.45 161 483ZM909.75 482.662C910.438 482.94 911.563 482.94 912.25 482.662C912.938 482.385 912.375 482.158 911 482.158C909.625 482.158 909.063 482.385 909.75 482.662ZM918.5 483C918.16 483.55 918.359 484 918.941 484C919.523 484 920 483.55 920 483C920 482.45 919.802 482 919.559 482C919.316 482 918.84 482.45 918.5 483ZM928 484.876C928 485.506 929.65 486.007 931.75 486.015C933.813 486.023 938.239 486.675 941.586 487.465C944.934 488.254 948.534 488.879 949.586 488.852C950.639 488.825 955.1 489.538 959.5 490.436C970.364 492.653 997.949 496.145 999.912 495.552C1000.78 495.289 1003.66 494.971 1006.31 494.847C1008.95 494.722 1011.28 494.352 1011.49 494.023C1011.88 493.38 985.222 490.466 965.187 488.963C958.414 488.455 952.339 487.704 951.687 487.293C950.584 486.599 946.468 485.947 933.25 484.376C929.661 483.95 928 484.108 928 484.876ZM219.5 487C217.995 487.647 218.676 487.877 222.25 487.93C224.863 487.968 227 487.55 227 487C227 485.799 222.295 485.799 219.5 487ZM231.8 487.2C232.733 488.133 233.267 488.133 234.2 487.2C235.133 486.267 234.867 486 233 486C231.133 486 230.867 486.267 231.8 487.2ZM736.762 486.707C738.006 486.946 739.806 486.937 740.762 486.687C741.718 486.437 740.7 486.241 738.5 486.252C736.3 486.263 735.518 486.468 736.762 486.707ZM1017.5 487C1017.85 487.567 1017.01 488 1015.56 488C1014.15 488 1013 487.55 1013 487C1013 486.45 1013.87 486 1014.94 486C1016.01 486 1017.16 486.45 1017.5 487ZM273.5 488C273.132 488.595 274.323 489 276.441 489C278.398 489 280 488.55 280 488C280 487.45 278.677 487 277.059 487C275.441 487 273.84 487.45 273.5 488ZM287 489.583C287 490.454 287.534 490.989 288.188 490.771C290.042 490.153 290.349 488 288.583 488C287.712 488 287 488.712 287 489.583ZM308.25 488.733C307.563 488.972 307 489.579 307 490.083C307 491.114 311.995 491.323 314.418 490.393C316.425 489.623 316.48 488 314.5 488C313.675 488 313 488.45 313 489C313 490.215 310.301 490.343 309.833 489.15C309.65 488.683 308.938 488.495 308.25 488.733ZM130 492C130 492.55 131.827 493 134.059 493C136.51 493 137.873 492.604 137.5 492C137.16 491.45 135.334 491 133.441 491C131.548 491 130 491.45 130 492ZM242.5 492C242.16 492.55 242.835 493 244 493C245.165 493 245.84 492.55 245.5 492C245.16 491.45 244.485 491 244 491C243.515 491 242.84 491.45 242.5 492ZM253.269 492.693C254.242 492.947 255.592 492.93 256.269 492.656C256.946 492.382 256.15 492.175 254.5 492.195C252.85 492.215 252.296 492.439 253.269 492.693ZM1154.63 495.958C1155.25 496.618 1157.73 497.375 1160.13 497.641C1165.54 498.239 1163.47 496.534 1157.5 495.47C1154.41 494.919 1153.76 495.03 1154.63 495.958ZM118.813 496.683C119.534 496.972 120.397 496.936 120.729 496.604C121.061 496.272 120.471 496.036 119.417 496.079C118.252 496.127 118.015 496.364 118.813 496.683ZM127.813 497.683C128.534 497.972 129.397 497.936 129.729 497.604C130.061 497.272 129.471 497.036 128.417 497.079C127.252 497.127 127.015 497.364 127.813 497.683ZM1007 498C1007 498.55 1007.7 499 1008.56 499C1009.42 499 1009.84 498.55 1009.5 498C1009.16 497.45 1008.46 497 1007.94 497C1007.42 497 1007 497.45 1007 498ZM1042 498C1042 498.55 1042.93 499 1044.06 499C1045.19 499 1045.84 498.55 1045.5 498C1045.16 497.45 1044.23 497 1043.44 497C1042.65 497 1042 497.45 1042 498ZM1013.88 499.279C1014.36 499.762 1016.05 499.995 1017.63 499.798C1020.27 499.468 1020.2 499.399 1016.75 498.921C1014.6 498.623 1013.38 498.776 1013.88 499.279ZM358.5 500C358.16 500.55 356.446 500.993 354.691 500.985C352.263 500.973 351.859 500.738 353 500C354.983 498.718 359.292 498.718 358.5 500ZM851.5 500C852.6 500.473 854.175 500.884 855 500.914C856.333 500.963 856.333 500.862 855 500C854.175 499.467 852.6 499.055 851.5 499.086L849.5 499.141L851.5 500ZM906.75 499.662C907.438 499.94 908.563 499.94 909.25 499.662C909.938 499.385 909.375 499.158 908 499.158C906.625 499.158 906.063 499.385 906.75 499.662ZM1049.75 499.662C1050.44 499.94 1051.56 499.94 1052.25 499.662C1052.94 499.385 1052.38 499.158 1051 499.158C1049.62 499.158 1049.06 499.385 1049.75 499.662ZM341.539 500.937C341.22 501.452 339.117 501.849 336.864 501.818C334.157 501.78 333.232 501.468 334.134 500.896C335.981 499.726 342.266 499.761 341.539 500.937ZM1024.5 501C1024.84 501.55 1025.32 502 1025.56 502C1025.8 502 1026 501.55 1026 501C1026 500.45 1025.52 500 1024.94 500C1024.36 500 1024.16 500.45 1024.5 501ZM1027.47 501.044C1027.15 501.57 1027.81 502 1028.94 502C1031.36 502 1031.6 501.444 1029.53 500.651C1028.72 500.341 1027.8 500.518 1027.47 501.044ZM1150 501C1150 501.55 1150.48 502 1151.06 502C1151.64 502 1151.84 501.55 1151.5 501C1151.16 500.45 1150.68 500 1150.44 500C1150.2 500 1150 500.45 1150 501ZM548.5 502.523C542.319 504.112 535.329 504.341 534.489 502.982C533.71 501.722 500.453 501.812 480 503.129C472.025 503.642 445.025 504.217 420 504.407C394.975 504.596 372.475 504.984 370 505.269C367.525 505.553 360.387 506.112 354.137 506.51C335.854 507.674 336.063 508.684 354.5 508.261C366.546 507.986 371.063 508.178 370 508.921C369.062 509.577 359.955 509.975 345.684 509.985C333.136 509.993 322.101 510.411 321.164 510.912C320.226 511.414 315.193 511.93 309.979 512.058C304.766 512.186 297.442 512.745 293.704 513.3C288.715 514.04 286.601 514.001 285.754 513.154C285.024 512.424 280.618 512 273.756 512C263.575 512 262.748 512.153 260.217 514.5C258.487 516.104 256.352 517 254.26 517C252.467 517 251 517.4 251 517.889C251 518.387 265.835 518.841 284.75 518.922C303.313 519.002 322.1 519.277 326.5 519.535C342.698 520.483 400.483 520.2 403 519.16C405.43 518.156 405.437 518.125 403.25 518.063C402.013 518.029 401 517.6 401 517.11C401 516.621 410.337 516.156 421.75 516.077C433.163 515.998 464.1 515.274 490.5 514.468C545.432 512.791 641.223 512.547 670 514.011C680.725 514.556 696.025 515.24 704 515.53C711.975 515.82 723.675 516.706 730 517.498C736.675 518.334 748.213 518.852 757.5 518.731C775.994 518.49 803.045 520.62 806.874 522.617C808.404 523.416 812.628 523.995 817 524.006C834.888 524.05 868.591 528.12 900 534.03C905.775 535.117 920.4 537.1 932.5 538.438C944.6 539.775 956.667 541.357 959.315 541.954C961.963 542.55 964.542 542.783 965.045 542.472C965.548 542.161 968.009 542.603 970.515 543.453C973.02 544.304 978.104 545 981.812 545C985.849 545 989.347 545.544 990.527 546.355C991.612 547.101 996.59 548.012 1001.59 548.379C1006.59 548.747 1012.05 549.441 1013.73 549.922C1015.41 550.403 1021.1 551.121 1026.39 551.517C1031.68 551.914 1036 552.629 1036 553.108C1036 553.586 1037.01 553.979 1038.25 553.981C1040.71 553.986 1055.09 555.577 1064.29 556.862C1068.95 557.513 1069.99 557.41 1069.57 556.335C1069.18 555.299 1070.79 554.972 1076.78 554.875C1084.01 554.758 1084.22 554.697 1080 553.912C1077.53 553.452 1069.13 552.622 1061.35 552.068C1052.98 551.472 1045.43 550.385 1042.85 549.407C1040.46 548.497 1036.59 547.538 1034.25 547.276C1031.91 547.013 1030 546.394 1030 545.899C1030 544.781 1037.48 544.721 1041.51 545.808C1043.15 546.252 1045.85 546.346 1047.5 546.016C1050.44 545.43 1050.45 545.392 1048.32 544.209C1047.11 543.544 1044.53 543 1042.57 543C1038.72 543 1037.53 541.077 1041.25 540.882C1047.72 540.541 1036.14 539.213 1025 539.019C1007.11 538.707 1004.32 537.212 1021.5 537.143C1035.99 537.085 1044.18 538.042 1044.79 539.867C1044.98 540.447 1046.35 540.69 1047.82 540.407C1049.29 540.124 1057.7 541.071 1066.5 542.511C1081.18 544.913 1083.93 545.072 1099.75 544.432C1109.24 544.048 1117 543.429 1117 543.057C1117 542.685 1112.16 541.778 1106.25 541.041C1100.34 540.304 1094.47 539.324 1093.21 538.861C1091.96 538.399 1085.66 537.556 1079.21 536.987C1072.77 536.419 1065.63 535.266 1063.33 534.426C1058.32 532.588 1035.17 531.684 1033.23 533.25C1031.45 534.691 1002.72 533.662 1002.21 532.139C1002 531.512 1001.39 531 1000.86 531C1000.32 531 1000.16 531.45 1000.5 532C1000.84 532.55 1000.68 533 1000.14 533C999.606 533 999.017 532.591 998.833 532.09C998.65 531.59 993.775 530.705 988 530.124C982.225 529.543 969.625 528.193 960 527.125C950.375 526.057 936.875 524.652 930 524.003C923.125 523.354 912.325 522.2 906 521.439C889.994 519.513 848.564 515.194 830 513.516C821.475 512.746 799.2 510.733 780.5 509.044C744.123 505.758 732.228 504.638 715.25 502.899C703.222 501.667 663.261 502.275 658.5 503.762C654.834 504.907 603.648 504.533 601.813 503.348C600.957 502.795 602.24 502.294 605.5 501.907C608.25 501.581 603.075 501.275 594 501.227C583.042 501.17 578.172 501.455 579.5 502.078C580.996 502.779 580.619 502.868 578 502.43C568.149 500.782 563.875 500.803 561.993 502.506C560.961 503.441 559.527 503.985 558.808 503.717C557.982 503.408 558.421 502.841 560 502.177C562.246 501.234 562.042 501.132 558 501.182C555.525 501.213 551.25 501.816 548.5 502.523ZM864.813 501.683C865.534 501.972 866.397 501.936 866.729 501.604C867.061 501.272 866.471 501.036 865.417 501.079C864.252 501.127 864.015 501.364 864.813 501.683ZM1034.5 503C1037.28 504.194 1040 504.194 1040 503C1040 502.45 1038.31 502.032 1036.25 502.07C1033.24 502.127 1032.9 502.311 1034.5 503ZM1072 504.031C1072 504.564 1072.68 505 1073.5 505C1074.32 505 1075 504.823 1075 504.607C1075 504.391 1074.32 503.955 1073.5 503.638C1072.68 503.322 1072 503.499 1072 504.031ZM167.75 505.662C168.438 505.94 169.563 505.94 170.25 505.662C170.938 505.385 170.375 505.158 169 505.158C167.625 505.158 167.063 505.385 167.75 505.662ZM175.762 505.707C177.006 505.946 178.806 505.937 179.762 505.687C180.718 505.437 179.7 505.241 177.5 505.252C175.3 505.263 174.518 505.468 175.762 505.707ZM1082.44 505.906C1083.43 507.504 1092.22 510.004 1096.43 509.883C1100.42 509.768 1100.4 509.75 1095.2 508.885C1092.29 508.4 1088.6 507.327 1087 506.501C1083.75 504.818 1081.6 504.537 1082.44 505.906ZM996.569 507.888C996.267 508.376 997.294 508.963 998.85 509.191C1002.27 509.694 1004.21 509.155 1003.45 507.915C1002.72 506.741 997.291 506.72 996.569 507.888ZM1017 509.933C1017 510.815 1025.62 512.026 1031 511.901L1034.5 511.82L1031.5 511.013C1026.93 509.782 1017 509.043 1017 509.933ZM1205.5 510C1205.16 510.55 1205.36 511 1205.94 511C1206.52 511 1207 510.55 1207 510C1207 509.45 1206.8 509 1206.56 509C1206.32 509 1205.84 509.45 1205.5 510ZM237 512C237 513.253 238.061 513.253 240 512C241.213 511.216 241.069 511.028 239.25 511.015C238.012 511.007 237 511.45 237 512ZM929.729 511.604C929.397 511.936 928.534 511.972 927.813 511.683C927.015 511.364 927.252 511.127 928.417 511.079C929.471 511.036 930.061 511.272 929.729 511.604ZM1087.27 511.693C1088.24 511.947 1089.59 511.93 1090.27 511.656C1090.95 511.382 1090.15 511.175 1088.5 511.195C1086.85 511.215 1086.3 511.439 1087.27 511.693ZM862.5 514C862.148 514.569 863.009 515 864.5 515C865.991 515 866.852 514.569 866.5 514C866.16 513.45 865.26 513 864.5 513C863.74 513 862.84 513.45 862.5 514ZM937.75 514.367C933.487 514.846 930 515.577 930 515.991C930 516.404 934.388 517.283 939.75 517.944C945.112 518.604 952.2 519.754 955.5 520.498C965.317 522.713 970 523.261 970 522.195C970 521.114 967.472 519.83 964.75 519.528C960.436 519.05 962.21 518 967.333 518C970.45 518 973 517.55 973 517C973 516.45 974.688 515.947 976.75 515.882C978.813 515.817 981.85 515.441 983.5 515.048L986.5 514.333L982.671 513.54C980.565 513.104 973.59 513.192 967.171 513.735C960.752 514.279 953.25 514.447 950.5 514.11C947.75 513.772 942.013 513.888 937.75 514.367ZM1044 513.963C1044 515.387 1046.99 516.024 1056.39 516.602C1062.98 517.008 1065.09 516.868 1064 516.097C1063.18 515.51 1059.8 515.024 1056.49 515.015C1053.19 515.007 1049.03 514.581 1047.24 514.07C1045.46 513.558 1044 513.51 1044 513.963ZM195.473 515.044C195.148 515.57 195.809 516 196.941 516C199.356 516 199.599 515.444 197.532 514.651C196.725 514.341 195.798 514.518 195.473 515.044ZM203.01 514.892C199.272 515.933 202.236 517.313 208.69 517.539C214.429 517.739 214.938 517.432 212.25 515.392C210.368 513.964 207.001 513.782 203.01 514.892ZM186 516C187.983 517.282 192.292 517.282 191.5 516C191.16 515.45 189.446 515.007 187.691 515.015C185.263 515.027 184.859 515.262 186 516ZM872.75 515.662C873.438 515.94 874.563 515.94 875.25 515.662C875.938 515.385 875.375 515.158 874 515.158C872.625 515.158 872.063 515.385 872.75 515.662ZM882.5 517C885.252 518.183 886.231 518.183 885.5 517C885.16 516.45 883.896 516.032 882.691 516.07C880.579 516.138 880.572 516.171 882.5 517ZM1176 517C1176 517.55 1176.45 518 1177 518C1177.55 518 1178 517.55 1178 517C1178 516.45 1177.55 516 1177 516C1176.45 516 1176 516.45 1176 517ZM230.5 519C228.929 519.675 229.357 519.871 232.5 519.914C234.7 519.945 237.175 519.533 238 519C239.941 517.746 233.419 517.746 230.5 519ZM895.083 518.367C895.313 518.569 897.232 519.048 899.348 519.431C901.969 519.905 902.987 519.788 902.539 519.064C902.178 518.479 900.259 518 898.274 518C896.29 518 894.854 518.165 895.083 518.367ZM961 519C961 519.55 960.127 520 959.059 520C957.991 520 956.84 519.55 956.5 519C956.149 518.433 956.99 518 958.441 518C959.848 518 961 518.45 961 519ZM977.25 519.119C975.463 519.635 974 520.269 974 520.529C974 520.788 976.813 520.986 980.25 520.968C985.963 520.939 986.333 520.81 984.559 519.468C982.38 517.82 981.837 517.794 977.25 519.119ZM1076 519.002C1077.38 519.467 1081.08 520.138 1084.23 520.493C1087.39 520.849 1090.27 521.623 1090.63 522.214C1091.1 522.976 1083.76 523.101 1065.4 522.642C1027.44 521.694 992.756 521.159 998.5 521.61C1006.72 522.256 1010 523.022 1010 524.3C1010 525.761 989.929 525.517 983.307 523.976C978.69 522.901 971.318 522.651 972.268 523.601C974.141 525.474 1001.02 527.507 1035.35 528.372C1047.92 528.688 1059.73 529.234 1061.6 529.585C1063.47 529.936 1066.69 529.897 1068.75 529.498C1072.29 528.816 1072.36 528.723 1070.12 527.87C1068.81 527.373 1065.54 527.257 1062.87 527.612C1059.32 528.082 1058 527.922 1058 527.022C1058 526.278 1058.67 526.041 1059.67 526.427C1060.59 526.779 1061.6 526.641 1061.93 526.119C1062.63 524.977 1109.4 524.173 1113 525.241C1114.38 525.648 1114.94 525.723 1114.25 525.407C1110.88 523.859 1114.24 523.155 1127.75 522.584C1149.79 521.651 1157 520.956 1157 519.759C1157 518.457 1131.55 519.346 1119.5 521.069C1110.58 522.344 1097.9 521.721 1087.37 519.491C1083.59 518.69 1078.92 518.062 1077 518.096C1073.76 518.153 1073.69 518.221 1076 519.002ZM988 521C988 521.55 988.45 522 989 522C989.55 522 990 521.55 990 521C990 520.45 989.55 520 989 520C988.45 520 988 520.45 988 521ZM1034 523.941C1034 524.459 1035.91 525.311 1038.25 525.834L1042.5 526.786L1037.91 526.893C1035.38 526.952 1028.52 526.707 1022.66 526.348C1014.71 525.862 1012 525.354 1012 524.348C1012 523.299 1014.44 523 1023 523C1029.21 523 1034 523.41 1034 523.941ZM317.523 526.963C317.184 527.511 318.192 527.834 319.867 527.713C321.483 527.596 322.597 527.163 322.344 526.75C321.68 525.673 318.226 525.825 317.523 526.963ZM1118.75 526.662C1119.44 526.94 1120.56 526.94 1121.25 526.662C1121.94 526.385 1121.38 526.158 1120 526.158C1118.62 526.158 1118.06 526.385 1118.75 526.662ZM222 528.916C222.825 529.386 225.075 530.041 227 530.373L230.5 530.975L227.5 529.533C224.177 527.935 219.324 527.39 222 528.916ZM868.388 546.955C869.976 547.475 878.076 548.604 886.388 549.464C894.699 550.324 903.075 551.272 905 551.571C907.745 551.998 908.135 551.883 906.809 551.041C904.831 549.784 887.405 547.373 874.5 546.57C868.157 546.175 866.352 546.289 868.388 546.955ZM974.813 547.683C975.534 547.972 976.397 547.936 976.729 547.604C977.061 547.272 976.471 547.036 975.417 547.079C974.252 547.127 974.015 547.364 974.813 547.683ZM981 549C981 549.55 981.45 550 982 550C982.55 550 983 549.55 983 549C983 548.45 982.55 548 982 548C981.45 548 981 548.45 981 549ZM992.5 551C992.84 551.55 993.568 552 994.118 552C994.668 552 994.84 551.55 994.5 551C994.16 550.45 993.432 550 992.882 550C992.332 550 992.16 550.45 992.5 551ZM917.246 553.989C920.532 556.071 943 559.588 943 558.02C943 556.437 933.47 554.137 924.242 553.493C917.66 553.033 915.931 553.156 917.246 553.989ZM959.264 559.718C960.784 559.947 963.034 559.941 964.264 559.704C965.494 559.467 964.25 559.279 961.5 559.286C958.75 559.294 957.744 559.488 959.264 559.718ZM971 561C972.976 562.277 976.289 562.277 975.5 561C975.16 560.45 973.671 560.007 972.191 560.015C970.086 560.027 969.827 560.242 971 561Z" fill="#893935"/>
</svg>
