<svg width="1648" height="404" viewBox="0 0 1648 404" fill="none" xmlns="http://www.w3.org/2000/svg">
<path fill-rule="evenodd" clip-rule="evenodd" d="M593.157 0.593476C577.807 1.18638 569.086 2.25066 568.66 3.58561C568.216 4.97948 571.821 5.65708 579.692 5.65708C591.615 5.65708 594.148 6.4065 592.361 9.40231C591.809 10.3303 567.55 12.0593 538.454 13.2414C509.361 14.4254 473.566 16.2115 458.912 17.2113C444.259 18.2111 417.483 19.8867 399.411 20.9326C381.339 21.9803 353.364 24.0002 337.245 25.4236C276.135 30.8204 267.975 30.8849 267.975 25.976C267.975 24.9632 269.081 24.5766 270.435 25.1142C271.786 25.6537 277.033 24.8343 282.095 23.2968C289.307 21.1057 292.353 20.9547 296.182 22.599C299.663 24.0941 302.471 24.1438 305.951 22.7721C308.637 21.7133 314.018 20.8479 317.912 20.8479C324.214 20.8479 336.823 16.1139 335.148 14.3775C334.478 13.6834 272.863 19.5166 247.549 22.6726C239.734 23.6467 228.144 24.9909 221.795 25.6611C215.445 26.3295 208.651 27.7841 206.697 28.8926C204.743 29.9992 197.95 31.336 191.6 31.8608C181.673 32.682 180.096 33.3025 180.341 36.2781C180.604 39.4746 179.641 39.6458 167.73 38.5282C157.092 37.5283 151.602 38.1544 136.363 42.1003C106.704 49.7823 98.0847 53.5698 91.9303 61.6237C85.8416 69.5929 82.0353 70.6038 79.9643 64.8C78.6322 61.0695 78.1242 61.2831 69.5826 69.1473C64.6449 73.6935 58.5064 77.9599 55.9434 78.6283C52.9115 79.4163 51.2828 81.0919 51.2828 83.423C51.2828 85.3932 49.6221 87.9269 47.5919 89.0538C45.1195 90.4255 44.2936 92.1159 45.0875 94.1818C45.7376 95.8758 46.6346 99.2381 47.0786 101.654C47.5226 104.068 49.0306 108.338 50.4284 111.14C52.622 115.539 52.6256 116.375 50.448 117.241C49.0608 117.793 47.393 121.198 46.7394 124.805C46.0857 128.414 44.8424 131.822 43.9774 132.376C41.4357 134.004 42.1657 141.205 45.3504 145.917C48.0963 149.983 48.0963 150.434 45.3504 152.515C41.4677 155.457 41.624 156.917 46.3983 162.266C50.2579 166.59 50.281 166.814 47.0484 168.829C39.6009 173.472 33.8639 179.423 31.7592 184.688C30.5372 187.746 28.436 190.249 27.0896 190.249C25.7415 190.249 24.6403 191.792 24.6403 193.675C24.6403 196.321 23.6457 196.907 20.2816 196.24C16.0259 195.397 15.9336 195.629 16.2852 206.161C16.5481 213.963 16.033 216.821 14.4274 216.487C13.2071 216.235 12.2072 216.546 12.2072 217.181C12.2072 220.91 28.3898 247.802 35.1499 255.309L43.1657 264.209L38.7875 267.779C36.379 269.744 32.157 272.782 29.4058 274.531C22.2389 279.086 14.5339 294.202 10.7951 311.04C7.94792 323.867 7.10602 325.568 3.66914 325.439C-1.37161 325.25 -1.24551 327.016 4.21442 333.125C6.65665 335.856 8.66726 339.835 8.68147 341.965C8.7241 348.458 13.9123 361.787 18.7292 367.786C24.8446 375.4 31.6881 378.775 48.6185 382.522C56.4337 384.251 66.0249 386.586 69.9325 387.713C73.8401 388.838 82.6321 389.933 89.4703 390.149C96.3085 390.364 108.132 392.31 115.745 394.474C142.462 402.069 154.961 403.611 192.82 403.977C234.824 404.382 359.424 399.372 423.389 394.702C435.112 393.848 446.501 393.104 448.7 393.052C458.964 392.808 462.618 392.259 464.507 390.675C465.779 389.611 469.637 389.769 474.727 391.099C480.887 392.706 483.509 392.712 485.363 391.117C486.832 389.852 490.583 389.44 494.681 390.092C498.453 390.69 516.931 389.913 535.74 388.366C554.55 386.818 571.216 386.057 572.775 386.678C574.335 387.298 576.196 386.821 576.912 385.619C577.892 383.975 580.319 383.923 586.709 385.407C591.381 386.492 596.729 386.879 598.59 386.265C600.453 385.652 607.164 385.12 613.499 385.083C619.837 385.045 625.423 384.339 625.915 383.514C626.407 382.691 629.385 382.783 632.536 383.719C636.161 384.798 640.238 384.748 643.634 383.586C646.983 382.441 651.115 382.378 654.621 383.421C657.711 384.339 660.63 384.687 661.106 384.194C661.582 383.7 693.412 382.574 731.841 381.692C862.796 378.681 952.627 376.157 995.314 374.288C1018.76 373.262 1044.34 372.207 1052.15 371.947C1070.65 371.329 1103.11 367.086 1105.64 364.954C1106.9 363.903 1108.45 364.315 1109.86 366.072C1112.84 369.799 1116.65 369.579 1125.44 365.173C1133.43 361.174 1143.62 360.255 1143.62 363.536C1143.62 364.842 1145.71 365.188 1149.4 364.492C1160.21 362.446 1194.07 362.803 1194.77 364.971C1195.13 366.096 1197.94 367.014 1201 367.014C1206.47 367.014 1206.51 366.961 1202.77 364.249C1199.2 361.654 1199.13 361.139 1201.62 355.963C1203.61 351.824 1205.46 350.472 1209.03 350.559C1213.7 350.675 1213.71 350.708 1209.72 352.365C1205.87 353.971 1205.8 354.324 1208.32 359.391C1209.79 362.326 1212.27 365.238 1213.84 365.864C1217.57 367.346 1232.68 363.396 1231.41 361.271C1230.88 360.371 1228.49 360.143 1226.11 360.763C1223.47 361.45 1221.78 361.093 1221.78 359.848C1221.78 358.727 1223.28 357.808 1225.13 357.808C1227.23 357.808 1228.39 356.607 1228.24 354.586C1228.05 352.083 1229.98 351.039 1236.87 349.912C1241.76 349.115 1250.29 347.353 1255.84 345.998C1265.38 343.667 1265.91 343.718 1265.67 346.988C1265.49 349.483 1264.5 350.139 1262.1 349.349C1259.39 348.456 1258.88 349.084 1259.35 352.776C1259.66 355.261 1258.83 358.655 1257.5 360.314C1256.17 361.973 1255.84 363.332 1256.75 363.332C1258.6 363.332 1277.23 360.067 1283.5 358.644C1289.03 357.388 1288.68 352.284 1283.05 352.284C1274.61 352.284 1278.65 349.52 1287.67 349.126C1296.22 348.752 1296.84 349.034 1298.72 354.19C1301.21 361.043 1305.49 361.218 1321.24 355.112C1334.42 349.999 1333.52 349.047 1319.57 353.345C1313.27 355.283 1309.55 355.633 1308.36 354.398C1307.17 353.164 1309.01 351.873 1313.91 350.505C1319.24 349.017 1321.24 347.504 1321.24 344.956C1321.24 340.918 1324.16 338.342 1325.17 341.488C1325.67 343.044 1326.98 342.976 1330.12 341.236C1333.24 339.505 1334.57 339.433 1335.07 340.973C1336.02 343.919 1339 343.608 1339 340.562C1339 337.259 1377.81 333.05 1424.26 331.313C1430.61 331.076 1438.2 329.599 1441.13 328.028C1444.1 326.437 1456.28 324.178 1468.66 322.922C1480.87 321.683 1491.26 320.234 1491.75 319.698C1492.24 319.164 1487.05 319.24 1480.21 319.868C1473.37 320.496 1459.78 321.39 1450.01 321.858C1440.24 322.326 1422.46 323.261 1410.49 323.935C1396 324.753 1388.73 324.53 1388.73 323.269C1388.73 320.529 1394.46 318.663 1395.82 320.96C1396.62 322.293 1400.85 322.359 1409.29 321.173C1416.06 320.223 1428.39 318.813 1436.69 318.039C1444.99 317.268 1450.39 316.308 1448.68 315.911C1440.42 313.99 1449.58 308.194 1461.23 307.964C1464.83 307.892 1469.37 307.048 1471.33 306.087C1473.87 304.837 1472.4 304.616 1466.13 305.307C1458 306.201 1447.35 303.456 1447.35 300.468C1447.35 298.45 1469.07 295.203 1482.57 295.203C1490.94 295.203 1495.3 294.482 1495.3 293.099C1495.3 291.611 1491.14 291.291 1481.09 292.005C1473.28 292.559 1466.89 292.36 1466.89 291.561C1466.89 289.562 1473.54 287.893 1481.64 287.864C1486.26 287.845 1488.01 287.17 1487.16 285.735C1486.26 284.236 1479.86 283.988 1464.85 284.866C1453.27 285.546 1443.8 285.675 1443.8 285.153C1443.8 284.631 1446.71 282.942 1450.28 281.397C1455.37 279.193 1457.94 279.024 1462.27 280.613C1466.06 282.005 1470.53 282.075 1476.65 280.839C1483.99 279.355 1484.53 279.007 1479.76 278.838C1472.5 278.578 1472.09 274.949 1479.32 274.949C1488.7 274.949 1485.02 271.786 1474.15 270.511C1467.85 269.771 1463.29 268.28 1462.73 266.772C1461.38 263.113 1463.12 262.06 1470.51 262.06C1480.75 262.06 1488.93 259.994 1486.12 258.117C1484.16 256.806 1484.18 256.256 1486.19 254.91C1488.16 253.593 1488 252.918 1485.33 251.371C1482.29 249.607 1482.38 249.382 1486.45 248.489C1488.88 247.955 1497.49 247.197 1505.58 246.804C1513.68 246.41 1521.24 245.116 1522.39 243.926C1523.98 242.271 1516.99 241.973 1492.57 242.649C1458.66 243.588 1454.72 242.798 1483.41 240.811C1501.95 239.528 1505.39 236.861 1492.5 233.75C1488.67 232.825 1485.14 231.477 1484.65 230.757C1484.16 230.037 1480.56 228.877 1476.65 228.181C1472.75 227.485 1465.95 225.732 1461.56 224.285C1457.16 222.838 1449.57 221.01 1444.68 220.221C1435.97 218.817 1436.07 218.778 1450.01 218.242C1467.15 217.585 1472.76 214.186 1456.71 214.186C1448.45 214.186 1444.3 213.182 1439.55 210.043C1436.11 207.763 1433.26 205.353 1433.21 204.686C1433.17 204.018 1448.33 203.604 1466.91 203.766C1493.13 203.992 1500.48 203.548 1499.83 201.775C1498.9 199.271 1506.29 196.645 1510.06 198.142C1512.49 199.109 1528.08 195.548 1529.97 193.596C1530.56 192.976 1521.61 191.946 1510.07 191.309C1467.52 188.958 1461.73 188.242 1462.76 185.465C1463.44 183.62 1462.27 182.889 1458.64 182.902C1448.23 182.937 1418.93 178.411 1418.93 176.766C1418.93 175.826 1421.33 175.555 1424.26 176.163C1427.26 176.785 1429.59 176.485 1429.59 175.472C1429.59 174.485 1425.64 173.677 1420.81 173.677C1415.98 173.677 1411.5 172.776 1410.84 171.677C1410.06 170.366 1411.71 169.795 1415.62 170.022C1418.91 170.211 1427.54 170.283 1434.81 170.18C1446.02 170.022 1447.55 169.637 1444.91 167.634C1442.23 165.599 1442.81 165.372 1449.1 165.993C1460.21 167.092 1475.77 164.63 1475.77 161.773C1475.77 158.094 1477.95 157.805 1508.31 157.468C1523.77 157.296 1537.16 156.681 1538.06 156.101C1542.6 153.194 1537.77 152.012 1517.06 150.968C1468.89 148.537 1433.77 145.947 1427.81 144.383C1422.19 142.908 1422.79 142.697 1434.03 142.174C1440.86 141.857 1449.06 141.658 1452.23 141.736C1455.41 141.811 1458 141.365 1458 140.743C1458 140.121 1467.4 139.837 1478.87 140.113C1502.23 140.673 1507.74 139.867 1507.74 135.895C1507.74 132.343 1511.11 132.369 1512.42 135.93C1512.99 137.449 1515.56 138.679 1518.14 138.664C1521.73 138.642 1522.22 138.232 1520.22 136.922C1518.79 135.98 1517.99 134.853 1518.45 134.418C1519.17 133.73 1552.99 131.468 1564.13 131.363C1566.33 131.343 1568.13 130.498 1568.13 129.485C1568.13 128.473 1566.53 127.644 1564.57 127.644C1562.62 127.644 1561.02 126.467 1561.02 125.029C1561.02 123.144 1564.37 122.085 1573.01 121.234C1588.02 119.761 1591.86 118.929 1585 118.64C1576.03 118.264 1566.43 114.832 1567.36 112.332C1568.68 108.752 1542.71 107.191 1526.99 109.903C1520 111.107 1518.43 110.818 1516.94 108.049C1515.57 105.515 1512.33 104.6 1502.74 104.038C1491.79 103.398 1490.21 103.718 1489.44 106.73C1488.68 109.734 1488.41 109.621 1487.24 105.812C1486.08 102.026 1485.11 101.606 1479.62 102.528C1476.16 103.11 1472.47 102.853 1471.43 101.956C1470.39 101.059 1466.74 99.9101 1463.33 99.4019C1459.91 98.8937 1463.91 98.8274 1472.21 99.2509C1529.56 102.188 1545.92 102.319 1543.64 99.8236C1542.39 98.4481 1537.99 97.1666 1533.88 96.9769C1529.76 96.7854 1520.79 95.6604 1513.95 94.4764C1507.12 93.2925 1497.13 91.9244 1491.77 91.4383C1479.27 90.304 1478.04 89.0243 1489.24 88.8089L1497.97 88.6413L1489.09 86.2181C1484.2 84.8869 1473.21 82.8044 1464.67 81.5928C1452.75 79.9043 1449.12 78.7258 1449.12 76.5439C1449.12 74.06 1452.21 73.8501 1473.55 74.8849C1486.98 75.5367 1506.76 76.4905 1517.51 77.0061C1528.25 77.5198 1535.85 77.4498 1534.38 76.8496C1532.91 76.2474 1528.92 74.4153 1525.5 72.7729C1521.84 71.0163 1513.85 69.6519 1506.07 69.453C1498.8 69.267 1484.78 68.5434 1474.9 67.8455C1459.05 66.726 1456.75 66.1257 1455.26 62.7267C1453.52 58.7844 1452.67 58.4751 1437.9 56.4589C1426.83 54.9471 1430.54 52.2165 1443.71 52.1778C1454.72 52.1465 1454.18 49.2317 1442.91 47.8323C1439 47.3481 1446.86 47.2247 1460.38 47.5616C1473.9 47.8968 1484.65 47.8581 1484.28 47.4751C1481.79 44.8862 1456.25 40.2498 1418.93 35.6079C1351.28 27.1949 1338.78 26.1177 1227.1 19.071C1210.98 18.0546 1188.61 16.3772 1177.37 15.3442C1166.14 14.3112 1154.04 13.9761 1150.49 14.6022C1146.64 15.2779 1139.11 14.4567 1131.84 12.5694C1123.17 10.3138 1116.84 9.77794 1109.88 10.7078C1088.06 13.6318 1076.13 13.7276 1076.13 10.984C1076.13 7.72672 1067.53 6.2463 1055.69 7.46525C1050.8 7.96793 1043.96 7.56652 1040.48 6.57037C1036.36 5.39193 1024.63 5.37904 1006.78 6.53723C985.852 7.89612 978.581 7.78564 975.936 6.07322C973.322 4.38105 940.095 3.68135 840.026 3.21182C725.641 2.67416 661.006 1.73141 625.872 0.0889563C620.987 -0.139366 606.265 0.087115 593.157 0.593476ZM546.245 3.50459C546.982 5.49321 548.511 6.03087 551.074 5.20596C553.138 4.54125 557.223 3.31493 560.154 2.48266C564.674 1.19927 563.941 0.941483 555.324 0.781289C546.754 0.622937 545.335 1.04828 546.245 3.50459ZM628.98 5.30355C631.666 5.91302 633.865 7.11724 633.865 7.98082C633.865 10.1333 629.712 11.2013 615.659 12.6633C605.934 13.676 603.67 13.4201 603.67 11.3025C603.67 9.86816 604.501 7.83351 605.515 6.78212C607.647 4.57255 621.808 3.68136 628.98 5.30355ZM663.148 7.92005C664.923 10.8956 660.64 17.1653 656.836 17.1653C652.419 17.1653 650.502 12.5031 653.422 8.85544C655.907 5.75283 661.534 5.21149 663.148 7.92005ZM249.943 31.0027C250.288 31.3581 250.043 32.5347 249.398 33.6137C247.956 36.035 225.347 36.2505 225.347 33.8457C225.347 30.1539 246.739 27.681 249.943 31.0027ZM261.758 30.0545C262.362 31.0672 261.163 31.8958 259.094 31.8958C257.025 31.8958 255.826 31.0672 256.43 30.0545C257.034 29.0417 258.233 28.2131 259.094 28.2131C259.955 28.2131 261.154 29.0417 261.758 30.0545ZM1243.98 31.8958C1243.37 32.9085 1241.73 33.7371 1240.32 33.7371C1238.91 33.7371 1237.76 32.9085 1237.76 31.8958C1237.76 30.883 1239.41 30.0545 1241.42 30.0545C1243.43 30.0545 1244.58 30.883 1243.98 31.8958ZM204.237 36.5451C204.154 38.8872 197.498 39.9294 193.69 38.1967C191.335 37.1251 191.825 36.5653 196.04 35.5195C202.447 33.9286 204.321 34.1624 204.237 36.5451ZM1296.62 35.3814C1294.42 36.8286 1287.49 36.1179 1287.49 34.4423C1287.49 34.0556 1290.09 33.75 1293.27 33.7647C1297.19 33.785 1298.26 34.3024 1296.62 35.3814ZM1343.44 37.4197C1344.05 38.4324 1343.25 39.261 1341.67 39.261C1340.09 39.261 1339.29 38.4324 1339.89 37.4197C1340.49 36.407 1341.29 35.5784 1341.67 35.5784C1342.04 35.5784 1342.84 36.407 1343.44 37.4197ZM1327.86 38.5319C1327.27 39.1432 1325.74 39.2095 1324.46 38.6773C1323.04 38.0899 1323.46 37.6536 1325.53 37.5652C1327.41 37.486 1328.45 37.9205 1327.86 38.5319ZM1354.99 44.5879C1354.99 45.492 1353.83 46.6907 1352.43 47.2505C1348.78 48.7014 1337.1 46.4753 1338.25 44.5493C1339.52 42.4299 1354.99 42.4649 1354.99 44.5879ZM1343.85 53.2623C1343.26 53.8737 1341.73 53.94 1340.45 53.4078C1339.03 52.8204 1339.45 52.384 1341.52 52.2957C1343.39 52.2165 1344.44 52.651 1343.85 53.2623ZM1422 53.2623C1421.41 53.8737 1419.88 53.94 1418.6 53.4078C1417.18 52.8204 1417.6 52.384 1419.67 52.2957C1421.54 52.2165 1422.59 52.651 1422 53.2623ZM1522.95 68.9117C1523.73 70.2245 1527.64 70.5486 1534.01 69.8286C1547.9 68.258 1547.75 66.8807 1533.68 66.8807C1525.43 66.8807 1522.11 67.5086 1522.95 68.9117ZM1523.39 106.806C1524.67 107.338 1526.2 107.272 1526.79 106.66C1527.38 106.049 1526.34 105.615 1524.46 105.694C1522.39 105.782 1521.97 106.218 1523.39 106.806ZM1609.68 110.152C1606.06 112.996 1607.75 113.516 1613.3 111.26C1615.28 110.455 1615.96 109.367 1614.9 108.688C1613.88 108.038 1611.54 108.697 1609.68 110.152ZM1571.68 111.072C1571.68 112.085 1572.48 112.913 1573.46 112.913C1574.43 112.913 1575.23 112.085 1575.23 111.072C1575.23 110.059 1574.43 109.231 1573.46 109.231C1572.48 109.231 1571.68 110.059 1571.68 111.072ZM1581.56 112.729C1581.01 113.641 1583.76 114.261 1587.66 114.11C1591.56 113.958 1594.75 113.214 1594.76 112.453C1594.77 110.485 1582.75 110.737 1581.56 112.729ZM1449.92 120.253C1453.15 120.27 1454.52 120.929 1453.48 121.973C1451.27 124.19 1434.66 122.199 1436.04 119.883C1436.62 118.911 1438.8 118.592 1440.89 119.172C1442.97 119.754 1447.04 120.24 1449.92 120.253ZM1487.17 123.238C1488.71 123.853 1489.98 125.022 1489.98 125.838C1489.98 128.093 1484.05 126.701 1483.26 124.261C1482.48 121.831 1483.17 121.651 1487.17 123.238ZM1546.19 127.968C1543.33 129.625 1537.93 128.169 1537.93 125.74C1537.93 123.37 1543.9 122.582 1546.48 124.613C1548.38 126.108 1548.33 126.727 1546.19 127.968ZM1525.5 125.694C1525.5 126.648 1524.7 127.939 1523.72 128.565C1522.75 129.191 1521.95 128.41 1521.95 126.832C1521.95 125.254 1522.75 123.961 1523.72 123.961C1524.7 123.961 1525.5 124.74 1525.5 125.694ZM1536.16 126.939C1536.16 127.325 1534.56 127.644 1532.6 127.644C1530.65 127.644 1529.05 126.893 1529.05 125.976C1529.05 125.057 1530.65 124.74 1532.6 125.269C1534.56 125.799 1536.16 126.55 1536.16 126.939ZM1551.81 154.68C1553.09 155.212 1554.62 155.146 1555.21 154.534C1555.8 153.923 1554.75 153.489 1552.88 153.568C1550.81 153.656 1550.39 154.093 1551.81 154.68ZM1427.93 159.011C1432.72 161.673 1432.21 164.47 1426.92 164.47C1423.67 164.47 1422.48 163.489 1422.48 160.788C1422.48 156.58 1423.15 156.361 1427.93 159.011ZM1381.15 161.9C1380.56 162.511 1379.03 162.577 1377.75 162.045C1376.33 161.458 1376.75 161.021 1378.82 160.933C1380.69 160.854 1381.74 161.288 1381.15 161.9ZM1398.12 169.994C1399.56 169.994 1399.57 170.547 1398.15 172.018C1395.81 174.441 1388.21 172.368 1389.78 169.736C1390.38 168.727 1392.05 168.372 1393.5 168.948C1394.95 169.523 1397.02 169.994 1398.12 169.994ZM1643.02 200.687C1641.58 203.349 1640.64 203.449 1635.96 201.44C1632.99 200.164 1628.84 199.685 1626.74 200.378C1622.29 201.84 1623.29 203.578 1628.97 204.248C1631.16 204.506 1635.19 205.294 1637.93 205.999C1641.69 206.971 1643.51 206.443 1645.42 203.83C1646.81 201.93 1647.97 199.753 1648 198.995C1648.1 196.432 1644.69 197.59 1643.02 200.687ZM1470.11 211.761C1471.39 212.293 1472.92 212.226 1473.51 211.615C1474.1 211.004 1473.05 210.569 1471.18 210.648C1469.11 210.737 1468.69 211.173 1470.11 211.761ZM1490.86 228.916C1495.8 231.115 1500.63 231.115 1500.63 228.916C1500.63 227.903 1497.64 227.134 1493.97 227.204C1488.63 227.309 1488.01 227.647 1490.86 228.916ZM1479.32 254.694C1479.32 255.707 1478.52 256.536 1477.54 256.536C1476.57 256.536 1475.77 255.707 1475.77 254.694C1475.77 253.682 1476.57 252.853 1477.54 252.853C1478.52 252.853 1479.32 253.682 1479.32 254.694ZM42.7057 296.409C49.9542 303.209 44.8033 312.107 32.0967 314.74C26.8818 315.822 26.4165 315.53 26.4165 311.171C26.4165 304.443 29.7343 297.741 34.1677 295.516C39.2457 292.966 39.0113 292.942 42.7057 296.409ZM29.3773 309.321C28.7255 309.995 28.1926 311.403 28.1926 312.451C28.1926 313.604 29.0203 313.495 30.2938 312.175C31.4501 310.976 31.983 309.567 31.4785 309.044C30.9741 308.52 30.0274 308.645 29.3773 309.321ZM1432.99 312.44C1431.1 314.139 1397.62 315.207 1397.62 313.567C1397.62 312.523 1405.15 311.775 1415.67 311.775C1425.6 311.775 1433.4 312.073 1432.99 312.44ZM1494.86 318.518C1496.08 319.03 1498.08 319.03 1499.3 318.518C1500.52 318.008 1499.52 317.59 1497.08 317.59C1494.64 317.59 1493.64 318.008 1494.86 318.518ZM1430.03 327.725C1428.81 328.236 1426.81 328.236 1425.59 327.725C1424.37 327.215 1425.37 326.797 1427.81 326.797C1430.25 326.797 1431.25 327.215 1430.03 327.725ZM66.7123 341.396C67.9645 342.694 69.0267 342.755 69.7336 341.569C71.325 338.901 77.9252 341.19 77.9252 344.411C77.9252 346.27 78.9252 346.753 81.0335 345.908C88.1151 343.068 94.3388 342.77 105.793 344.727C122.384 347.559 141.867 352.72 141.867 354.284C141.867 359.064 108.96 361.019 85.6427 357.624C76.0247 356.224 66.6342 355.291 64.7745 355.55C61.2204 356.048 54.8351 351.198 54.8351 348.001C54.8351 345.355 60.3163 339.395 62.7479 339.395C63.8669 339.395 65.6502 340.295 66.7123 341.396ZM1163.16 342.969C1163.16 345.142 1159.7 347.465 1158.42 346.147C1157.15 344.827 1159.39 341.236 1161.49 341.236C1162.41 341.236 1163.16 342.015 1163.16 342.969ZM1148.95 344.919C1148.95 345.931 1148.1 346.76 1147.07 346.76C1146.04 346.76 1145.68 345.931 1146.29 344.919C1146.89 343.906 1147.74 343.077 1148.17 343.077C1148.6 343.077 1148.95 343.906 1148.95 344.919ZM1204.78 344.709C1205.31 345.607 1204.16 346.773 1202.22 347.298C1198.62 348.274 1196.09 346.384 1198.14 344.254C1199.79 342.547 1203.65 342.812 1204.78 344.709ZM1298.15 344.919C1298.15 345.931 1297.8 346.76 1297.37 346.76C1296.94 346.76 1296.09 345.931 1295.49 344.919C1294.88 343.906 1295.24 343.077 1296.27 343.077C1297.3 343.077 1298.15 343.906 1298.15 344.919ZM1317.35 346.057C1315.65 347.822 1313.55 348.443 1312.2 347.581C1310.51 346.495 1310.81 345.769 1313.36 344.731C1319.01 342.438 1320.4 342.899 1317.35 346.057ZM240.347 350.279C240.897 351.203 237.947 352.49 233.791 353.142C229.635 353.792 219.327 356.455 210.887 359.056C195.697 363.741 195.452 363.755 187.269 360.516C182.722 358.716 179.648 356.572 180.438 355.753C181.229 354.934 188.967 353.429 197.639 352.407C206.308 351.385 213.825 350.111 214.342 349.575C215.969 347.889 239.299 348.52 240.347 350.279ZM1172.82 350.249C1174.1 352.413 1169.23 354.304 1165.84 352.954C1162.38 351.579 1164.19 348.601 1168.49 348.601C1170.33 348.601 1172.28 349.343 1172.82 350.249ZM1196.91 351.56C1196.91 351.958 1195.26 352.284 1193.25 352.284C1191.24 352.284 1190.07 351.492 1190.64 350.524C1191.59 348.933 1196.91 349.813 1196.91 351.56ZM1239.33 352.744C1239.22 352.997 1238.87 355.484 1238.55 358.268C1238.11 362.161 1238.72 363.332 1241.21 363.332C1244.4 363.332 1247.37 356.834 1245.56 353.805C1244.75 352.44 1239.84 351.603 1239.33 352.744ZM1160.38 357.62C1162.76 358.587 1163.16 359.43 1161.7 360.371C1159.13 362.015 1152.5 360.078 1152.5 357.685C1152.5 355.677 1155.53 355.654 1160.38 357.62ZM259.094 394.634C255.508 397.037 216.466 397.037 216.466 394.634C216.466 393.502 225.18 392.804 239.112 392.82C254.389 392.841 260.891 393.43 259.094 394.634Z" fill="#FD67CA"/>
</svg>
