<svg width="3651" height="900" viewBox="0 0 3651 900" fill="none" xmlns="http://www.w3.org/2000/svg">
<path fill-rule="evenodd" clip-rule="evenodd" d="M3198.12 896.617C3174.85 895.425 3156.06 891.63 3156.06 888.108C3156.06 884.616 3149.78 883.091 3142.1 884.729C3134.43 886.362 3113.85 885.474 3096.39 882.757C3078.93 880.04 3023.49 877.364 2973.21 876.822C2881.35 875.821 2813.03 866.531 2891.35 865.685C2915.26 865.429 2928.45 862.98 2925.67 859.309C2923.18 856.032 2896.93 853.35 2867.33 853.35C2836.04 853.35 2812.43 850.716 2810.94 847.058C2805.55 833.883 2674.55 829.485 2574.59 839.121C2510.28 845.318 2455.83 846.974 2406.36 844.239C2366.13 842.011 2262.45 840.402 2175.96 840.652C2018.02 841.117 1956.51 836.475 2022.37 829.056C2040.75 826.982 2008.45 825.26 1949.22 825.159C1884.14 825.04 1851.65 826.786 1865.11 829.67C1879.59 832.774 1869.64 833.585 1835.86 832.047C1801.24 830.468 1790.58 831.374 1802.94 834.836C1815.16 838.262 1778.77 841.081 1693.23 843.351C1622.83 845.21 1541.42 848.446 1512.32 850.532C1470.13 853.553 1454.58 852.266 1435.52 844.18C1422.39 838.602 1401.76 833.203 1389.69 832.184C1340.91 828.061 1283.64 812.961 1283.64 804.226C1283.64 801.747 1302.56 799.453 1325.69 799.125C1348.82 798.797 1375.98 796.521 1386.03 794.066C1401.66 790.252 1399 788.995 1367.75 785.42C1347.63 783.12 1324.6 778.138 1316.55 774.36C1308.5 770.576 1268.18 766.387 1226.95 765.053C1181.49 763.575 1151.98 760.16 1151.98 756.376C1151.98 752.944 1141.29 742.296 1128.21 732.708C1104.53 715.35 1104.21 715.302 1042.27 720.052C1008.07 722.673 968.578 724.431 954.498 723.966C888.649 721.786 802.956 712.239 787.948 705.417C778.812 701.269 768.938 699.017 766.005 700.423C754.792 705.798 727.759 692.373 727.759 681.432C727.759 674.776 720.899 668.311 711.302 665.928C695.065 661.893 695.116 661.745 715.025 654.487L735.205 647.134L705.883 636.592C672.947 624.752 668.617 616.606 693.017 612.364C702.072 610.791 716.057 608.371 724.102 606.983C732.148 605.595 704.8 604.153 663.329 603.771C609.358 603.277 589.375 601.167 593.032 596.352C596.47 591.818 619.868 590.501 664.777 592.312C701.428 593.79 739.645 593.063 749.702 590.698L767.987 586.389L749.702 585.835C697.552 584.256 618.047 570.658 618.047 563.317C618.047 558.466 608.86 555.225 594.276 554.939C581.205 554.683 575.442 553.014 581.476 551.244C587.51 549.469 597.384 543.426 603.419 537.819C609.453 532.212 629.201 523.852 647.303 519.234L680.217 510.843L629.018 507.364C600.859 505.451 581.622 503.413 586.274 502.835C592.667 502.036 592.667 498.163 586.274 486.931C580.094 476.074 571.916 471.992 555.876 471.766L533.934 471.45L555.876 463.262L577.819 455.075L552.219 454.014C515.495 452.495 470.184 454.27 455.307 457.816C448.263 459.496 442.507 458.203 442.507 454.95C442.507 451.69 448.263 447.746 455.307 446.184C462.35 444.617 440.174 444.301 406.031 445.481C367.23 446.822 347.949 445.606 354.62 442.252C360.486 439.296 363.733 435.983 361.839 434.892C350.392 428.278 301.307 412.398 292.318 412.398C286.423 412.398 281.595 410.187 281.595 407.488C281.595 404.788 269.505 400.099 254.723 397.06C225.086 390.976 214.883 379.207 235.479 374.857C242.742 373.326 229.094 371.759 205.162 371.377C152.42 370.537 157.935 361.486 215.958 353.65C244.732 349.765 249.823 347.882 234.053 346.958C221.985 346.255 205.528 345.093 197.482 344.384C189.437 343.675 161.46 342.34 135.312 341.423L87.77 339.748L124.341 332.091C144.455 327.878 153.861 324.112 145.237 323.725C136.614 323.332 127.522 318.69 125.036 313.398C122.008 306.975 114.606 304.698 102.779 306.539C93.0361 308.059 80.7337 307.064 75.4456 304.329C68.7458 300.873 71.1229 299.335 83.2644 299.27C92.8533 299.222 113.823 295.975 129.863 292.06C153.517 286.286 156.443 284.117 145.34 280.565C137.813 278.152 113.552 275.727 91.427 275.172C69.3017 274.612 42.9707 272.008 32.9137 269.386C15.4548 264.828 15.6816 264.59 37.9678 264.023C74.6776 263.088 73.1124 253.035 34.8886 244.24C5.33934 237.441 0 233.967 0 221.519C0 209.107 3.9789 206.479 25.5996 204.65C46.9716 202.844 48.7855 201.682 36.5708 197.624C26.4041 194.24 35.3274 192.506 65.8275 191.922C112.719 191.028 157.869 181.238 118.855 180.421C107.789 180.195 98.7412 177.537 98.7412 174.516C98.7412 166.216 128.78 163.081 245.024 159.256C373.403 155.031 420.564 150.854 420.564 143.691C420.564 140.724 408.028 138.292 392.705 138.292C377.382 138.292 358.46 134.354 350.648 129.545C342.844 124.73 326.022 120.708 313.28 120.607C300.532 120.5 284.514 118.67 277.675 116.531C266.886 113.158 267.53 111.615 282.568 104.822L299.881 97.004L282.817 96.7894C272.504 96.6643 266.938 93.6312 268.759 89.1323C272.189 80.6708 330.907 74.3545 415.079 73.3951C447.466 73.0257 471.764 70.1892 471.764 66.7867C471.764 63.5094 452.835 60.7921 429.707 60.7445C385.588 60.661 354.737 56.1027 354.737 49.6671C354.737 39.6206 403.544 31.9038 490.049 28.2748C569.108 24.9558 860.299 17.0485 1162.95 9.99924C1287.97 7.09134 1894.66 -0.243969 1989.45 0.0063014C2041.75 0.149313 2112.51 3.58162 2146.71 7.63958C2180.9 11.6975 2231.18 14.5577 2258.44 13.9975C2296.77 13.211 2308.96 15.0224 2312.25 22.0062C2315.22 28.3225 2326.96 31.0339 2351.3 31.0339C2375.1 31.0339 2392.02 34.8237 2404.82 43.0289C2420.39 53.01 2426.58 53.8919 2441.64 48.3026C2455.64 43.1065 2476.09 43.9108 2531.8 51.8539C2571.42 57.5028 2648.5 64.0218 2703.1 66.3458C2775.18 69.4086 2806.88 73.1507 2818.9 80.0093L2835.45 89.46L2812.98 93.4763C2800.63 95.687 2788.64 99.9774 2786.34 103.01C2780.95 110.101 2813.84 120.297 2843.86 120.833C2863.5 121.191 2864.86 122.055 2852.52 126.375C2838.57 131.261 2838.65 131.517 2854.35 131.917C2864.03 132.161 2870.81 136.094 2870.81 141.457C2870.81 146.48 2875.72 152.123 2881.74 154C2887.75 155.883 2891.15 159.416 2889.29 161.865C2887.44 164.309 2904.24 174.081 2926.62 183.585L2967.3 200.86L2942.82 204.31C2923.52 207.033 2921.05 208.738 2931.15 212.396C2938.19 214.947 2943.95 220.768 2943.95 225.333C2943.95 230.845 2952.55 233.633 2969.55 233.633C2983.63 233.633 2995.15 236.315 2995.15 239.592C2995.15 242.87 2986.92 245.551 2976.86 245.551C2963.46 245.551 2958.58 248.727 2958.58 257.469C2958.58 268.451 2953.7 269.386 2896.41 269.386C2838.25 269.386 2815.48 275.917 2848.87 283.032C2857.28 284.82 2863.5 291.16 2863.5 297.935C2863.5 315.013 2894.53 328.975 2932.49 328.975C2958.15 328.975 2964.54 330.869 2961.4 337.549C2958.53 343.633 2964.45 347.095 2981.74 349.461C3074.37 362.153 3080.42 364.197 3017.09 361.438C2965.26 359.18 2957.96 359.913 2973.21 365.83C2990.89 372.694 2990.41 373.058 2958.58 376.871L2925.67 380.816L2954.92 382.145C3003.2 384.338 3120.84 403.358 3115.09 408.042C3112.15 410.437 3101.23 412.589 3090.84 412.815C3073.73 413.196 3073.32 413.715 3086.58 418.357C3098.31 422.462 3095.78 423.559 3073.78 423.898C3058.7 424.125 3046.35 426.997 3046.35 430.274C3046.35 433.552 3038.95 436.424 3029.89 436.65C3014.34 437.05 3014.24 437.33 3028.03 441.715C3036.07 444.266 3055.81 445.171 3071.92 443.723C3089.05 442.186 3114.87 445.225 3134.12 451.041C3152.22 456.511 3176.91 463.185 3188.98 465.878L3210.92 470.764L3188.98 471.754C3169.66 472.624 3168.84 473.339 3182.14 477.724C3190.45 480.465 3211.84 480.412 3229.68 477.605C3287.04 468.584 3347.48 471.372 3375.49 484.327L3401.09 496.173L3371.83 492.955C3355.74 491.185 3337.64 492.407 3331.6 495.666C3322.2 500.749 3322.46 501.613 3333.43 501.691C3340.47 501.738 3346.23 505.802 3346.23 510.718C3346.23 515.754 3352.77 519.657 3361.21 519.657C3369.45 519.657 3384.13 526.64 3393.84 535.179C3406.43 546.251 3422.58 552.013 3450.18 555.29L3488.86 559.879L3452.29 561.517C3426.38 562.679 3421.95 563.907 3437.1 565.736C3453.87 567.762 3456.24 569.621 3448.07 574.347C3439.99 579.018 3440.78 579.537 3451.59 576.659C3460.18 574.376 3471.41 577.249 3480.85 584.149C3489.27 590.304 3512.63 598.891 3532.74 603.223C3552.86 607.561 3571.94 614.664 3575.16 619.014C3578.38 623.358 3589.31 626.915 3599.45 626.915C3609.6 626.915 3622.54 630.699 3628.22 635.323C3633.89 639.947 3642.71 645.108 3647.81 646.8C3662.35 651.615 3623.81 674.3 3600.83 674.455C3590 674.526 3579.11 677.267 3576.63 680.551C3574.14 683.828 3557.3 689.548 3539.21 693.255C3515.37 698.147 3507.44 702.378 3510.39 708.64C3512.63 713.39 3514.46 720.046 3514.46 723.436C3514.46 726.833 3521.04 728.203 3529.08 726.487C3537.13 724.777 3543.71 725.373 3543.71 727.816C3543.71 733.322 3510.25 746.092 3495.83 746.092C3489.98 746.092 3485.2 748.773 3485.2 752.05C3485.2 755.328 3496.32 758.009 3509.91 758.009C3537.15 758.009 3555.07 770.624 3548.28 785.032C3544.93 792.153 3537.85 793.405 3518.12 790.389C3496.3 787.058 3493.03 787.928 3496.86 796.062C3500.76 804.321 3494.48 805.68 3452.46 805.68C3390.28 805.68 3389.3 819.129 3451.17 823.556C3520.42 828.514 3499.51 844.895 3421.63 846.688C3404.77 847.076 3388.94 850.073 3386.46 853.35C3383.97 856.628 3355.8 859.309 3323.86 859.309C3269.43 859.309 3245.4 867.199 3282.23 872.979C3294.37 874.885 3292.55 875.773 3275.35 876.375C3254.61 877.096 3231.38 889.103 3250.71 889.103C3254.97 889.103 3258.46 891.785 3258.46 895.062C3258.46 898.339 3254.35 900.514 3249.32 899.895C3244.29 899.275 3221.25 897.797 3198.12 896.617ZM3349.89 537.533C3347.4 534.256 3334.86 531.616 3322.03 531.664C3304.27 531.735 3301.31 533.135 3309.66 537.533C3324.16 545.172 3355.68 545.172 3349.89 537.533ZM3274.92 497.835C3269.89 496.179 3261.66 496.179 3256.63 497.835C3251.61 499.486 3255.72 500.839 3265.77 500.839C3275.83 500.839 3279.95 499.486 3274.92 497.835Z" fill="#60E152" fill-opacity="0.76"/>
</svg>
