<svg width="1048" height="306" viewBox="0 0 1048 306" fill="none" xmlns="http://www.w3.org/2000/svg">
<path fill-rule="evenodd" clip-rule="evenodd" d="M491.918 3.05697C450.518 6.66897 429.563 7.51896 419.918 5.97796C413.929 5.02196 321.119 2.57497 320.188 3.34897C320.062 3.45397 320.297 5.52296 320.711 7.94696L321.463 12.354L330.941 13.669C339.44 14.848 340.746 14.813 343.595 13.331C346.85 11.637 347.393 11.655 360.09 13.878C365.774 14.873 367.21 14.814 369.79 13.48C373.657 11.48 377.205 11.494 381.13 13.524C383.135 14.56 385.61 14.95 388.081 14.619C392.354 14.046 394.141 15.286 390.657 16.407C389.425 16.804 345.443 17.518 292.918 17.995C208.725 18.759 177.829 19.504 149.918 21.443C145.793 21.73 134.993 22.416 125.918 22.967C114.274 23.674 107.799 24.54 103.918 25.909C100.893 26.976 96.4095 27.863 93.9555 27.881C90.4085 27.907 89.0745 28.433 87.4555 30.442C85.9135 32.356 84.1335 33.12 80.1385 33.585C74.4005 34.253 72.4835 35.569 76.1265 36.34C77.3865 36.607 90.4675 37.121 105.196 37.483C127.602 38.035 131.789 38.364 130.845 39.502C129.131 41.568 125.562 41.918 97.4175 42.783C70.5045 43.61 65.9175 44.365 65.9175 47.968C65.9175 49.772 67.8276 50.914 70.8446 50.914C71.8146 50.914 73.4225 51.814 74.4175 52.914C76.0085 54.672 77.5085 54.916 86.8225 54.929C99.1645 54.947 101.188 55.653 97.8406 58.771C95.2486 61.186 92.9855 61.641 80.4175 62.278C71.7425 62.717 64.9175 64.295 64.9175 65.862C64.9175 66.802 80.0766 67.914 92.8796 67.914C99.6366 67.914 103.118 68.34 104.475 69.332C105.542 70.112 106.055 71.111 105.615 71.551C105.174 71.991 95.9495 72.522 85.1155 72.732C74.2815 72.941 65.0006 73.507 64.4916 73.989C63.9306 74.52 64.2756 75.652 65.3626 76.853C66.3516 77.946 66.9195 79.466 66.6255 80.232C66.0435 81.749 60.7935 82.886 54.2895 82.903C49.6685 82.915 46.6165 85.193 49.6415 86.372C53.8815 88.024 95.5356 90.1889 97.9746 88.8839C99.2116 88.2209 100.392 88.499 102.122 89.86C105.308 92.366 119.091 93.891 132.918 93.267C145.256 92.71 147.569 93.528 144.099 97.221C142.146 99.3 140.565 99.729 132.656 100.326C127.609 100.707 123.254 101.245 122.978 101.521C121.453 103.046 126.881 103.887 138.418 103.914C145.568 103.931 152.057 104.349 152.837 104.843C154.84 106.111 148.872 106.726 127.918 107.411C101.951 108.26 73.7325 109.804 62.4175 110.994C47.6575 112.547 3.56855 119.888 2.46755 120.975C1.27155 122.157 8.87355 122.228 10.7265 121.053C12.0885 120.19 18.9575 123 22.1675 125.733C24.4485 127.676 24.4076 129.914 22.0916 129.914C20.4356 129.914 15.9175 133.723 15.9175 135.12C15.9175 136.224 21.4715 137.11 30.2675 137.411C40.0685 137.746 43.1016 139.086 37.7596 140.722C35.9216 141.285 32.6175 142.049 30.4175 142.419C25.4455 143.257 23.9175 144.475 23.9175 147.602C23.9175 151.913 22.1625 153.914 18.3825 153.914C14.2515 153.914 13.7755 155.624 17.6675 156.482C23.1315 157.688 25.4135 158.598 25.2285 159.497C25.0315 160.452 23.9185 160.732 9.96455 163.34C1.09355 164.998 -1.24545 166.151 0.574547 167.971C2.15755 169.554 23.0465 167.071 24.6395 165.111C25.7185 163.785 25.9395 163.808 26.5165 165.311C27.1295 166.908 34.8256 166.971 149.794 166.316C264.704 165.662 294.607 165.99 293.433 167.889C293.167 168.32 286.778 168.739 279.236 168.821C248.942 169.151 206.556 170.968 191.918 172.565C183.393 173.495 175.107 174.24 173.504 174.22C171.571 174.196 169.833 175.065 168.344 176.799C166.213 179.28 165.494 179.44 154.268 179.914C142.578 180.408 142.422 180.446 141.135 183.139C139.94 185.639 139.482 185.816 135.587 185.282C132.385 184.843 131.012 185.095 130.007 186.307C128.338 188.318 126.53 188.356 124.918 186.414C123.212 184.358 120.044 184.54 116.144 186.918C112.139 189.36 112.414 189.363 110.071 186.848C108.148 184.784 108.144 184.788 106.032 191.042C102.641 201.085 102.716 201.237 110.668 200.445C116.296 199.885 118.166 200.114 121.918 201.822C124.393 202.948 127.688 203.88 129.241 203.892C131.385 203.909 131.984 204.335 131.731 205.664C131.488 206.935 129.348 207.909 123.908 209.224C113.193 211.813 112.951 212.914 123.096 212.914C129.5 212.914 131.988 213.294 132.918 214.414C133.603 215.239 135.57 215.921 137.29 215.929C141.847 215.952 143.159 217.104 142.341 220.366C141.868 222.251 142.088 223.407 143.033 224.006C145.536 225.591 146.59 224.967 148.476 220.785L150.338 216.657L158.241 217.199C162.588 217.497 166.512 218.117 166.96 218.577C168.069 219.714 164.273 224.207 162.686 223.637C161.988 223.387 159.542 224.696 157.25 226.548C154.957 228.399 152.688 229.914 152.208 229.914C151.727 229.914 149.372 231.914 146.973 234.358L142.612 238.801L148.222 238.222L153.832 237.643L152.802 241.372C151.601 245.723 152.002 246.475 154.742 245.008C156.015 244.327 156.56 243.262 156.247 242.065C155.636 239.728 158.33 238.529 160.99 239.953C162.051 240.52 162.918 241.869 162.918 242.949C162.918 245.789 166.341 245.443 168.334 242.403C169.661 240.376 170.504 240.016 172.699 240.537C174.194 240.892 176.093 241.763 176.918 242.472C178.147 243.529 178.769 243.504 180.359 242.338C182.748 240.586 185.67 240.57 188.777 242.293C190.722 243.372 192.125 243.368 196.777 242.273C202.143 241.009 211.453 241.353 212.378 242.849C212.606 243.219 211.269 245.184 209.406 247.217C206.557 250.328 205.338 250.93 201.719 251.014C199.353 251.069 196.293 251.439 194.918 251.836C189.642 253.361 202.259 253.959 259.817 254.912C291.936 255.443 318.448 256.111 318.733 256.396C319.018 256.681 299.264 256.993 274.835 257.089C245.737 257.204 234.557 257.502 242.418 257.954C249.018 258.333 269.718 258.711 288.418 258.794C308.392 258.882 323.037 259.345 323.918 259.914C324.899 260.548 308.814 260.923 277.418 260.998C251.018 261.062 230.457 261.406 231.726 261.764C233.997 262.403 233.985 262.444 230.935 264.245C228.729 265.548 226.766 265.905 224.127 265.483C222.087 265.156 216.964 265.291 212.743 265.783C207.669 266.374 203.717 266.315 201.079 265.611C195.534 264.131 189.964 265.904 187.735 269.858C186.721 271.656 184.933 273.084 183.235 273.451C181.686 273.785 178.746 274.763 176.703 275.622C173.595 276.931 172.489 276.979 169.928 275.918C167.29 274.826 166.606 274.886 164.983 276.355C163.207 277.962 163.044 277.961 162.128 276.324C161.245 274.747 161.092 274.79 160.456 276.793C159.957 278.367 159.208 278.843 157.837 278.456C156.782 278.158 155.04 277.666 153.968 277.362C152.895 277.059 150.6 277.544 148.866 278.441C145.824 280.014 145.739 280.233 146.41 284.742C146.792 287.312 147.626 290.05 148.262 290.827C149.144 291.904 149.122 292.339 148.168 292.66C146.342 293.274 146.64 296.87 148.578 297.614C150.563 298.375 154.376 294.032 155.991 289.169C156.904 286.423 157.355 286.077 158.928 286.919C162.168 288.653 166.623 288.033 169.736 285.414C173.228 282.475 176.79 282.097 176.802 284.664C176.807 285.626 177.124 287.714 177.507 289.302C178.072 291.643 177.751 292.538 175.811 294.03L173.418 295.87L179.918 295.878C188.797 295.89 190.705 295.28 190.218 292.587C189.913 290.905 190.727 289.906 193.819 288.164C196.017 286.927 198.963 285.914 200.366 285.914C202.601 285.914 202.918 286.336 202.918 289.307C202.918 293.049 201.66 293.97 197.605 293.194C195.585 292.808 194.918 293.082 194.918 294.297C194.918 295.187 195.674 295.914 196.597 295.914C197.52 295.914 199.754 296.449 201.561 297.102C204.373 298.119 205.127 298.035 206.801 296.52C208.138 295.31 210.018 294.841 212.738 295.037C214.927 295.195 217.411 294.749 218.258 294.047C219.104 293.344 221.062 292.94 222.608 293.149L225.418 293.528L222.587 294.727C218.795 296.333 219.689 298.34 224.37 298.732C227.302 298.977 228.765 298.489 230.793 296.589C232.824 294.686 234.154 294.243 236.668 294.635C238.529 294.925 239.918 295.734 239.918 296.527C239.918 297.29 240.593 297.914 241.418 297.914C242.243 297.914 242.918 297.413 242.918 296.801C242.918 295.309 254.651 296.25 261.918 298.325C264.943 299.189 268.16 300.794 269.067 301.891C270.604 303.75 272.714 303.964 300.067 305.023C330.642 306.207 366.8 305.842 414.418 303.869C440.98 302.768 465.115 303.004 504.418 304.75C518.868 305.392 526.514 305.086 555.39 302.713C601.535 298.921 614.839 298.379 628.219 299.744C634.378 300.372 643.13 301.075 647.668 301.306L655.918 301.725V295.926C655.918 291.361 656.29 289.966 657.668 289.366C658.63 288.947 702.393 288.236 754.918 287.785C839.09 287.064 869.912 286.331 897.918 284.385C902.043 284.098 912.843 283.412 921.918 282.861C933.562 282.154 940.037 281.288 943.918 279.919C946.943 278.852 951.426 277.965 953.88 277.947C957.427 277.921 958.761 277.395 960.38 275.386C961.922 273.472 963.702 272.708 967.697 272.243C973.435 271.575 975.352 270.259 971.709 269.488C970.449 269.221 957.368 268.707 942.64 268.345C920.234 267.793 916.047 267.464 916.991 266.326C918.705 264.26 922.274 263.91 950.418 263.045C977.331 262.218 981.918 261.463 981.918 257.86C981.918 256.056 980.008 254.914 976.991 254.914C976.021 254.914 974.413 254.014 973.418 252.914C971.827 251.156 970.327 250.912 961.013 250.899C948.671 250.881 946.648 250.175 949.995 247.057C952.587 244.642 954.85 244.187 967.418 243.55C976.093 243.111 982.918 241.533 982.918 239.966C982.918 239.026 967.759 237.914 954.956 237.914C948.199 237.914 944.718 237.488 943.361 236.496C942.294 235.716 941.781 234.717 942.221 234.277C942.662 233.837 951.886 233.306 962.72 233.096C973.554 232.887 982.835 232.321 983.344 231.839C983.905 231.308 983.56 230.176 982.473 228.975C981.484 227.882 980.916 226.362 981.21 225.596C981.792 224.079 987.042 222.942 993.546 222.925C998.167 222.913 1001.22 220.635 998.194 219.456C993.954 217.804 952.3 215.639 949.861 216.944C948.624 217.607 947.444 217.329 945.714 215.968C942.528 213.462 928.745 211.937 914.918 212.561C902.58 213.118 900.267 212.3 903.737 208.607C905.69 206.528 907.271 206.099 915.18 205.502C920.227 205.121 924.582 204.583 924.858 204.307C926.383 202.782 920.955 201.941 909.418 201.914C902.268 201.897 895.779 201.479 894.999 200.985C892.996 199.717 898.964 199.102 919.918 198.417C945.885 197.568 974.103 196.024 985.418 194.834C1000.18 193.281 1044.27 185.94 1045.37 184.853C1046.56 183.671 1038.96 183.6 1037.11 184.775C1035.75 185.638 1028.88 182.828 1025.67 180.095C1023.39 178.152 1023.43 175.914 1025.74 175.914C1027.4 175.914 1031.92 172.105 1031.92 170.708C1031.92 169.604 1026.36 168.718 1017.57 168.417C1007.77 168.082 1004.73 166.742 1010.08 165.106C1011.91 164.543 1015.22 163.779 1017.42 163.409C1022.39 162.571 1023.92 161.353 1023.92 158.226C1023.92 153.915 1025.67 151.914 1029.45 151.914C1033.58 151.914 1034.06 150.204 1030.17 149.346C1024.7 148.14 1022.42 147.23 1022.61 146.331C1022.8 145.376 1023.92 145.096 1037.87 142.488C1046.74 140.83 1049.08 139.677 1047.26 137.857C1045.68 136.274 1024.79 138.757 1023.2 140.717C1022.12 142.043 1021.9 142.02 1021.32 140.517C1020.71 138.92 1013.01 138.857 898.042 139.512C783.774 140.162 753.231 139.835 754.38 137.976C754.633 137.566 760.821 137.149 768.129 137.05C799.959 136.621 841.611 134.824 855.918 133.263C864.443 132.333 872.729 131.588 874.332 131.608C876.265 131.632 878.003 130.763 879.492 129.029C881.623 126.548 882.342 126.388 893.568 125.914C905.289 125.419 905.411 125.388 906.714 122.661C907.916 120.146 908.372 119.963 911.999 120.543C915.073 121.034 916.428 120.762 918.002 119.338C919.656 117.841 920.35 117.724 921.727 118.712C925.58 121.479 928.43 121.455 932.304 118.622C933.917 117.442 934.091 116.456 933.51 111.804L932.83 106.365L926.624 104.139C923.211 102.915 919.373 101.914 918.095 101.914C916.421 101.914 915.865 101.424 916.105 100.164C916.348 98.893 918.488 97.919 923.928 96.604C934.583 94.03 934.891 92.914 924.947 92.914C918.72 92.914 916.128 92.509 914.829 91.334C913.556 90.181 910.336 89.643 902.934 89.345C893.95 88.983 881.147 87.481 880.372 86.698C879.632 85.952 884.042 81.7929 885.15 82.1909C885.848 82.4409 888.294 81.132 890.586 79.28C892.879 77.429 895.193 75.914 895.728 75.914C896.263 75.914 896.973 74.831 897.305 73.507C897.638 72.183 898.185 70.383 898.521 69.507C898.981 68.309 898.506 67.914 896.606 67.914C894.188 67.914 894.122 67.759 895.072 64.32C896.236 60.104 895.817 59.363 893.094 60.82C891.821 61.501 891.276 62.566 891.589 63.763C892.2 66.1 889.506 67.299 886.846 65.875C885.785 65.308 884.918 63.959 884.918 62.879C884.918 60.039 881.495 60.385 879.502 63.425C878.175 65.452 877.332 65.812 875.137 65.291C873.642 64.936 871.743 64.065 870.918 63.356C869.689 62.299 869.067 62.324 867.477 63.49C865.088 65.242 862.166 65.258 859.059 63.535C857.114 62.456 855.711 62.46 851.059 63.555C845.693 64.819 836.383 64.475 835.458 62.979C835.23 62.609 836.567 60.644 838.43 58.611C841.279 55.5 842.498 54.898 846.117 54.814C848.483 54.759 851.543 54.389 852.918 53.992C858.194 52.467 845.577 51.869 788.019 50.916C755.9 50.385 729.388 49.717 729.103 49.432C728.818 49.147 748.572 48.835 773.001 48.739C802.099 48.624 813.279 48.326 805.418 47.874C798.818 47.495 778.118 47.117 759.418 47.034C739.444 46.946 724.799 46.483 723.918 45.914C722.937 45.28 739.022 44.905 770.418 44.83C796.818 44.766 817.379 44.422 816.11 44.064C813.839 43.425 813.851 43.384 816.901 41.583C819.107 40.28 821.07 39.923 823.709 40.345C825.749 40.672 830.872 40.537 835.093 40.045C840.167 39.454 844.119 39.513 846.757 40.217C852.302 41.697 857.872 39.924 860.101 35.97C861.12 34.163 862.895 32.75 864.601 32.389C866.15 32.06 868.896 31.144 870.702 30.353C872.508 29.562 874.646 28.914 875.452 28.914C877.188 28.914 877.204 28.797 875.943 25.479C875.353 23.928 874.191 22.914 873.005 22.914C871.806 22.914 871.039 22.233 871.034 21.164C871.029 20.202 870.712 18.114 870.329 16.526C869.764 14.185 870.085 13.29 872.025 11.798L874.418 9.95798L867.918 9.94998C859.039 9.93798 857.131 10.548 857.618 13.241C857.923 14.923 857.109 15.922 854.017 17.664C851.819 18.902 848.873 19.914 847.47 19.914C845.235 19.914 844.918 19.492 844.918 16.521C844.918 12.779 846.176 11.858 850.231 12.634C852.251 13.02 852.918 12.746 852.918 11.531C852.918 10.641 852.162 9.91397 851.239 9.91397C850.316 9.91397 848.082 9.37898 846.275 8.72598C843.463 7.70898 842.709 7.79298 841.035 9.30798C839.698 10.518 837.818 10.987 835.098 10.791C832.909 10.633 830.425 11.079 829.578 11.781C828.732 12.484 826.774 12.888 825.228 12.679L822.418 12.3L825.249 11.101C829.041 9.49498 828.147 7.48798 823.466 7.09598C820.534 6.85098 819.071 7.33898 817.043 9.23898C815.012 11.142 813.682 11.585 811.168 11.193C809.307 10.903 807.918 10.094 807.918 9.30096C807.918 8.53796 807.243 7.91397 806.418 7.91397C805.593 7.91397 804.918 8.41498 804.918 9.02698C804.918 10.519 793.185 9.57796 785.918 7.50296C782.893 6.63896 779.681 5.03998 778.779 3.94998C777.268 2.12198 775.163 1.88798 751.779 0.953978C720.285 -0.304022 685.999 -0.319017 662.418 0.915983C628.084 2.71298 577.669 3.30098 562.656 2.07898C537.157 0.00197792 525.009 0.170975 491.918 3.05697ZM864.686 19.914C865.373 21.014 866.606 21.914 867.426 21.914C869.731 21.914 869.189 23.608 866.668 24.284C862.099 25.508 860.918 25.056 860.918 22.081C860.918 17.608 862.631 16.623 864.686 19.914ZM186.918 283.855C186.918 287.656 185.16 288.704 183.281 286.022C182.469 284.863 181.155 283.914 180.361 283.914C178.327 283.914 178.561 282.154 180.668 281.603C185.526 280.334 186.918 280.835 186.918 283.855Z" fill="#FFEAA7"/>
</svg>
